  0
SECTION
  2
HEADER
  9
$ACADVER
  1
AC1009
  9
$INSBASE
 10
0.0
 20
0.0
 30
0.0
  9
$EXTMIN
 10
0.0
 20
0.0
 30
-0.59
  9
$EXTMAX
 10
63.0
 20
23.0
 30
4.0
  9
$LIMMIN
 10
0.0
 20
0.0
  9
$LIMMAX
 10
20.0
 20
10.0
  9
$ORTHOMODE
 70
     0
  9
$REGENMODE
 70
     1
  9
$FILLMODE
 70
     1
  9
$QTEXTMODE
 70
     0
  9
$MIRRTEXT
 70
     1
  9
$DRAGMODE
 70
     2
  9
$LTSCALE
 40
1.0
  9
$OSMODE
 70
     0
  9
$ATTMODE
 70
     1
  9
$TEXTSIZE
 40
2.5
  9
$TRACEWID
 40
1.0
  9
$TEXTSTYLE
  7
STANDARD
  9
$CLAYER
  8
0
  9
$CELTYPE
  6
BYLAYER
  9
$CECOLOR
 62
   256
  9
$DIMSCALE
 40
1.0
  9
$DIMASZ
 40
2.5
  9
$DIMEXO
 40
0.625
  9
$DIMDLI
 40
3.75
  9
$DIMRND
 40
0.0
  9
$DIMDLE
 40
0.0
  9
$DIMEXE
 40
1.25
  9
$DIMTP
 40
0.0
  9
$DIMTM
 40
0.0
  9
$DIMTXT
 40
2.5
  9
$DIMCEN
 40
2.5
  9
$DIMTSZ
 40
0.0
  9
$DIMTOL
 70
     0
  9
$DIMLIM
 70
     0
  9
$DIMTIH
 70
     0
  9
$DIMTOH
 70
     0
  9
$DIMSE1
 70
     0
  9
$DIMSE2
 70
     0
  9
$DIMTAD
 70
     1
  9
$DIMZIN
 70
     8
  9
$DIMBLK
  1

  9
$DIMASO
 70
     1
  9
$DIMSHO
 70
     1
  9
$DIMPOST
  1

  9
$DIMAPOST
  1

  9
$DIMALT
 70
     0
  9
$DIMALTD
 70
     4
  9
$DIMALTF
 40
0.0394
  9
$DIMLFAC
 40
1.0
  9
$DIMTOFL
 70
     1
  9
$DIMTVP
 40
0.0
  9
$DIMTIX
 70
     0
  9
$DIMSOXD
 70
     0
  9
$DIMSAH
 70
     0
  9
$DIMBLK1
  1

  9
$DIMBLK2
  1

  9
$DIMSTYLE
  2
STANDARD
  9
$DIMCLRD
 70
     0
  9
$DIMCLRE
 70
     0
  9
$DIMCLRT
 70
     0
  9
$DIMTFAC
 40
1.0
  9
$DIMGAP
 40
0.625
  9
$LUNITS
 70
     2
  9
$LUPREC
 70
     4
  9
$SKETCHINC
 40
1.0
  9
$FILLETRAD
 40
10.0
  9
$AUNITS
 70
     0
  9
$AUPREC
 70
     0
  9
$MENU
  1
.
  9
$ELEVATION
 40
0.0
  9
$PELEVATION
 40
0.0
  9
$THICKNESS
 40
0.0
  9
$LIMCHECK
 70
     0
  9
$BLIPMODE
 70
     0
  9
$CHAMFERA
 40
10.0
  9
$CHAMFERB
 40
10.0
  9
$SKPOLY
 70
     0
  9
$TDCREATE
 40
2450803.744772
  9
$TDUPDATE
 40
2451398.882591
  9
$TDINDWG
 40
0.001443
  9
$TDUSRTIMER
 40
0.001443
  9
$USRTIMER
 70
     1
  9
$ANGBASE
 50
0.0
  9
$ANGDIR
 70
     0
  9
$PDMODE
 70
     0
  9
$PDSIZE
 40
0.0
  9
$PLINEWID
 40
0.0
  9
$COORDS
 70
     1
  9
$SPLFRAME
 70
     0
  9
$SPLINETYPE
 70
     6
  9
$SPLINESEGS
 70
     8
  9
$ATTDIA
 70
     0
  9
$ATTREQ
 70
     1
  9
$HANDLING
 70
     1
  9
$HANDSEED
  5
537
  9
$SURFTAB1
 70
     6
  9
$SURFTAB2
 70
     6
  9
$SURFTYPE
 70
     6
  9
$SURFU
 70
     6
  9
$SURFV
 70
     6
  9
$UCSNAME
  2

  9
$UCSORG
 10
0.0
 20
0.0
 30
0.0
  9
$UCSXDIR
 10
1.0
 20
0.0
 30
0.0
  9
$UCSYDIR
 10
0.0
 20
1.0
 30
0.0
  9
$PUCSNAME
  2

  9
$PUCSORG
 10
0.0
 20
0.0
 30
0.0
  9
$PUCSXDIR
 10
1.0
 20
0.0
 30
0.0
  9
$PUCSYDIR
 10
0.0
 20
1.0
 30
0.0
  9
$USERI1
 70
     0
  9
$USERI2
 70
     0
  9
$USERI3
 70
     0
  9
$USERI4
 70
     0
  9
$USERI5
 70
     0
  9
$USERR1
 40
0.0
  9
$USERR2
 40
0.0
  9
$USERR3
 40
0.0
  9
$USERR4
 40
0.0
  9
$USERR5
 40
0.0
  9
$WORLDVIEW
 70
     1
  9
$SHADEDGE
 70
     3
  9
$SHADEDIF
 70
    70
  9
$TILEMODE
 70
     1
  9
$MAXACTVP
 70
    48
  9
$PLIMCHECK
 70
     0
  9
$PEXTMIN
 10
1.000000E+020
 20
1.000000E+020
 30
1.000000E+020
  9
$PEXTMAX
 10
-1.000000E+020
 20
-1.000000E+020
 30
-1.000000E+020
  9
$PLIMMIN
 10
0.0
 20
0.0
  9
$PLIMMAX
 10
420.0
 20
297.0
  9
$UNITMODE
 70
     0
  9
$VISRETAIN
 70
     1
  9
$PLINEGEN
 70
     0
  9
$PSLTSCALE
 70
     1
  0
ENDSEC
  0
SECTION
  2
TABLES
  0
TABLE
  2
VPORT
 70
     2
  0
VPORT
  2
*ACTIVE
 70
     0
 10
0.0
 20
0.0
 11
1.0
 21
1.0
 12
30.405591
 22
-6.772839
 13
0.0
 23
0.0
 14
10.0
 24
10.0
 15
10.0
 25
10.0
 16
1.0
 26
-1.0
 36
1.0
 17
0.0
 27
0.0
 37
0.0
 40
68.487113
 41
2.443396
 42
50.0
 43
0.0
 44
0.0
 50
0.0
 51
0.0
 71
     0
 72
   100
 73
     1
 74
     1
 75
     0
 76
     0
 77
     0
 78
     0
  0
ENDTAB
  0
TABLE
  2
LTYPE
 70
     1
  0
LTYPE
  2
CONTINUOUS
 70
     0
  3
Solid line
 72
    65
 73
     0
 40
0.0
  0
ENDTAB
  0
TABLE
  2
LAYER
 70
     1
  0
LAYER
  2
0
 70
     0
 62
     7
  6
CONTINUOUS
  0
ENDTAB
  0
TABLE
  2
STYLE
 70
     1
  0
STYLE
  2
STANDARD
 70
     0
 40
0.0
 41
1.0
 50
0.0
 71
     0
 42
2.5
  3
txt
  4

  0
ENDTAB
  0
TABLE
  2
VIEW
 70
     0
  0
ENDTAB
  0
TABLE
  2
UCS
 70
     0
  0
ENDTAB
  0
TABLE
  2
APPID
 70
     1
  0
APPID
  2
ACAD
 70
     0
  0
ENDTAB
  0
TABLE
  2
DIMSTYLE
 70
     1
  0
DIMSTYLE
  2
STANDARD
 70
     0
  3

  4

  5

  6

  7

 40
1.0
 41
0.18
 42
0.0625
 43
0.38
 44
0.18
 45
0.0
 46
0.0
 47
0.0
 48
0.0
140
0.18
141
0.09
142
0.0
143
25.4
144
1.0
145
0.0
146
1.0
147
0.09
 71
     0
 72
     0
 73
     1
 74
     1
 75
     0
 76
     0
 77
     0
 78
     0
170
     0
171
     2
172
     0
173
     0
174
     0
175
     0
176
     0
177
     0
178
     0
  0
ENDTAB
  0
ENDSEC
  0
SECTION
  2
BLOCKS
  0
BLOCK
  8
0
  2
$MODEL_SPACE
 70
     0
 10
0.0
 20
0.0
 30
0.0
  3
$MODEL_SPACE
  1

  0
ENDBLK
  5
1A
  8
0
  0
BLOCK
 67
     1
  8
0
  2
$PAPER_SPACE
 70
     0
 10
0.0
 20
0.0
 30
0.0
  3
$PAPER_SPACE
  1

  0
ENDBLK
  5
17
 67
     1
  8
0
  0
ENDSEC
  0
SECTION
  2
ENTITIES
  0
LINE
  5
20
  8
0
 62
     7
 10
0.0
 20
0.0
 30
0.0
 11
3.0
 21
0.0
 31
0.0
  0
LINE
  5
21
  8
0
 62
     7
 10
0.0
 20
0.0
 30
0.0
 11
0.0
 21
2.58
 31
1.71
  0
LINE
  5
22
  8
0
 62
     7
 10
3.0
 20
0.0
 30
0.0
 11
6.0
 21
0.0
 31
0.0
  0
LINE
  5
23
  8
0
 62
     7
 10
3.0
 20
0.0
 30
0.0
 11
3.0
 21
2.58
 31
1.71
  0
LINE
  5
24
  8
0
 62
     7
 10
6.0
 20
0.0
 30
0.0
 11
9.0
 21
0.0
 31
0.0
  0
LINE
  5
25
  8
0
 62
     7
 10
6.0
 20
0.0
 30
0.0
 11
6.0
 21
2.58
 31
1.71
  0
LINE
  5
26
  8
0
 62
     7
 10
9.0
 20
0.0
 30
0.0
 11
12.0
 21
0.0
 31
0.0
  0
LINE
  5
27
  8
0
 62
     7
 10
9.0
 20
0.0
 30
0.0
 11
9.0
 21
2.58
 31
1.71
  0
LINE
  5
28
  8
0
 62
     7
 10
12.0
 20
0.0
 30
0.0
 11
15.0
 21
0.0
 31
0.0
  0
LINE
  5
29
  8
0
 62
     7
 10
12.0
 20
0.0
 30
0.0
 11
12.0
 21
2.58
 31
1.71
  0
LINE
  5
2A
  8
0
 62
     7
 10
15.0
 20
0.0
 30
0.0
 11
18.0
 21
0.0
 31
0.0
  0
LINE
  5
2B
  8
0
 62
     7
 10
15.0
 20
0.0
 30
0.0
 11
15.0
 21
2.58
 31
1.71
  0
LINE
  5
2C
  8
0
 62
     7
 10
18.0
 20
0.0
 30
0.0
 11
21.0
 21
0.0
 31
0.0
  0
LINE
  5
2D
  8
0
 62
     7
 10
18.0
 20
0.0
 30
0.0
 11
18.0
 21
2.58
 31
1.71
  0
LINE
  5
2E
  8
0
 62
     7
 10
21.0
 20
0.0
 30
0.0
 11
24.0
 21
0.0
 31
0.0
  0
LINE
  5
2F
  8
0
 62
     7
 10
21.0
 20
0.0
 30
0.0
 11
21.0
 21
2.58
 31
1.71
  0
LINE
  5
30
  8
0
 62
     7
 10
24.0
 20
0.0
 30
0.0
 11
27.0
 21
0.0
 31
0.0
  0
LINE
  5
31
  8
0
 62
     7
 10
24.0
 20
0.0
 30
0.0
 11
24.0
 21
2.58
 31
1.71
  0
LINE
  5
32
  8
0
 62
     7
 10
27.0
 20
0.0
 30
0.0
 11
30.0
 21
0.0
 31
0.0
  0
LINE
  5
33
  8
0
 62
     7
 10
27.0
 20
0.0
 30
0.0
 11
27.0
 21
2.58
 31
1.71
  0
LINE
  5
34
  8
0
 62
     7
 10
30.0
 20
0.0
 30
0.0
 11
33.0
 21
0.0
 31
0.0
  0
LINE
  5
35
  8
0
 62
     7
 10
30.0
 20
0.0
 30
0.0
 11
30.0
 21
2.58
 31
1.71
  0
LINE
  5
36
  8
0
 62
     7
 10
33.0
 20
0.0
 30
0.0
 11
36.0
 21
0.0
 31
0.0
  0
LINE
  5
37
  8
0
 62
     7
 10
33.0
 20
0.0
 30
0.0
 11
33.0
 21
2.58
 31
1.71
  0
LINE
  5
38
  8
0
 62
     7
 10
36.0
 20
0.0
 30
0.0
 11
39.0
 21
0.0
 31
0.0
  0
LINE
  5
39
  8
0
 62
     7
 10
36.0
 20
0.0
 30
0.0
 11
36.0
 21
2.58
 31
1.71
  0
LINE
  5
3A
  8
0
 62
     7
 10
39.0
 20
0.0
 30
0.0
 11
42.0
 21
0.0
 31
0.0
  0
LINE
  5
3B
  8
0
 62
     7
 10
39.0
 20
0.0
 30
0.0
 11
39.0
 21
2.58
 31
1.71
  0
LINE
  5
3C
  8
0
 62
     7
 10
42.0
 20
0.0
 30
0.0
 11
45.0
 21
0.0
 31
0.0
  0
LINE
  5
3D
  8
0
 62
     7
 10
42.0
 20
0.0
 30
0.0
 11
42.0
 21
2.58
 31
1.71
  0
LINE
  5
3E
  8
0
 62
     7
 10
45.0
 20
0.0
 30
0.0
 11
48.0
 21
0.0
 31
0.0
  0
LINE
  5
3F
  8
0
 62
     7
 10
45.0
 20
0.0
 30
0.0
 11
45.0
 21
2.58
 31
1.71
  0
LINE
  5
40
  8
0
 62
     7
 10
48.0
 20
0.0
 30
0.0
 11
51.0
 21
0.23
 31
0.0
  0
LINE
  5
41
  8
0
 62
     7
 10
48.0
 20
0.0
 30
0.0
 11
48.0
 21
2.58
 31
1.71
  0
LINE
  5
42
  8
0
 62
     7
 10
51.0
 20
0.23
 30
0.0
 11
54.0
 21
0.96
 31
0.0
  0
LINE
  5
43
  8
0
 62
     7
 10
51.0
 20
0.23
 30
0.0
 11
51.0
 21
2.58
 31
1.71
  0
LINE
  5
44
  8
0
 62
     7
 10
54.0
 20
0.96
 30
0.0
 11
54.0
 21
2.58
 31
1.71
  0
LINE
  5
45
  8
0
 62
     7
 10
0.0
 20
2.58
 30
1.71
 11
3.0
 21
2.58
 31
1.71
  0
LINE
  5
46
  8
0
 62
     7
 10
0.0
 20
2.58
 30
1.71
 11
0.0
 21
5.41
 31
2.97
  0
LINE
  5
47
  8
0
 62
     7
 10
3.0
 20
2.58
 30
1.71
 11
6.0
 21
2.58
 31
1.71
  0
LINE
  5
48
  8
0
 62
     7
 10
3.0
 20
2.58
 30
1.71
 11
3.0
 21
5.41
 31
2.97
  0
LINE
  5
49
  8
0
 62
     7
 10
6.0
 20
2.58
 30
1.71
 11
9.0
 21
2.58
 31
1.71
  0
LINE
  5
4A
  8
0
 62
     7
 10
6.0
 20
2.58
 30
1.71
 11
6.0
 21
5.41
 31
2.97
  0
LINE
  5
4B
  8
0
 62
     7
 10
9.0
 20
2.58
 30
1.71
 11
12.0
 21
2.58
 31
1.71
  0
LINE
  5
4C
  8
0
 62
     7
 10
9.0
 20
2.58
 30
1.71
 11
9.0
 21
5.41
 31
2.97
  0
LINE
  5
4D
  8
0
 62
     7
 10
12.0
 20
2.58
 30
1.71
 11
15.0
 21
2.58
 31
1.71
  0
LINE
  5
4E
  8
0
 62
     7
 10
12.0
 20
2.58
 30
1.71
 11
12.0
 21
5.41
 31
2.97
  0
LINE
  5
4F
  8
0
 62
     7
 10
15.0
 20
2.58
 30
1.71
 11
18.0
 21
2.58
 31
1.71
  0
LINE
  5
50
  8
0
 62
     7
 10
15.0
 20
2.58
 30
1.71
 11
15.0
 21
5.41
 31
2.97
  0
LINE
  5
51
  8
0
 62
     7
 10
18.0
 20
2.58
 30
1.71
 11
21.0
 21
2.58
 31
1.71
  0
LINE
  5
52
  8
0
 62
     7
 10
18.0
 20
2.58
 30
1.71
 11
18.0
 21
5.41
 31
2.97
  0
LINE
  5
53
  8
0
 62
     7
 10
21.0
 20
2.58
 30
1.71
 11
24.0
 21
2.58
 31
1.71
  0
LINE
  5
54
  8
0
 62
     7
 10
21.0
 20
2.58
 30
1.71
 11
21.0
 21
5.41
 31
2.97
  0
LINE
  5
55
  8
0
 62
     7
 10
24.0
 20
2.58
 30
1.71
 11
27.0
 21
2.58
 31
1.71
  0
LINE
  5
56
  8
0
 62
     7
 10
24.0
 20
2.58
 30
1.71
 11
24.0
 21
5.41
 31
2.97
  0
LINE
  5
57
  8
0
 62
     7
 10
27.0
 20
2.58
 30
1.71
 11
30.0
 21
2.58
 31
1.71
  0
LINE
  5
58
  8
0
 62
     7
 10
27.0
 20
2.58
 30
1.71
 11
27.0
 21
5.41
 31
2.97
  0
LINE
  5
59
  8
0
 62
     7
 10
30.0
 20
2.58
 30
1.71
 11
33.0
 21
2.58
 31
1.71
  0
LINE
  5
5A
  8
0
 62
     7
 10
30.0
 20
2.58
 30
1.71
 11
30.0
 21
5.41
 31
2.97
  0
LINE
  5
5B
  8
0
 62
     7
 10
33.0
 20
2.58
 30
1.71
 11
36.0
 21
2.58
 31
1.71
  0
LINE
  5
5C
  8
0
 62
     7
 10
33.0
 20
2.58
 30
1.71
 11
33.0
 21
5.41
 31
2.97
  0
LINE
  5
5D
  8
0
 62
     7
 10
36.0
 20
2.58
 30
1.71
 11
39.0
 21
2.58
 31
1.71
  0
LINE
  5
5E
  8
0
 62
     7
 10
36.0
 20
2.58
 30
1.71
 11
36.0
 21
5.41
 31
2.97
  0
LINE
  5
5F
  8
0
 62
     7
 10
39.0
 20
2.58
 30
1.71
 11
42.0
 21
2.58
 31
1.71
  0
LINE
  5
60
  8
0
 62
     7
 10
39.0
 20
2.58
 30
1.71
 11
39.0
 21
5.41
 31
2.97
  0
LINE
  5
61
  8
0
 62
     7
 10
42.0
 20
2.58
 30
1.71
 11
45.0
 21
2.58
 31
1.71
  0
LINE
  5
62
  8
0
 62
     7
 10
42.0
 20
2.58
 30
1.71
 11
42.0
 21
5.41
 31
2.97
  0
LINE
  5
63
  8
0
 62
     7
 10
45.0
 20
2.58
 30
1.71
 11
48.0
 21
2.58
 31
1.71
  0
LINE
  5
64
  8
0
 62
     7
 10
45.0
 20
2.58
 30
1.71
 11
45.0
 21
5.41
 31
2.97
  0
LINE
  5
65
  8
0
 62
     7
 10
48.0
 20
2.58
 30
1.71
 11
51.0
 21
2.58
 31
1.71
  0
LINE
  5
66
  8
0
 62
     7
 10
48.0
 20
2.58
 30
1.71
 11
48.0
 21
5.41
 31
2.97
  0
LINE
  5
67
  8
0
 62
     7
 10
51.0
 20
2.58
 30
1.71
 11
54.0
 21
2.58
 31
1.71
  0
LINE
  5
68
  8
0
 62
     7
 10
51.0
 20
2.58
 30
1.71
 11
51.0
 21
5.41
 31
2.97
  0
LINE
  5
69
  8
0
 62
     7
 10
54.0
 20
2.58
 30
1.71
 11
57.47
 21
2.58
 31
1.71
  0
LINE
  5
6A
  8
0
 62
     7
 10
54.0
 20
2.58
 30
1.71
 11
54.0
 21
5.41
 31
2.97
  0
LINE
  5
6B
  8
0
 62
     7
 10
57.47
 20
2.58
 30
1.71
 11
57.0
 21
5.41
 31
2.97
  0
LINE
  5
6C
  8
0
 62
     7
 10
0.0
 20
5.41
 30
2.97
 11
3.0
 21
5.41
 31
2.97
  0
LINE
  5
6D
  8
0
 62
     7
 10
0.0
 20
5.41
 30
2.97
 11
0.0
 21
8.41
 31
3.74
  0
LINE
  5
6E
  8
0
 62
     7
 10
3.0
 20
5.41
 30
2.97
 11
6.0
 21
5.41
 31
2.97
  0
LINE
  5
6F
  8
0
 62
     7
 10
3.0
 20
5.41
 30
2.97
 11
3.0
 21
8.41
 31
3.74
  0
LINE
  5
70
  8
0
 62
     7
 10
6.0
 20
5.41
 30
2.97
 11
9.0
 21
5.41
 31
2.97
  0
LINE
  5
71
  8
0
 62
     7
 10
6.0
 20
5.41
 30
2.97
 11
6.0
 21
8.41
 31
3.74
  0
LINE
  5
72
  8
0
 62
     7
 10
9.0
 20
5.41
 30
2.97
 11
12.0
 21
5.41
 31
2.97
  0
LINE
  5
73
  8
0
 62
     7
 10
9.0
 20
5.41
 30
2.97
 11
9.0
 21
8.41
 31
3.74
  0
LINE
  5
74
  8
0
 62
     7
 10
12.0
 20
5.41
 30
2.97
 11
15.0
 21
5.41
 31
2.97
  0
LINE
  5
75
  8
0
 62
     7
 10
12.0
 20
5.41
 30
2.97
 11
12.0
 21
8.41
 31
3.74
  0
LINE
  5
76
  8
0
 62
     7
 10
15.0
 20
5.41
 30
2.97
 11
18.0
 21
5.41
 31
2.97
  0
LINE
  5
77
  8
0
 62
     7
 10
15.0
 20
5.41
 30
2.97
 11
15.0
 21
8.41
 31
3.74
  0
LINE
  5
78
  8
0
 62
     7
 10
18.0
 20
5.41
 30
2.97
 11
21.0
 21
5.41
 31
2.97
  0
LINE
  5
79
  8
0
 62
     7
 10
18.0
 20
5.41
 30
2.97
 11
18.0
 21
8.41
 31
3.74
  0
LINE
  5
7A
  8
0
 62
     7
 10
21.0
 20
5.41
 30
2.97
 11
24.0
 21
5.41
 31
2.97
  0
LINE
  5
7B
  8
0
 62
     7
 10
21.0
 20
5.41
 30
2.97
 11
21.0
 21
8.41
 31
3.74
  0
LINE
  5
7C
  8
0
 62
     7
 10
24.0
 20
5.41
 30
2.97
 11
27.0
 21
5.41
 31
2.97
  0
LINE
  5
7D
  8
0
 62
     7
 10
24.0
 20
5.41
 30
2.97
 11
24.0
 21
8.41
 31
3.74
  0
LINE
  5
7E
  8
0
 62
     7
 10
27.0
 20
5.41
 30
2.97
 11
30.0
 21
5.41
 31
2.97
  0
LINE
  5
7F
  8
0
 62
     7
 10
27.0
 20
5.41
 30
2.97
 11
27.0
 21
8.41
 31
3.74
  0
LINE
  5
80
  8
0
 62
     7
 10
30.0
 20
5.41
 30
2.97
 11
33.0
 21
5.41
 31
2.97
  0
LINE
  5
81
  8
0
 62
     7
 10
30.0
 20
5.41
 30
2.97
 11
30.0
 21
8.41
 31
3.74
  0
LINE
  5
82
  8
0
 62
     7
 10
33.0
 20
5.41
 30
2.97
 11
36.0
 21
5.41
 31
2.97
  0
LINE
  5
83
  8
0
 62
     7
 10
33.0
 20
5.41
 30
2.97
 11
33.0
 21
8.41
 31
3.74
  0
LINE
  5
84
  8
0
 62
     7
 10
36.0
 20
5.41
 30
2.97
 11
39.0
 21
5.41
 31
2.97
  0
LINE
  5
85
  8
0
 62
     7
 10
36.0
 20
5.41
 30
2.97
 11
36.0
 21
8.41
 31
3.74
  0
LINE
  5
86
  8
0
 62
     7
 10
39.0
 20
5.41
 30
2.97
 11
42.0
 21
5.41
 31
2.97
  0
LINE
  5
87
  8
0
 62
     7
 10
39.0
 20
5.41
 30
2.97
 11
39.0
 21
8.41
 31
3.74
  0
LINE
  5
88
  8
0
 62
     7
 10
42.0
 20
5.41
 30
2.97
 11
45.0
 21
5.41
 31
2.97
  0
LINE
  5
89
  8
0
 62
     7
 10
42.0
 20
5.41
 30
2.97
 11
42.0
 21
8.41
 31
3.74
  0
LINE
  5
8A
  8
0
 62
     7
 10
45.0
 20
5.41
 30
2.97
 11
48.0
 21
5.41
 31
2.97
  0
LINE
  5
8B
  8
0
 62
     7
 10
45.0
 20
5.41
 30
2.97
 11
45.0
 21
8.41
 31
3.74
  0
LINE
  5
8C
  8
0
 62
     7
 10
48.0
 20
5.41
 30
2.97
 11
51.0
 21
5.41
 31
2.97
  0
LINE
  5
8D
  8
0
 62
     7
 10
48.0
 20
5.41
 30
2.97
 11
48.0
 21
8.41
 31
3.74
  0
LINE
  5
8E
  8
0
 62
     7
 10
51.0
 20
5.41
 30
2.97
 11
54.0
 21
5.41
 31
2.97
  0
LINE
  5
8F
  8
0
 62
     7
 10
51.0
 20
5.41
 30
2.97
 11
51.0
 21
8.41
 31
3.74
  0
LINE
  5
90
  8
0
 62
     7
 10
54.0
 20
5.41
 30
2.97
 11
57.0
 21
5.41
 31
2.97
  0
LINE
  5
91
  8
0
 62
     7
 10
54.0
 20
5.41
 30
2.97
 11
54.0
 21
8.41
 31
3.74
  0
LINE
  5
92
  8
0
 62
     7
 10
57.0
 20
5.41
 30
2.97
 11
60.73
 21
5.41
 31
2.97
  0
LINE
  5
93
  8
0
 62
     7
 10
57.0
 20
5.41
 30
2.97
 11
57.0
 21
8.41
 31
3.74
  0
LINE
  5
94
  8
0
 62
     7
 10
60.73
 20
5.41
 30
2.97
 11
60.0
 21
8.41
 31
3.74
  0
LINE
  5
95
  8
0
 62
     7
 10
0.0
 20
8.41
 30
3.74
 11
3.0
 21
8.41
 31
3.74
  0
LINE
  5
96
  8
0
 62
     7
 10
0.0
 20
8.41
 30
3.74
 11
0.0
 21
11.5
 31
4.0
  0
LINE
  5
97
  8
0
 62
     7
 10
3.0
 20
8.41
 30
3.74
 11
6.0
 21
8.41
 31
3.74
  0
LINE
  5
98
  8
0
 62
     7
 10
3.0
 20
8.41
 30
3.74
 11
3.0
 21
11.5
 31
4.0
  0
LINE
  5
99
  8
0
 62
     7
 10
6.0
 20
8.41
 30
3.74
 11
9.0
 21
8.41
 31
3.74
  0
LINE
  5
9A
  8
0
 62
     7
 10
6.0
 20
8.41
 30
3.74
 11
6.0
 21
11.5
 31
4.0
  0
LINE
  5
9B
  8
0
 62
     7
 10
9.0
 20
8.41
 30
3.74
 11
12.0
 21
8.41
 31
3.74
  0
LINE
  5
9C
  8
0
 62
     7
 10
9.0
 20
8.41
 30
3.74
 11
9.0
 21
11.5
 31
4.0
  0
LINE
  5
9D
  8
0
 62
     7
 10
12.0
 20
8.41
 30
3.74
 11
15.0
 21
8.41
 31
3.74
  0
LINE
  5
9E
  8
0
 62
     7
 10
12.0
 20
8.41
 30
3.74
 11
12.0
 21
11.5
 31
4.0
  0
LINE
  5
9F
  8
0
 62
     7
 10
15.0
 20
8.41
 30
3.74
 11
18.0
 21
8.41
 31
3.74
  0
LINE
  5
A0
  8
0
 62
     7
 10
15.0
 20
8.41
 30
3.74
 11
15.0
 21
11.5
 31
4.0
  0
LINE
  5
A1
  8
0
 62
     7
 10
18.0
 20
8.41
 30
3.74
 11
21.0
 21
8.41
 31
3.74
  0
LINE
  5
A2
  8
0
 62
     7
 10
18.0
 20
8.41
 30
3.74
 11
18.0
 21
11.5
 31
4.0
  0
LINE
  5
A3
  8
0
 62
     7
 10
21.0
 20
8.41
 30
3.74
 11
24.0
 21
8.41
 31
3.74
  0
LINE
  5
A4
  8
0
 62
     7
 10
21.0
 20
8.41
 30
3.74
 11
21.0
 21
11.5
 31
4.0
  0
LINE
  5
A5
  8
0
 62
     7
 10
24.0
 20
8.41
 30
3.74
 11
27.0
 21
8.41
 31
3.74
  0
LINE
  5
A6
  8
0
 62
     7
 10
24.0
 20
8.41
 30
3.74
 11
24.0
 21
11.5
 31
4.0
  0
LINE
  5
A7
  8
0
 62
     7
 10
27.0
 20
8.41
 30
3.74
 11
30.0
 21
8.41
 31
3.74
  0
LINE
  5
A8
  8
0
 62
     7
 10
27.0
 20
8.41
 30
3.74
 11
27.0
 21
11.5
 31
4.0
  0
LINE
  5
A9
  8
0
 62
     7
 10
30.0
 20
8.41
 30
3.74
 11
33.0
 21
8.41
 31
3.74
  0
LINE
  5
AA
  8
0
 62
     7
 10
30.0
 20
8.41
 30
3.74
 11
30.0
 21
11.5
 31
4.0
  0
LINE
  5
AB
  8
0
 62
     7
 10
33.0
 20
8.41
 30
3.74
 11
36.0
 21
8.41
 31
3.74
  0
LINE
  5
AC
  8
0
 62
     7
 10
33.0
 20
8.41
 30
3.74
 11
33.0
 21
11.5
 31
4.0
  0
LINE
  5
AD
  8
0
 62
     7
 10
36.0
 20
8.41
 30
3.74
 11
39.0
 21
8.41
 31
3.74
  0
LINE
  5
AE
  8
0
 62
     7
 10
36.0
 20
8.41
 30
3.74
 11
36.0
 21
11.5
 31
4.0
  0
LINE
  5
AF
  8
0
 62
     7
 10
39.0
 20
8.41
 30
3.74
 11
42.0
 21
8.41
 31
3.74
  0
LINE
  5
B0
  8
0
 62
     7
 10
39.0
 20
8.41
 30
3.74
 11
39.0
 21
11.5
 31
4.0
  0
LINE
  5
B1
  8
0
 62
     7
 10
42.0
 20
8.41
 30
3.74
 11
45.0
 21
8.41
 31
3.74
  0
LINE
  5
B2
  8
0
 62
     7
 10
42.0
 20
8.41
 30
3.74
 11
42.0
 21
11.5
 31
4.0
  0
LINE
  5
B3
  8
0
 62
     7
 10
45.0
 20
8.41
 30
3.74
 11
48.0
 21
8.41
 31
3.74
  0
LINE
  5
B4
  8
0
 62
     7
 10
45.0
 20
8.41
 30
3.74
 11
45.0
 21
11.5
 31
4.0
  0
LINE
  5
B5
  8
0
 62
     7
 10
48.0
 20
8.41
 30
3.74
 11
51.0
 21
8.41
 31
3.74
  0
LINE
  5
B6
  8
0
 62
     7
 10
48.0
 20
8.41
 30
3.74
 11
48.0
 21
11.5
 31
4.0
  0
LINE
  5
B7
  8
0
 62
     7
 10
51.0
 20
8.41
 30
3.74
 11
54.0
 21
8.41
 31
3.74
  0
LINE
  5
B8
  8
0
 62
     7
 10
51.0
 20
8.41
 30
3.74
 11
51.0
 21
11.5
 31
4.0
  0
LINE
  5
B9
  8
0
 62
     7
 10
54.0
 20
8.41
 30
3.74
 11
57.0
 21
8.41
 31
3.74
  0
LINE
  5
BA
  8
0
 62
     7
 10
54.0
 20
8.41
 30
3.74
 11
54.0
 21
11.5
 31
4.0
  0
LINE
  5
BB
  8
0
 62
     7
 10
57.0
 20
8.41
 30
3.74
 11
60.0
 21
8.41
 31
3.74
  0
LINE
  5
BC
  8
0
 62
     7
 10
57.0
 20
8.41
 30
3.74
 11
57.0
 21
11.5
 31
4.0
  0
LINE
  5
BD
  8
0
 62
     7
 10
60.0
 20
8.41
 30
3.74
 11
62.45
 21
8.41
 31
3.74
  0
LINE
  5
BE
  8
0
 62
     7
 10
60.0
 20
8.41
 30
3.74
 11
60.0
 21
11.5
 31
4.0
  0
LINE
  5
BF
  8
0
 62
     7
 10
62.45
 20
8.41
 30
3.74
 11
63.0
 21
11.5
 31
4.0
  0
LINE
  5
C0
  8
0
 62
     7
 10
0.0
 20
11.5
 30
4.0
 11
3.0
 21
11.5
 31
4.0
  0
LINE
  5
C1
  8
0
 62
     7
 10
0.0
 20
11.5
 30
4.0
 11
0.0
 21
14.59
 31
3.74
  0
LINE
  5
C2
  8
0
 62
     7
 10
3.0
 20
11.5
 30
4.0
 11
6.0
 21
11.5
 31
4.0
  0
LINE
  5
C3
  8
0
 62
     7
 10
3.0
 20
11.5
 30
4.0
 11
3.0
 21
14.59
 31
3.74
  0
LINE
  5
C4
  8
0
 62
     7
 10
6.0
 20
11.5
 30
4.0
 11
9.0
 21
11.5
 31
4.0
  0
LINE
  5
C5
  8
0
 62
     7
 10
6.0
 20
11.5
 30
4.0
 11
6.0
 21
14.59
 31
3.74
  0
LINE
  5
C6
  8
0
 62
     7
 10
9.0
 20
11.5
 30
4.0
 11
12.0
 21
11.5
 31
4.0
  0
LINE
  5
C7
  8
0
 62
     7
 10
9.0
 20
11.5
 30
4.0
 11
9.0
 21
14.59
 31
3.74
  0
LINE
  5
C8
  8
0
 62
     7
 10
12.0
 20
11.5
 30
4.0
 11
15.0
 21
11.5
 31
4.0
  0
LINE
  5
C9
  8
0
 62
     7
 10
12.0
 20
11.5
 30
4.0
 11
12.0
 21
14.59
 31
3.74
  0
LINE
  5
CA
  8
0
 62
     7
 10
15.0
 20
11.5
 30
4.0
 11
18.0
 21
11.5
 31
4.0
  0
LINE
  5
CB
  8
0
 62
     7
 10
15.0
 20
11.5
 30
4.0
 11
15.0
 21
14.59
 31
3.74
  0
LINE
  5
CC
  8
0
 62
     7
 10
18.0
 20
11.5
 30
4.0
 11
21.0
 21
11.5
 31
4.0
  0
LINE
  5
CD
  8
0
 62
     7
 10
18.0
 20
11.5
 30
4.0
 11
18.0
 21
14.59
 31
3.74
  0
LINE
  5
CE
  8
0
 62
     7
 10
21.0
 20
11.5
 30
4.0
 11
24.0
 21
11.5
 31
4.0
  0
LINE
  5
CF
  8
0
 62
     7
 10
21.0
 20
11.5
 30
4.0
 11
21.0
 21
14.59
 31
3.74
  0
LINE
  5
D0
  8
0
 62
     7
 10
24.0
 20
11.5
 30
4.0
 11
27.0
 21
11.5
 31
4.0
  0
LINE
  5
D1
  8
0
 62
     7
 10
24.0
 20
11.5
 30
4.0
 11
24.0
 21
14.59
 31
3.74
  0
LINE
  5
D2
  8
0
 62
     7
 10
27.0
 20
11.5
 30
4.0
 11
30.0
 21
11.5
 31
4.0
  0
LINE
  5
D3
  8
0
 62
     7
 10
27.0
 20
11.5
 30
4.0
 11
27.0
 21
14.59
 31
3.74
  0
LINE
  5
D4
  8
0
 62
     7
 10
30.0
 20
11.5
 30
4.0
 11
33.0
 21
11.5
 31
4.0
  0
LINE
  5
D5
  8
0
 62
     7
 10
30.0
 20
11.5
 30
4.0
 11
30.0
 21
14.59
 31
3.74
  0
LINE
  5
D6
  8
0
 62
     7
 10
33.0
 20
11.5
 30
4.0
 11
36.0
 21
11.5
 31
4.0
  0
LINE
  5
D7
  8
0
 62
     7
 10
33.0
 20
11.5
 30
4.0
 11
33.0
 21
14.59
 31
3.74
  0
LINE
  5
D8
  8
0
 62
     7
 10
36.0
 20
11.5
 30
4.0
 11
39.0
 21
11.5
 31
4.0
  0
LINE
  5
D9
  8
0
 62
     7
 10
36.0
 20
11.5
 30
4.0
 11
36.0
 21
14.59
 31
3.74
  0
LINE
  5
DA
  8
0
 62
     7
 10
39.0
 20
11.5
 30
4.0
 11
42.0
 21
11.5
 31
4.0
  0
LINE
  5
DB
  8
0
 62
     7
 10
39.0
 20
11.5
 30
4.0
 11
39.0
 21
14.59
 31
3.74
  0
LINE
  5
DC
  8
0
 62
     7
 10
42.0
 20
11.5
 30
4.0
 11
45.0
 21
11.5
 31
4.0
  0
LINE
  5
DD
  8
0
 62
     7
 10
42.0
 20
11.5
 30
4.0
 11
42.0
 21
14.59
 31
3.74
  0
LINE
  5
DE
  8
0
 62
     7
 10
45.0
 20
11.5
 30
4.0
 11
48.0
 21
11.5
 31
4.0
  0
LINE
  5
DF
  8
0
 62
     7
 10
45.0
 20
11.5
 30
4.0
 11
45.0
 21
14.59
 31
3.74
  0
LINE
  5
E0
  8
0
 62
     7
 10
48.0
 20
11.5
 30
4.0
 11
51.0
 21
11.5
 31
4.0
  0
LINE
  5
E1
  8
0
 62
     7
 10
48.0
 20
11.5
 30
4.0
 11
48.0
 21
14.59
 31
3.74
  0
LINE
  5
E2
  8
0
 62
     7
 10
51.0
 20
11.5
 30
4.0
 11
54.0
 21
11.5
 31
4.0
  0
LINE
  5
E3
  8
0
 62
     7
 10
51.0
 20
11.5
 30
4.0
 11
51.0
 21
14.59
 31
3.74
  0
LINE
  5
E4
  8
0
 62
     7
 10
54.0
 20
11.5
 30
4.0
 11
57.0
 21
11.5
 31
4.0
  0
LINE
  5
E5
  8
0
 62
     7
 10
54.0
 20
11.5
 30
4.0
 11
54.0
 21
14.59
 31
3.74
  0
LINE
  5
E6
  8
0
 62
     7
 10
57.0
 20
11.5
 30
4.0
 11
60.0
 21
11.5
 31
4.0
  0
LINE
  5
E7
  8
0
 62
     7
 10
57.0
 20
11.5
 30
4.0
 11
57.0
 21
14.59
 31
3.74
  0
LINE
  5
E8
  8
0
 62
     7
 10
60.0
 20
11.5
 30
4.0
 11
63.0
 21
11.5
 31
4.0
  0
LINE
  5
E9
  8
0
 62
     7
 10
60.0
 20
11.5
 30
4.0
 11
60.0
 21
14.59
 31
3.74
  0
LINE
  5
EA
  8
0
 62
     7
 10
63.0
 20
11.5
 30
4.0
 11
62.45
 21
14.59
 31
3.74
  0
LINE
  5
EB
  8
0
 62
     7
 10
0.0
 20
14.59
 30
3.74
 11
3.0
 21
14.59
 31
3.74
  0
LINE
  5
EC
  8
0
 62
     7
 10
0.0
 20
14.59
 30
3.74
 11
0.0
 21
17.59
 31
2.97
  0
LINE
  5
ED
  8
0
 62
     7
 10
3.0
 20
14.59
 30
3.74
 11
6.0
 21
14.59
 31
3.74
  0
LINE
  5
EE
  8
0
 62
     7
 10
3.0
 20
14.59
 30
3.74
 11
3.0
 21
17.59
 31
2.97
  0
LINE
  5
EF
  8
0
 62
     7
 10
6.0
 20
14.59
 30
3.74
 11
9.0
 21
14.59
 31
3.74
  0
LINE
  5
F0
  8
0
 62
     7
 10
6.0
 20
14.59
 30
3.74
 11
6.0
 21
17.59
 31
2.97
  0
LINE
  5
F1
  8
0
 62
     7
 10
9.0
 20
14.59
 30
3.74
 11
12.0
 21
14.59
 31
3.74
  0
LINE
  5
F2
  8
0
 62
     7
 10
9.0
 20
14.59
 30
3.74
 11
9.0
 21
17.59
 31
2.97
  0
LINE
  5
F3
  8
0
 62
     7
 10
12.0
 20
14.59
 30
3.74
 11
15.0
 21
14.59
 31
3.74
  0
LINE
  5
F4
  8
0
 62
     7
 10
12.0
 20
14.59
 30
3.74
 11
12.0
 21
17.59
 31
2.97
  0
LINE
  5
F5
  8
0
 62
     7
 10
15.0
 20
14.59
 30
3.74
 11
18.0
 21
14.59
 31
3.74
  0
LINE
  5
F6
  8
0
 62
     7
 10
15.0
 20
14.59
 30
3.74
 11
15.0
 21
17.59
 31
2.97
  0
LINE
  5
F7
  8
0
 62
     7
 10
18.0
 20
14.59
 30
3.74
 11
21.0
 21
14.59
 31
3.74
  0
LINE
  5
F8
  8
0
 62
     7
 10
18.0
 20
14.59
 30
3.74
 11
18.0
 21
17.59
 31
2.97
  0
LINE
  5
F9
  8
0
 62
     7
 10
21.0
 20
14.59
 30
3.74
 11
24.0
 21
14.59
 31
3.74
  0
LINE
  5
FA
  8
0
 62
     7
 10
21.0
 20
14.59
 30
3.74
 11
21.0
 21
17.59
 31
2.97
  0
LINE
  5
FB
  8
0
 62
     7
 10
24.0
 20
14.59
 30
3.74
 11
27.0
 21
14.59
 31
3.74
  0
LINE
  5
FC
  8
0
 62
     7
 10
24.0
 20
14.59
 30
3.74
 11
24.0
 21
17.59
 31
2.97
  0
LINE
  5
FD
  8
0
 62
     7
 10
27.0
 20
14.59
 30
3.74
 11
30.0
 21
14.59
 31
3.74
  0
LINE
  5
FE
  8
0
 62
     7
 10
27.0
 20
14.59
 30
3.74
 11
27.0
 21
17.59
 31
2.97
  0
LINE
  5
FF
  8
0
 62
     7
 10
30.0
 20
14.59
 30
3.74
 11
33.0
 21
14.59
 31
3.74
  0
LINE
  5
100
  8
0
 62
     7
 10
30.0
 20
14.59
 30
3.74
 11
30.0
 21
17.59
 31
2.97
  0
LINE
  5
101
  8
0
 62
     7
 10
33.0
 20
14.59
 30
3.74
 11
36.0
 21
14.59
 31
3.74
  0
LINE
  5
102
  8
0
 62
     7
 10
33.0
 20
14.59
 30
3.74
 11
33.0
 21
17.59
 31
2.97
  0
LINE
  5
103
  8
0
 62
     7
 10
36.0
 20
14.59
 30
3.74
 11
39.0
 21
14.59
 31
3.74
  0
LINE
  5
104
  8
0
 62
     7
 10
36.0
 20
14.59
 30
3.74
 11
36.0
 21
17.59
 31
2.97
  0
LINE
  5
105
  8
0
 62
     7
 10
39.0
 20
14.59
 30
3.74
 11
42.0
 21
14.59
 31
3.74
  0
LINE
  5
106
  8
0
 62
     7
 10
39.0
 20
14.59
 30
3.74
 11
39.0
 21
17.59
 31
2.97
  0
LINE
  5
107
  8
0
 62
     7
 10
42.0
 20
14.59
 30
3.74
 11
45.0
 21
14.59
 31
3.74
  0
LINE
  5
108
  8
0
 62
     7
 10
42.0
 20
14.59
 30
3.74
 11
42.0
 21
17.59
 31
2.97
  0
LINE
  5
109
  8
0
 62
     7
 10
45.0
 20
14.59
 30
3.74
 11
48.0
 21
14.59
 31
3.74
  0
LINE
  5
10A
  8
0
 62
     7
 10
45.0
 20
14.59
 30
3.74
 11
45.0
 21
17.59
 31
2.97
  0
LINE
  5
10B
  8
0
 62
     7
 10
48.0
 20
14.59
 30
3.74
 11
51.0
 21
14.59
 31
3.74
  0
LINE
  5
10C
  8
0
 62
     7
 10
48.0
 20
14.59
 30
3.74
 11
48.0
 21
17.59
 31
2.97
  0
LINE
  5
10D
  8
0
 62
     7
 10
51.0
 20
14.59
 30
3.74
 11
54.0
 21
14.59
 31
3.74
  0
LINE
  5
10E
  8
0
 62
     7
 10
51.0
 20
14.59
 30
3.74
 11
51.0
 21
17.59
 31
2.97
  0
LINE
  5
10F
  8
0
 62
     7
 10
54.0
 20
14.59
 30
3.74
 11
57.0
 21
14.59
 31
3.74
  0
LINE
  5
110
  8
0
 62
     7
 10
54.0
 20
14.59
 30
3.74
 11
54.0
 21
17.59
 31
2.97
  0
LINE
  5
111
  8
0
 62
     7
 10
57.0
 20
14.59
 30
3.74
 11
60.0
 21
14.59
 31
3.74
  0
LINE
  5
112
  8
0
 62
     7
 10
57.0
 20
14.59
 30
3.74
 11
57.0
 21
17.59
 31
2.97
  0
LINE
  5
113
  8
0
 62
     7
 10
60.0
 20
14.59
 30
3.74
 11
62.45
 21
14.59
 31
3.74
  0
LINE
  5
114
  8
0
 62
     7
 10
60.0
 20
14.59
 30
3.74
 11
60.73
 21
17.59
 31
2.97
  0
LINE
  5
115
  8
0
 62
     7
 10
0.0
 20
17.59
 30
2.97
 11
3.0
 21
17.59
 31
2.97
  0
LINE
  5
116
  8
0
 62
     7
 10
0.0
 20
17.59
 30
2.97
 11
0.0
 21
20.42
 31
1.71
  0
LINE
  5
117
  8
0
 62
     7
 10
3.0
 20
17.59
 30
2.97
 11
6.0
 21
17.59
 31
2.97
  0
LINE
  5
118
  8
0
 62
     7
 10
3.0
 20
17.59
 30
2.97
 11
3.0
 21
20.42
 31
1.71
  0
LINE
  5
119
  8
0
 62
     7
 10
6.0
 20
17.59
 30
2.97
 11
9.0
 21
17.59
 31
2.97
  0
LINE
  5
11A
  8
0
 62
     7
 10
6.0
 20
17.59
 30
2.97
 11
6.0
 21
20.42
 31
1.71
  0
LINE
  5
11B
  8
0
 62
     7
 10
9.0
 20
17.59
 30
2.97
 11
12.0
 21
17.59
 31
2.97
  0
LINE
  5
11C
  8
0
 62
     7
 10
9.0
 20
17.59
 30
2.97
 11
9.0
 21
20.42
 31
1.71
  0
LINE
  5
11D
  8
0
 62
     7
 10
12.0
 20
17.59
 30
2.97
 11
15.0
 21
17.59
 31
2.97
  0
LINE
  5
11E
  8
0
 62
     7
 10
12.0
 20
17.59
 30
2.97
 11
12.0
 21
20.42
 31
1.71
  0
LINE
  5
11F
  8
0
 62
     7
 10
15.0
 20
17.59
 30
2.97
 11
18.0
 21
17.59
 31
2.97
  0
LINE
  5
120
  8
0
 62
     7
 10
15.0
 20
17.59
 30
2.97
 11
15.0
 21
20.42
 31
1.71
  0
LINE
  5
121
  8
0
 62
     7
 10
18.0
 20
17.59
 30
2.97
 11
21.0
 21
17.59
 31
2.97
  0
LINE
  5
122
  8
0
 62
     7
 10
18.0
 20
17.59
 30
2.97
 11
18.0
 21
20.42
 31
1.71
  0
LINE
  5
123
  8
0
 62
     7
 10
21.0
 20
17.59
 30
2.97
 11
24.0
 21
17.59
 31
2.97
  0
LINE
  5
124
  8
0
 62
     7
 10
21.0
 20
17.59
 30
2.97
 11
21.0
 21
20.42
 31
1.71
  0
LINE
  5
125
  8
0
 62
     7
 10
24.0
 20
17.59
 30
2.97
 11
27.0
 21
17.59
 31
2.97
  0
LINE
  5
126
  8
0
 62
     7
 10
24.0
 20
17.59
 30
2.97
 11
24.0
 21
20.42
 31
1.71
  0
LINE
  5
127
  8
0
 62
     7
 10
27.0
 20
17.59
 30
2.97
 11
30.0
 21
17.59
 31
2.97
  0
LINE
  5
128
  8
0
 62
     7
 10
27.0
 20
17.59
 30
2.97
 11
27.0
 21
20.42
 31
1.71
  0
LINE
  5
129
  8
0
 62
     7
 10
30.0
 20
17.59
 30
2.97
 11
33.0
 21
17.59
 31
2.97
  0
LINE
  5
12A
  8
0
 62
     7
 10
30.0
 20
17.59
 30
2.97
 11
30.0
 21
20.42
 31
1.71
  0
LINE
  5
12B
  8
0
 62
     7
 10
33.0
 20
17.59
 30
2.97
 11
36.0
 21
17.59
 31
2.97
  0
LINE
  5
12C
  8
0
 62
     7
 10
33.0
 20
17.59
 30
2.97
 11
33.0
 21
20.42
 31
1.71
  0
LINE
  5
12D
  8
0
 62
     7
 10
36.0
 20
17.59
 30
2.97
 11
39.0
 21
17.59
 31
2.97
  0
LINE
  5
12E
  8
0
 62
     7
 10
36.0
 20
17.59
 30
2.97
 11
36.0
 21
20.42
 31
1.71
  0
LINE
  5
12F
  8
0
 62
     7
 10
39.0
 20
17.59
 30
2.97
 11
42.0
 21
17.59
 31
2.97
  0
LINE
  5
130
  8
0
 62
     7
 10
39.0
 20
17.59
 30
2.97
 11
39.0
 21
20.42
 31
1.71
  0
LINE
  5
131
  8
0
 62
     7
 10
42.0
 20
17.59
 30
2.97
 11
45.0
 21
17.59
 31
2.97
  0
LINE
  5
132
  8
0
 62
     7
 10
42.0
 20
17.59
 30
2.97
 11
42.0
 21
20.42
 31
1.71
  0
LINE
  5
133
  8
0
 62
     7
 10
45.0
 20
17.59
 30
2.97
 11
48.0
 21
17.59
 31
2.97
  0
LINE
  5
134
  8
0
 62
     7
 10
45.0
 20
17.59
 30
2.97
 11
45.0
 21
20.42
 31
1.71
  0
LINE
  5
135
  8
0
 62
     7
 10
48.0
 20
17.59
 30
2.97
 11
51.0
 21
17.59
 31
2.97
  0
LINE
  5
136
  8
0
 62
     7
 10
48.0
 20
17.59
 30
2.97
 11
48.0
 21
20.42
 31
1.71
  0
LINE
  5
137
  8
0
 62
     7
 10
51.0
 20
17.59
 30
2.97
 11
54.0
 21
17.59
 31
2.97
  0
LINE
  5
138
  8
0
 62
     7
 10
51.0
 20
17.59
 30
2.97
 11
51.0
 21
20.42
 31
1.71
  0
LINE
  5
139
  8
0
 62
     7
 10
54.0
 20
17.59
 30
2.97
 11
57.0
 21
17.59
 31
2.97
  0
LINE
  5
13A
  8
0
 62
     7
 10
54.0
 20
17.59
 30
2.97
 11
54.0
 21
20.42
 31
1.71
  0
LINE
  5
13B
  8
0
 62
     7
 10
57.0
 20
17.59
 30
2.97
 11
60.73
 21
17.59
 31
2.97
  0
LINE
  5
13C
  8
0
 62
     7
 10
57.0
 20
17.59
 30
2.97
 11
57.47
 21
20.42
 31
1.71
  0
LINE
  5
13D
  8
0
 62
     7
 10
0.0
 20
20.42
 30
1.71
 11
3.0
 21
20.42
 31
1.71
  0
LINE
  5
13E
  8
0
 62
     7
 10
0.0
 20
20.42
 30
1.71
 11
0.0
 21
23.0
 31
0.0
  0
LINE
  5
13F
  8
0
 62
     7
 10
3.0
 20
20.42
 30
1.71
 11
6.0
 21
20.42
 31
1.71
  0
LINE
  5
140
  8
0
 62
     7
 10
3.0
 20
20.42
 30
1.71
 11
3.0
 21
23.0
 31
0.0
  0
LINE
  5
141
  8
0
 62
     7
 10
6.0
 20
20.42
 30
1.71
 11
9.0
 21
20.42
 31
1.71
  0
LINE
  5
142
  8
0
 62
     7
 10
6.0
 20
20.42
 30
1.71
 11
6.0
 21
23.0
 31
0.0
  0
LINE
  5
143
  8
0
 62
     7
 10
9.0
 20
20.42
 30
1.71
 11
12.0
 21
20.42
 31
1.71
  0
LINE
  5
144
  8
0
 62
     7
 10
9.0
 20
20.42
 30
1.71
 11
9.0
 21
23.0
 31
0.0
  0
LINE
  5
145
  8
0
 62
     7
 10
12.0
 20
20.42
 30
1.71
 11
15.0
 21
20.42
 31
1.71
  0
LINE
  5
146
  8
0
 62
     7
 10
12.0
 20
20.42
 30
1.71
 11
12.0
 21
23.0
 31
0.0
  0
LINE
  5
147
  8
0
 62
     7
 10
15.0
 20
20.42
 30
1.71
 11
18.0
 21
20.42
 31
1.71
  0
LINE
  5
148
  8
0
 62
     7
 10
15.0
 20
20.42
 30
1.71
 11
15.0
 21
23.0
 31
0.0
  0
LINE
  5
149
  8
0
 62
     7
 10
18.0
 20
20.42
 30
1.71
 11
21.0
 21
20.42
 31
1.71
  0
LINE
  5
14A
  8
0
 62
     7
 10
18.0
 20
20.42
 30
1.71
 11
18.0
 21
23.0
 31
0.0
  0
LINE
  5
14B
  8
0
 62
     7
 10
21.0
 20
20.42
 30
1.71
 11
24.0
 21
20.42
 31
1.71
  0
LINE
  5
14C
  8
0
 62
     7
 10
21.0
 20
20.42
 30
1.71
 11
21.0
 21
23.0
 31
0.0
  0
LINE
  5
14D
  8
0
 62
     7
 10
24.0
 20
20.42
 30
1.71
 11
27.0
 21
20.42
 31
1.71
  0
LINE
  5
14E
  8
0
 62
     7
 10
24.0
 20
20.42
 30
1.71
 11
24.0
 21
23.0
 31
0.0
  0
LINE
  5
14F
  8
0
 62
     7
 10
27.0
 20
20.42
 30
1.71
 11
30.0
 21
20.42
 31
1.71
  0
LINE
  5
150
  8
0
 62
     7
 10
27.0
 20
20.42
 30
1.71
 11
27.0
 21
23.0
 31
0.0
  0
LINE
  5
151
  8
0
 62
     7
 10
30.0
 20
20.42
 30
1.71
 11
33.0
 21
20.42
 31
1.71
  0
LINE
  5
152
  8
0
 62
     7
 10
30.0
 20
20.42
 30
1.71
 11
30.0
 21
23.0
 31
0.0
  0
LINE
  5
153
  8
0
 62
     7
 10
33.0
 20
20.42
 30
1.71
 11
36.0
 21
20.42
 31
1.71
  0
LINE
  5
154
  8
0
 62
     7
 10
33.0
 20
20.42
 30
1.71
 11
33.0
 21
23.0
 31
0.0
  0
LINE
  5
155
  8
0
 62
     7
 10
36.0
 20
20.42
 30
1.71
 11
39.0
 21
20.42
 31
1.71
  0
LINE
  5
156
  8
0
 62
     7
 10
36.0
 20
20.42
 30
1.71
 11
36.0
 21
23.0
 31
0.0
  0
LINE
  5
157
  8
0
 62
     7
 10
39.0
 20
20.42
 30
1.71
 11
42.0
 21
20.42
 31
1.71
  0
LINE
  5
158
  8
0
 62
     7
 10
39.0
 20
20.42
 30
1.71
 11
39.0
 21
23.0
 31
0.0
  0
LINE
  5
159
  8
0
 62
     7
 10
42.0
 20
20.42
 30
1.71
 11
45.0
 21
20.42
 31
1.71
  0
LINE
  5
15A
  8
0
 62
     7
 10
42.0
 20
20.42
 30
1.71
 11
42.0
 21
23.0
 31
0.0
  0
LINE
  5
15B
  8
0
 62
     7
 10
45.0
 20
20.42
 30
1.71
 11
48.0
 21
20.42
 31
1.71
  0
LINE
  5
15C
  8
0
 62
     7
 10
45.0
 20
20.42
 30
1.71
 11
45.0
 21
23.0
 31
0.0
  0
LINE
  5
15D
  8
0
 62
     7
 10
48.0
 20
20.42
 30
1.71
 11
51.0
 21
20.42
 31
1.71
  0
LINE
  5
15E
  8
0
 62
     7
 10
48.0
 20
20.42
 30
1.71
 11
48.0
 21
23.0
 31
0.0
  0
LINE
  5
15F
  8
0
 62
     7
 10
51.0
 20
20.42
 30
1.71
 11
54.0
 21
20.42
 31
1.71
  0
LINE
  5
160
  8
0
 62
     7
 10
51.0
 20
20.42
 30
1.71
 11
51.0
 21
22.77
 31
0.0
  0
LINE
  5
161
  8
0
 62
     7
 10
54.0
 20
20.42
 30
1.71
 11
57.47
 21
20.42
 31
1.71
  0
LINE
  5
162
  8
0
 62
     7
 10
54.0
 20
20.42
 30
1.71
 11
54.0
 21
22.04
 31
0.0
  0
LINE
  5
163
  8
0
 62
     7
 10
0.0
 20
23.0
 30
0.0
 11
3.0
 21
23.0
 31
0.0
  0
LINE
  5
164
  8
0
 62
     7
 10
3.0
 20
23.0
 30
0.0
 11
6.0
 21
23.0
 31
0.0
  0
LINE
  5
165
  8
0
 62
     7
 10
6.0
 20
23.0
 30
0.0
 11
9.0
 21
23.0
 31
0.0
  0
LINE
  5
166
  8
0
 62
     7
 10
9.0
 20
23.0
 30
0.0
 11
12.0
 21
23.0
 31
0.0
  0
LINE
  5
167
  8
0
 62
     7
 10
12.0
 20
23.0
 30
0.0
 11
15.0
 21
23.0
 31
0.0
  0
LINE
  5
168
  8
0
 62
     7
 10
15.0
 20
23.0
 30
0.0
 11
18.0
 21
23.0
 31
0.0
  0
LINE
  5
169
  8
0
 62
     7
 10
18.0
 20
23.0
 30
0.0
 11
21.0
 21
23.0
 31
0.0
  0
LINE
  5
16A
  8
0
 62
     7
 10
21.0
 20
23.0
 30
0.0
 11
24.0
 21
23.0
 31
0.0
  0
LINE
  5
16B
  8
0
 62
     7
 10
24.0
 20
23.0
 30
0.0
 11
27.0
 21
23.0
 31
0.0
  0
LINE
  5
16C
  8
0
 62
     7
 10
27.0
 20
23.0
 30
0.0
 11
30.0
 21
23.0
 31
0.0
  0
LINE
  5
16D
  8
0
 62
     7
 10
30.0
 20
23.0
 30
0.0
 11
33.0
 21
23.0
 31
0.0
  0
LINE
  5
16E
  8
0
 62
     7
 10
33.0
 20
23.0
 30
0.0
 11
36.0
 21
23.0
 31
0.0
  0
LINE
  5
16F
  8
0
 62
     7
 10
36.0
 20
23.0
 30
0.0
 11
39.0
 21
23.0
 31
0.0
  0
LINE
  5
170
  8
0
 62
     7
 10
39.0
 20
23.0
 30
0.0
 11
42.0
 21
23.0
 31
0.0
  0
LINE
  5
171
  8
0
 62
     7
 10
42.0
 20
23.0
 30
0.0
 11
45.0
 21
23.0
 31
0.0
  0
LINE
  5
172
  8
0
 62
     7
 10
45.0
 20
23.0
 30
0.0
 11
48.0
 21
23.0
 31
0.0
  0
LINE
  5
173
  8
0
 62
     7
 10
48.0
 20
23.0
 30
0.0
 11
51.0
 21
22.77
 31
0.0
  0
LINE
  5
174
  8
0
 62
     7
 10
51.0
 20
22.77
 30
0.0
 11
54.0
 21
22.04
 31
0.0
  0
LINE
  5
175
  8
0
 62
     7
 10
54.0
 20
22.04
 30
0.0
 11
57.47
 21
20.42
 31
1.71
  0
LINE
  5
176
  8
0
 62
     7
 10
57.47
 20
20.42
 30
1.71
 11
60.73
 21
17.59
 31
2.97
  0
LINE
  5
177
  8
0
 62
     7
 10
60.73
 20
17.59
 30
2.97
 11
62.45
 21
14.59
 31
3.74
  0
LINE
  5
178
  8
0
 62
     7
 10
60.73
 20
5.41
 30
2.97
 11
62.45
 21
8.41
 31
3.74
  0
LINE
  5
179
  8
0
 62
     7
 10
57.47
 20
2.58
 30
1.71
 11
60.73
 21
5.41
 31
2.97
  0
LINE
  5
17A
  8
0
 62
     7
 10
54.0
 20
0.96
 30
0.0
 11
57.47
 21
2.58
 31
1.71
  0
LINE
  5
17B
  8
0
 62
     7
 10
1.5
 20
2.25
 30
-0.59
 11
4.5
 21
2.25
 31
-0.59
  0
LINE
  5
17C
  8
0
 62
     7
 10
1.5
 20
2.25
 30
-0.59
 11
1.5
 21
4.7
 31
0.76
  0
LINE
  5
17D
  8
0
 62
     7
 10
4.5
 20
2.25
 30
-0.59
 11
7.5
 21
2.25
 31
-0.59
  0
LINE
  5
17E
  8
0
 62
     7
 10
4.5
 20
2.25
 30
-0.59
 11
4.5
 21
4.7
 31
0.76
  0
LINE
  5
17F
  8
0
 62
     7
 10
7.5
 20
2.25
 30
-0.59
 11
10.5
 21
2.25
 31
-0.59
  0
LINE
  5
180
  8
0
 62
     7
 10
7.5
 20
2.25
 30
-0.59
 11
7.5
 21
4.7
 31
0.76
  0
LINE
  5
181
  8
0
 62
     7
 10
10.5
 20
2.25
 30
-0.59
 11
13.5
 21
2.25
 31
-0.59
  0
LINE
  5
182
  8
0
 62
     7
 10
10.5
 20
2.25
 30
-0.59
 11
10.5
 21
4.7
 31
0.76
  0
LINE
  5
183
  8
0
 62
     7
 10
13.5
 20
2.25
 30
-0.59
 11
16.5
 21
2.25
 31
-0.59
  0
LINE
  5
184
  8
0
 62
     7
 10
13.5
 20
2.25
 30
-0.59
 11
13.5
 21
4.7
 31
0.76
  0
LINE
  5
185
  8
0
 62
     7
 10
16.5
 20
2.25
 30
-0.59
 11
19.5
 21
2.25
 31
-0.59
  0
LINE
  5
186
  8
0
 62
     7
 10
16.5
 20
2.25
 30
-0.59
 11
16.5
 21
4.7
 31
0.76
  0
LINE
  5
187
  8
0
 62
     7
 10
19.5
 20
2.25
 30
-0.59
 11
22.5
 21
2.25
 31
-0.59
  0
LINE
  5
188
  8
0
 62
     7
 10
19.5
 20
2.25
 30
-0.59
 11
19.5
 21
4.7
 31
0.76
  0
LINE
  5
189
  8
0
 62
     7
 10
22.5
 20
2.25
 30
-0.59
 11
25.5
 21
2.25
 31
-0.59
  0
LINE
  5
18A
  8
0
 62
     7
 10
22.5
 20
2.25
 30
-0.59
 11
22.5
 21
4.7
 31
0.76
  0
LINE
  5
18B
  8
0
 62
     7
 10
25.5
 20
2.25
 30
-0.59
 11
28.5
 21
2.25
 31
-0.59
  0
LINE
  5
18C
  8
0
 62
     7
 10
25.5
 20
2.25
 30
-0.59
 11
25.5
 21
4.7
 31
0.76
  0
LINE
  5
18D
  8
0
 62
     7
 10
28.5
 20
2.25
 30
-0.59
 11
31.5
 21
2.25
 31
-0.59
  0
LINE
  5
18E
  8
0
 62
     7
 10
28.5
 20
2.25
 30
-0.59
 11
28.5
 21
4.7
 31
0.76
  0
LINE
  5
18F
  8
0
 62
     7
 10
31.5
 20
2.25
 30
-0.59
 11
34.5
 21
2.25
 31
-0.59
  0
LINE
  5
190
  8
0
 62
     7
 10
31.5
 20
2.25
 30
-0.59
 11
31.5
 21
4.7
 31
0.76
  0
LINE
  5
191
  8
0
 62
     7
 10
34.5
 20
2.25
 30
-0.59
 11
37.5
 21
2.25
 31
-0.59
  0
LINE
  5
192
  8
0
 62
     7
 10
34.5
 20
2.25
 30
-0.59
 11
34.5
 21
4.7
 31
0.76
  0
LINE
  5
193
  8
0
 62
     7
 10
37.5
 20
2.25
 30
-0.59
 11
40.5
 21
2.25
 31
-0.59
  0
LINE
  5
194
  8
0
 62
     7
 10
37.5
 20
2.25
 30
-0.59
 11
37.5
 21
4.7
 31
0.76
  0
LINE
  5
195
  8
0
 62
     7
 10
40.5
 20
2.25
 30
-0.59
 11
43.5
 21
2.25
 31
-0.59
  0
LINE
  5
196
  8
0
 62
     7
 10
40.5
 20
2.25
 30
-0.59
 11
40.5
 21
4.7
 31
0.76
  0
LINE
  5
197
  8
0
 62
     7
 10
43.5
 20
2.25
 30
-0.59
 11
46.5
 21
2.25
 31
-0.59
  0
LINE
  5
198
  8
0
 62
     7
 10
43.5
 20
2.25
 30
-0.59
 11
43.5
 21
4.7
 31
0.76
  0
LINE
  5
199
  8
0
 62
     7
 10
46.5
 20
2.25
 30
-0.59
 11
49.5
 21
2.25
 31
-0.59
  0
LINE
  5
19A
  8
0
 62
     7
 10
46.5
 20
2.25
 30
-0.59
 11
46.5
 21
4.7
 31
0.76
  0
LINE
  5
19B
  8
0
 62
     7
 10
49.5
 20
2.25
 30
-0.59
 11
52.5
 21
2.25
 31
-0.59
  0
LINE
  5
19C
  8
0
 62
     7
 10
49.5
 20
2.25
 30
-0.59
 11
49.5
 21
4.7
 31
0.76
  0
LINE
  5
19D
  8
0
 62
     7
 10
52.5
 20
2.25
 30
-0.59
 11
55.5
 21
2.45
 31
-0.59
  0
LINE
  5
19E
  8
0
 62
     7
 10
52.5
 20
2.25
 30
-0.59
 11
52.5
 21
4.7
 31
0.76
  0
LINE
  5
19F
  8
0
 62
     7
 10
55.5
 20
2.45
 30
-0.59
 11
55.5
 21
4.7
 31
0.76
  0
LINE
  5
1A0
  8
0
 62
     7
 10
1.5
 20
4.7
 30
0.76
 11
4.5
 21
4.7
 31
0.76
  0
LINE
  5
1A1
  8
0
 62
     7
 10
1.5
 20
4.7
 30
0.76
 11
1.5
 21
7.34
 31
1.68
  0
LINE
  5
1A2
  8
0
 62
     7
 10
4.5
 20
4.7
 30
0.76
 11
7.5
 21
4.7
 31
0.76
  0
LINE
  5
1A3
  8
0
 62
     7
 10
4.5
 20
4.7
 30
0.76
 11
4.5
 21
7.34
 31
1.68
  0
LINE
  5
1A4
  8
0
 62
     7
 10
7.5
 20
4.7
 30
0.76
 11
10.5
 21
4.7
 31
0.76
  0
LINE
  5
1A5
  8
0
 62
     7
 10
7.5
 20
4.7
 30
0.76
 11
7.5
 21
7.34
 31
1.68
  0
LINE
  5
1A6
  8
0
 62
     7
 10
10.5
 20
4.7
 30
0.76
 11
13.5
 21
4.7
 31
0.76
  0
LINE
  5
1A7
  8
0
 62
     7
 10
10.5
 20
4.7
 30
0.76
 11
10.5
 21
7.34
 31
1.68
  0
LINE
  5
1A8
  8
0
 62
     7
 10
13.5
 20
4.7
 30
0.76
 11
16.5
 21
4.7
 31
0.76
  0
LINE
  5
1A9
  8
0
 62
     7
 10
13.5
 20
4.7
 30
0.76
 11
13.5
 21
7.34
 31
1.68
  0
LINE
  5
1AA
  8
0
 62
     7
 10
16.5
 20
4.7
 30
0.76
 11
19.5
 21
4.7
 31
0.76
  0
LINE
  5
1AB
  8
0
 62
     7
 10
16.5
 20
4.7
 30
0.76
 11
16.5
 21
7.34
 31
1.68
  0
LINE
  5
1AC
  8
0
 62
     7
 10
19.5
 20
4.7
 30
0.76
 11
22.5
 21
4.7
 31
0.76
  0
LINE
  5
1AD
  8
0
 62
     7
 10
19.5
 20
4.7
 30
0.76
 11
19.5
 21
7.34
 31
1.68
  0
LINE
  5
1AE
  8
0
 62
     7
 10
22.5
 20
4.7
 30
0.76
 11
25.5
 21
4.7
 31
0.76
  0
LINE
  5
1AF
  8
0
 62
     7
 10
22.5
 20
4.7
 30
0.76
 11
22.5
 21
7.34
 31
1.68
  0
LINE
  5
1B0
  8
0
 62
     7
 10
25.5
 20
4.7
 30
0.76
 11
28.5
 21
4.7
 31
0.76
  0
LINE
  5
1B1
  8
0
 62
     7
 10
25.5
 20
4.7
 30
0.76
 11
25.5
 21
7.34
 31
1.68
  0
LINE
  5
1B2
  8
0
 62
     7
 10
28.5
 20
4.7
 30
0.76
 11
31.5
 21
4.7
 31
0.76
  0
LINE
  5
1B3
  8
0
 62
     7
 10
28.5
 20
4.7
 30
0.76
 11
28.5
 21
7.34
 31
1.68
  0
LINE
  5
1B4
  8
0
 62
     7
 10
31.5
 20
4.7
 30
0.76
 11
34.5
 21
4.7
 31
0.76
  0
LINE
  5
1B5
  8
0
 62
     7
 10
31.5
 20
4.7
 30
0.76
 11
31.5
 21
7.34
 31
1.68
  0
LINE
  5
1B6
  8
0
 62
     7
 10
34.5
 20
4.7
 30
0.76
 11
37.5
 21
4.7
 31
0.76
  0
LINE
  5
1B7
  8
0
 62
     7
 10
34.5
 20
4.7
 30
0.76
 11
34.5
 21
7.34
 31
1.68
  0
LINE
  5
1B8
  8
0
 62
     7
 10
37.5
 20
4.7
 30
0.76
 11
40.5
 21
4.7
 31
0.76
  0
LINE
  5
1B9
  8
0
 62
     7
 10
37.5
 20
4.7
 30
0.76
 11
37.5
 21
7.34
 31
1.68
  0
LINE
  5
1BA
  8
0
 62
     7
 10
40.5
 20
4.7
 30
0.76
 11
43.5
 21
4.7
 31
0.76
  0
LINE
  5
1BB
  8
0
 62
     7
 10
40.5
 20
4.7
 30
0.76
 11
40.5
 21
7.34
 31
1.68
  0
LINE
  5
1BC
  8
0
 62
     7
 10
43.5
 20
4.7
 30
0.76
 11
46.5
 21
4.7
 31
0.76
  0
LINE
  5
1BD
  8
0
 62
     7
 10
43.5
 20
4.7
 30
0.76
 11
43.5
 21
7.34
 31
1.68
  0
LINE
  5
1BE
  8
0
 62
     7
 10
46.5
 20
4.7
 30
0.76
 11
49.5
 21
4.7
 31
0.76
  0
LINE
  5
1BF
  8
0
 62
     7
 10
46.5
 20
4.7
 30
0.76
 11
46.5
 21
7.34
 31
1.68
  0
LINE
  5
1C0
  8
0
 62
     7
 10
49.5
 20
4.7
 30
0.76
 11
52.5
 21
4.7
 31
0.76
  0
LINE
  5
1C1
  8
0
 62
     7
 10
49.5
 20
4.7
 30
0.76
 11
49.5
 21
7.34
 31
1.68
  0
LINE
  5
1C2
  8
0
 62
     7
 10
52.5
 20
4.7
 30
0.76
 11
55.5
 21
4.7
 31
0.76
  0
LINE
  5
1C3
  8
0
 62
     7
 10
52.5
 20
4.7
 30
0.76
 11
52.5
 21
7.34
 31
1.68
  0
LINE
  5
1C4
  8
0
 62
     7
 10
55.5
 20
4.7
 30
0.76
 11
58.65
 21
4.7
 31
0.76
  0
LINE
  5
1C5
  8
0
 62
     7
 10
55.5
 20
4.7
 30
0.76
 11
55.5
 21
7.34
 31
1.68
  0
LINE
  5
1C6
  8
0
 62
     7
 10
58.65
 20
4.7
 30
0.76
 11
58.5
 21
7.34
 31
1.68
  0
LINE
  5
1C7
  8
0
 62
     7
 10
1.5
 20
7.34
 30
1.68
 11
4.5
 21
7.34
 31
1.68
  0
LINE
  5
1C8
  8
0
 62
     7
 10
1.5
 20
7.34
 30
1.68
 11
1.5
 21
10.1
 31
2.14
  0
LINE
  5
1C9
  8
0
 62
     7
 10
4.5
 20
7.34
 30
1.68
 11
7.5
 21
7.34
 31
1.68
  0
LINE
  5
1CA
  8
0
 62
     7
 10
4.5
 20
7.34
 30
1.68
 11
4.5
 21
10.1
 31
2.14
  0
LINE
  5
1CB
  8
0
 62
     7
 10
7.5
 20
7.34
 30
1.68
 11
10.5
 21
7.34
 31
1.68
  0
LINE
  5
1CC
  8
0
 62
     7
 10
7.5
 20
7.34
 30
1.68
 11
7.5
 21
10.1
 31
2.14
  0
LINE
  5
1CD
  8
0
 62
     7
 10
10.5
 20
7.34
 30
1.68
 11
13.5
 21
7.34
 31
1.68
  0
LINE
  5
1CE
  8
0
 62
     7
 10
10.5
 20
7.34
 30
1.68
 11
10.5
 21
10.1
 31
2.14
  0
LINE
  5
1CF
  8
0
 62
     7
 10
13.5
 20
7.34
 30
1.68
 11
16.5
 21
7.34
 31
1.68
  0
LINE
  5
1D0
  8
0
 62
     7
 10
13.5
 20
7.34
 30
1.68
 11
13.5
 21
10.1
 31
2.14
  0
LINE
  5
1D1
  8
0
 62
     7
 10
16.5
 20
7.34
 30
1.68
 11
19.5
 21
7.34
 31
1.68
  0
LINE
  5
1D2
  8
0
 62
     7
 10
16.5
 20
7.34
 30
1.68
 11
16.5
 21
10.1
 31
2.14
  0
LINE
  5
1D3
  8
0
 62
     7
 10
19.5
 20
7.34
 30
1.68
 11
22.5
 21
7.34
 31
1.68
  0
LINE
  5
1D4
  8
0
 62
     7
 10
19.5
 20
7.34
 30
1.68
 11
19.5
 21
10.1
 31
2.14
  0
LINE
  5
1D5
  8
0
 62
     7
 10
22.5
 20
7.34
 30
1.68
 11
25.5
 21
7.34
 31
1.68
  0
LINE
  5
1D6
  8
0
 62
     7
 10
22.5
 20
7.34
 30
1.68
 11
22.5
 21
10.1
 31
2.14
  0
LINE
  5
1D7
  8
0
 62
     7
 10
25.5
 20
7.34
 30
1.68
 11
28.5
 21
7.34
 31
1.68
  0
LINE
  5
1D8
  8
0
 62
     7
 10
25.5
 20
7.34
 30
1.68
 11
25.5
 21
10.1
 31
2.14
  0
LINE
  5
1D9
  8
0
 62
     7
 10
28.5
 20
7.34
 30
1.68
 11
31.5
 21
7.34
 31
1.68
  0
LINE
  5
1DA
  8
0
 62
     7
 10
28.5
 20
7.34
 30
1.68
 11
28.5
 21
10.1
 31
2.14
  0
LINE
  5
1DB
  8
0
 62
     7
 10
31.5
 20
7.34
 30
1.68
 11
34.5
 21
7.34
 31
1.68
  0
LINE
  5
1DC
  8
0
 62
     7
 10
31.5
 20
7.34
 30
1.68
 11
31.5
 21
10.1
 31
2.14
  0
LINE
  5
1DD
  8
0
 62
     7
 10
34.5
 20
7.34
 30
1.68
 11
37.5
 21
7.34
 31
1.68
  0
LINE
  5
1DE
  8
0
 62
     7
 10
34.5
 20
7.34
 30
1.68
 11
34.5
 21
10.1
 31
2.14
  0
LINE
  5
1DF
  8
0
 62
     7
 10
37.5
 20
7.34
 30
1.68
 11
40.5
 21
7.34
 31
1.68
  0
LINE
  5
1E0
  8
0
 62
     7
 10
37.5
 20
7.34
 30
1.68
 11
37.5
 21
10.1
 31
2.14
  0
LINE
  5
1E1
  8
0
 62
     7
 10
40.5
 20
7.34
 30
1.68
 11
43.5
 21
7.34
 31
1.68
  0
LINE
  5
1E2
  8
0
 62
     7
 10
40.5
 20
7.34
 30
1.68
 11
40.5
 21
10.1
 31
2.14
  0
LINE
  5
1E3
  8
0
 62
     7
 10
43.5
 20
7.34
 30
1.68
 11
46.5
 21
7.34
 31
1.68
  0
LINE
  5
1E4
  8
0
 62
     7
 10
43.5
 20
7.34
 30
1.68
 11
43.5
 21
10.1
 31
2.14
  0
LINE
  5
1E5
  8
0
 62
     7
 10
46.5
 20
7.34
 30
1.68
 11
49.5
 21
7.34
 31
1.68
  0
LINE
  5
1E6
  8
0
 62
     7
 10
46.5
 20
7.34
 30
1.68
 11
46.5
 21
10.1
 31
2.14
  0
LINE
  5
1E7
  8
0
 62
     7
 10
49.5
 20
7.34
 30
1.68
 11
52.5
 21
7.34
 31
1.68
  0
LINE
  5
1E8
  8
0
 62
     7
 10
49.5
 20
7.34
 30
1.68
 11
49.5
 21
10.1
 31
2.14
  0
LINE
  5
1E9
  8
0
 62
     7
 10
52.5
 20
7.34
 30
1.68
 11
55.5
 21
7.34
 31
1.68
  0
LINE
  5
1EA
  8
0
 62
     7
 10
52.5
 20
7.34
 30
1.68
 11
52.5
 21
10.1
 31
2.14
  0
LINE
  5
1EB
  8
0
 62
     7
 10
55.5
 20
7.34
 30
1.68
 11
58.5
 21
7.34
 31
1.68
  0
LINE
  5
1EC
  8
0
 62
     7
 10
55.5
 20
7.34
 30
1.68
 11
55.5
 21
10.1
 31
2.14
  0
LINE
  5
1ED
  8
0
 62
     7
 10
58.5
 20
7.34
 30
1.68
 11
60.85
 21
7.34
 31
1.68
  0
LINE
  5
1EE
  8
0
 62
     7
 10
58.5
 20
7.34
 30
1.68
 11
58.5
 21
10.1
 31
2.14
  0
LINE
  5
1EF
  8
0
 62
     7
 10
60.85
 20
7.34
 30
1.68
 11
61.5
 21
10.1
 31
2.14
  0
LINE
  5
1F0
  8
0
 62
     7
 10
1.5
 20
10.1
 30
2.14
 11
4.5
 21
10.1
 31
2.14
  0
LINE
  5
1F1
  8
0
 62
     7
 10
1.5
 20
10.1
 30
2.14
 11
1.5
 21
12.9
 31
2.14
  0
LINE
  5
1F2
  8
0
 62
     7
 10
4.5
 20
10.1
 30
2.14
 11
7.5
 21
10.1
 31
2.14
  0
LINE
  5
1F3
  8
0
 62
     7
 10
4.5
 20
10.1
 30
2.14
 11
4.5
 21
12.9
 31
2.14
  0
LINE
  5
1F4
  8
0
 62
     7
 10
7.5
 20
10.1
 30
2.14
 11
10.5
 21
10.1
 31
2.14
  0
LINE
  5
1F5
  8
0
 62
     7
 10
7.5
 20
10.1
 30
2.14
 11
7.5
 21
12.9
 31
2.14
  0
LINE
  5
1F6
  8
0
 62
     7
 10
10.5
 20
10.1
 30
2.14
 11
13.5
 21
10.1
 31
2.14
  0
LINE
  5
1F7
  8
0
 62
     7
 10
10.5
 20
10.1
 30
2.14
 11
10.5
 21
12.9
 31
2.14
  0
LINE
  5
1F8
  8
0
 62
     7
 10
13.5
 20
10.1
 30
2.14
 11
16.5
 21
10.1
 31
2.14
  0
LINE
  5
1F9
  8
0
 62
     7
 10
13.5
 20
10.1
 30
2.14
 11
13.5
 21
12.9
 31
2.14
  0
LINE
  5
1FA
  8
0
 62
     7
 10
16.5
 20
10.1
 30
2.14
 11
19.5
 21
10.1
 31
2.14
  0
LINE
  5
1FB
  8
0
 62
     7
 10
16.5
 20
10.1
 30
2.14
 11
16.5
 21
12.9
 31
2.14
  0
LINE
  5
1FC
  8
0
 62
     7
 10
19.5
 20
10.1
 30
2.14
 11
22.5
 21
10.1
 31
2.14
  0
LINE
  5
1FD
  8
0
 62
     7
 10
19.5
 20
10.1
 30
2.14
 11
19.5
 21
12.9
 31
2.14
  0
LINE
  5
1FE
  8
0
 62
     7
 10
22.5
 20
10.1
 30
2.14
 11
25.5
 21
10.1
 31
2.14
  0
LINE
  5
1FF
  8
0
 62
     7
 10
22.5
 20
10.1
 30
2.14
 11
22.5
 21
12.9
 31
2.14
  0
LINE
  5
200
  8
0
 62
     7
 10
25.5
 20
10.1
 30
2.14
 11
28.5
 21
10.1
 31
2.14
  0
LINE
  5
201
  8
0
 62
     7
 10
25.5
 20
10.1
 30
2.14
 11
25.5
 21
12.9
 31
2.14
  0
LINE
  5
202
  8
0
 62
     7
 10
28.5
 20
10.1
 30
2.14
 11
31.5
 21
10.1
 31
2.14
  0
LINE
  5
203
  8
0
 62
     7
 10
28.5
 20
10.1
 30
2.14
 11
28.5
 21
12.9
 31
2.14
  0
LINE
  5
204
  8
0
 62
     7
 10
31.5
 20
10.1
 30
2.14
 11
34.5
 21
10.1
 31
2.14
  0
LINE
  5
205
  8
0
 62
     7
 10
31.5
 20
10.1
 30
2.14
 11
31.5
 21
12.9
 31
2.14
  0
LINE
  5
206
  8
0
 62
     7
 10
34.5
 20
10.1
 30
2.14
 11
37.5
 21
10.1
 31
2.14
  0
LINE
  5
207
  8
0
 62
     7
 10
34.5
 20
10.1
 30
2.14
 11
34.5
 21
12.9
 31
2.14
  0
LINE
  5
208
  8
0
 62
     7
 10
37.5
 20
10.1
 30
2.14
 11
40.5
 21
10.1
 31
2.14
  0
LINE
  5
209
  8
0
 62
     7
 10
37.5
 20
10.1
 30
2.14
 11
37.5
 21
12.9
 31
2.14
  0
LINE
  5
20A
  8
0
 62
     7
 10
40.5
 20
10.1
 30
2.14
 11
43.5
 21
10.1
 31
2.14
  0
LINE
  5
20B
  8
0
 62
     7
 10
40.5
 20
10.1
 30
2.14
 11
40.5
 21
12.9
 31
2.14
  0
LINE
  5
20C
  8
0
 62
     7
 10
43.5
 20
10.1
 30
2.14
 11
46.5
 21
10.1
 31
2.14
  0
LINE
  5
20D
  8
0
 62
     7
 10
43.5
 20
10.1
 30
2.14
 11
43.5
 21
12.9
 31
2.14
  0
LINE
  5
20E
  8
0
 62
     7
 10
46.5
 20
10.1
 30
2.14
 11
49.5
 21
10.1
 31
2.14
  0
LINE
  5
20F
  8
0
 62
     7
 10
46.5
 20
10.1
 30
2.14
 11
46.5
 21
12.9
 31
2.14
  0
LINE
  5
210
  8
0
 62
     7
 10
49.5
 20
10.1
 30
2.14
 11
52.5
 21
10.1
 31
2.14
  0
LINE
  5
211
  8
0
 62
     7
 10
49.5
 20
10.1
 30
2.14
 11
49.5
 21
12.9
 31
2.14
  0
LINE
  5
212
  8
0
 62
     7
 10
52.5
 20
10.1
 30
2.14
 11
55.5
 21
10.1
 31
2.14
  0
LINE
  5
213
  8
0
 62
     7
 10
52.5
 20
10.1
 30
2.14
 11
52.5
 21
12.9
 31
2.14
  0
LINE
  5
214
  8
0
 62
     7
 10
55.5
 20
10.1
 30
2.14
 11
58.5
 21
10.1
 31
2.14
  0
LINE
  5
215
  8
0
 62
     7
 10
55.5
 20
10.1
 30
2.14
 11
55.5
 21
12.9
 31
2.14
  0
LINE
  5
216
  8
0
 62
     7
 10
58.5
 20
10.1
 30
2.14
 11
61.5
 21
10.1
 31
2.14
  0
LINE
  5
217
  8
0
 62
     7
 10
58.5
 20
10.1
 30
2.14
 11
58.5
 21
12.9
 31
2.14
  0
LINE
  5
218
  8
0
 62
     7
 10
61.5
 20
10.1
 30
2.14
 11
61.5
 21
12.9
 31
2.14
  0
LINE
  5
219
  8
0
 62
     7
 10
1.5
 20
12.9
 30
2.14
 11
4.5
 21
12.9
 31
2.14
  0
LINE
  5
21A
  8
0
 62
     7
 10
1.5
 20
12.9
 30
2.14
 11
1.5
 21
15.66
 31
1.68
  0
LINE
  5
21B
  8
0
 62
     7
 10
4.5
 20
12.9
 30
2.14
 11
7.5
 21
12.9
 31
2.14
  0
LINE
  5
21C
  8
0
 62
     7
 10
4.5
 20
12.9
 30
2.14
 11
4.5
 21
15.66
 31
1.68
  0
LINE
  5
21D
  8
0
 62
     7
 10
7.5
 20
12.9
 30
2.14
 11
10.5
 21
12.9
 31
2.14
  0
LINE
  5
21E
  8
0
 62
     7
 10
7.5
 20
12.9
 30
2.14
 11
7.5
 21
15.66
 31
1.68
  0
LINE
  5
21F
  8
0
 62
     7
 10
10.5
 20
12.9
 30
2.14
 11
13.5
 21
12.9
 31
2.14
  0
LINE
  5
220
  8
0
 62
     7
 10
10.5
 20
12.9
 30
2.14
 11
10.5
 21
15.66
 31
1.68
  0
LINE
  5
221
  8
0
 62
     7
 10
13.5
 20
12.9
 30
2.14
 11
16.5
 21
12.9
 31
2.14
  0
LINE
  5
222
  8
0
 62
     7
 10
13.5
 20
12.9
 30
2.14
 11
13.5
 21
15.66
 31
1.68
  0
LINE
  5
223
  8
0
 62
     7
 10
16.5
 20
12.9
 30
2.14
 11
19.5
 21
12.9
 31
2.14
  0
LINE
  5
224
  8
0
 62
     7
 10
16.5
 20
12.9
 30
2.14
 11
16.5
 21
15.66
 31
1.68
  0
LINE
  5
225
  8
0
 62
     7
 10
19.5
 20
12.9
 30
2.14
 11
22.5
 21
12.9
 31
2.14
  0
LINE
  5
226
  8
0
 62
     7
 10
19.5
 20
12.9
 30
2.14
 11
19.5
 21
15.66
 31
1.68
  0
LINE
  5
227
  8
0
 62
     7
 10
22.5
 20
12.9
 30
2.14
 11
25.5
 21
12.9
 31
2.14
  0
LINE
  5
228
  8
0
 62
     7
 10
22.5
 20
12.9
 30
2.14
 11
22.5
 21
15.66
 31
1.68
  0
LINE
  5
229
  8
0
 62
     7
 10
25.5
 20
12.9
 30
2.14
 11
28.5
 21
12.9
 31
2.14
  0
LINE
  5
22A
  8
0
 62
     7
 10
25.5
 20
12.9
 30
2.14
 11
25.5
 21
15.66
 31
1.68
  0
LINE
  5
22B
  8
0
 62
     7
 10
28.5
 20
12.9
 30
2.14
 11
31.5
 21
12.9
 31
2.14
  0
LINE
  5
22C
  8
0
 62
     7
 10
28.5
 20
12.9
 30
2.14
 11
28.5
 21
15.66
 31
1.68
  0
LINE
  5
22D
  8
0
 62
     7
 10
31.5
 20
12.9
 30
2.14
 11
34.5
 21
12.9
 31
2.14
  0
LINE
  5
22E
  8
0
 62
     7
 10
31.5
 20
12.9
 30
2.14
 11
31.5
 21
15.66
 31
1.68
  0
LINE
  5
22F
  8
0
 62
     7
 10
34.5
 20
12.9
 30
2.14
 11
37.5
 21
12.9
 31
2.14
  0
LINE
  5
230
  8
0
 62
     7
 10
34.5
 20
12.9
 30
2.14
 11
34.5
 21
15.66
 31
1.68
  0
LINE
  5
231
  8
0
 62
     7
 10
37.5
 20
12.9
 30
2.14
 11
40.5
 21
12.9
 31
2.14
  0
LINE
  5
232
  8
0
 62
     7
 10
37.5
 20
12.9
 30
2.14
 11
37.5
 21
15.66
 31
1.68
  0
LINE
  5
233
  8
0
 62
     7
 10
40.5
 20
12.9
 30
2.14
 11
43.5
 21
12.9
 31
2.14
  0
LINE
  5
234
  8
0
 62
     7
 10
40.5
 20
12.9
 30
2.14
 11
40.5
 21
15.66
 31
1.68
  0
LINE
  5
235
  8
0
 62
     7
 10
43.5
 20
12.9
 30
2.14
 11
46.5
 21
12.9
 31
2.14
  0
LINE
  5
236
  8
0
 62
     7
 10
43.5
 20
12.9
 30
2.14
 11
43.5
 21
15.66
 31
1.68
  0
LINE
  5
237
  8
0
 62
     7
 10
46.5
 20
12.9
 30
2.14
 11
49.5
 21
12.9
 31
2.14
  0
LINE
  5
238
  8
0
 62
     7
 10
46.5
 20
12.9
 30
2.14
 11
46.5
 21
15.66
 31
1.68
  0
LINE
  5
239
  8
0
 62
     7
 10
49.5
 20
12.9
 30
2.14
 11
52.5
 21
12.9
 31
2.14
  0
LINE
  5
23A
  8
0
 62
     7
 10
49.5
 20
12.9
 30
2.14
 11
49.5
 21
15.66
 31
1.68
  0
LINE
  5
23B
  8
0
 62
     7
 10
52.5
 20
12.9
 30
2.14
 11
55.5
 21
12.9
 31
2.14
  0
LINE
  5
23C
  8
0
 62
     7
 10
52.5
 20
12.9
 30
2.14
 11
52.5
 21
15.66
 31
1.68
  0
LINE
  5
23D
  8
0
 62
     7
 10
55.5
 20
12.9
 30
2.14
 11
58.5
 21
12.9
 31
2.14
  0
LINE
  5
23E
  8
0
 62
     7
 10
55.5
 20
12.9
 30
2.14
 11
55.5
 21
15.66
 31
1.68
  0
LINE
  5
23F
  8
0
 62
     7
 10
58.5
 20
12.9
 30
2.14
 11
61.5
 21
12.9
 31
2.14
  0
LINE
  5
240
  8
0
 62
     7
 10
58.5
 20
12.9
 30
2.14
 11
58.5
 21
15.66
 31
1.68
  0
LINE
  5
241
  8
0
 62
     7
 10
61.5
 20
12.9
 30
2.14
 11
60.85
 21
15.66
 31
1.68
  0
LINE
  5
242
  8
0
 62
     7
 10
1.5
 20
15.66
 30
1.68
 11
4.5
 21
15.66
 31
1.68
  0
LINE
  5
243
  8
0
 62
     7
 10
1.5
 20
15.66
 30
1.68
 11
1.5
 21
18.3
 31
0.76
  0
LINE
  5
244
  8
0
 62
     7
 10
4.5
 20
15.66
 30
1.68
 11
7.5
 21
15.66
 31
1.68
  0
LINE
  5
245
  8
0
 62
     7
 10
4.5
 20
15.66
 30
1.68
 11
4.5
 21
18.3
 31
0.76
  0
LINE
  5
246
  8
0
 62
     7
 10
7.5
 20
15.66
 30
1.68
 11
10.5
 21
15.66
 31
1.68
  0
LINE
  5
247
  8
0
 62
     7
 10
7.5
 20
15.66
 30
1.68
 11
7.5
 21
18.3
 31
0.76
  0
LINE
  5
248
  8
0
 62
     7
 10
10.5
 20
15.66
 30
1.68
 11
13.5
 21
15.66
 31
1.68
  0
LINE
  5
249
  8
0
 62
     7
 10
10.5
 20
15.66
 30
1.68
 11
10.5
 21
18.3
 31
0.76
  0
LINE
  5
24A
  8
0
 62
     7
 10
13.5
 20
15.66
 30
1.68
 11
16.5
 21
15.66
 31
1.68
  0
LINE
  5
24B
  8
0
 62
     7
 10
13.5
 20
15.66
 30
1.68
 11
13.5
 21
18.3
 31
0.76
  0
LINE
  5
24C
  8
0
 62
     7
 10
16.5
 20
15.66
 30
1.68
 11
19.5
 21
15.66
 31
1.68
  0
LINE
  5
24D
  8
0
 62
     7
 10
16.5
 20
15.66
 30
1.68
 11
16.5
 21
18.3
 31
0.76
  0
LINE
  5
24E
  8
0
 62
     7
 10
19.5
 20
15.66
 30
1.68
 11
22.5
 21
15.66
 31
1.68
  0
LINE
  5
24F
  8
0
 62
     7
 10
19.5
 20
15.66
 30
1.68
 11
19.5
 21
18.3
 31
0.76
  0
LINE
  5
250
  8
0
 62
     7
 10
22.5
 20
15.66
 30
1.68
 11
25.5
 21
15.66
 31
1.68
  0
LINE
  5
251
  8
0
 62
     7
 10
22.5
 20
15.66
 30
1.68
 11
22.5
 21
18.3
 31
0.76
  0
LINE
  5
252
  8
0
 62
     7
 10
25.5
 20
15.66
 30
1.68
 11
28.5
 21
15.66
 31
1.68
  0
LINE
  5
253
  8
0
 62
     7
 10
25.5
 20
15.66
 30
1.68
 11
25.5
 21
18.3
 31
0.76
  0
LINE
  5
254
  8
0
 62
     7
 10
28.5
 20
15.66
 30
1.68
 11
31.5
 21
15.66
 31
1.68
  0
LINE
  5
255
  8
0
 62
     7
 10
28.5
 20
15.66
 30
1.68
 11
28.5
 21
18.3
 31
0.76
  0
LINE
  5
256
  8
0
 62
     7
 10
31.5
 20
15.66
 30
1.68
 11
34.5
 21
15.66
 31
1.68
  0
LINE
  5
257
  8
0
 62
     7
 10
31.5
 20
15.66
 30
1.68
 11
31.5
 21
18.3
 31
0.76
  0
LINE
  5
258
  8
0
 62
     7
 10
34.5
 20
15.66
 30
1.68
 11
37.5
 21
15.66
 31
1.68
  0
LINE
  5
259
  8
0
 62
     7
 10
34.5
 20
15.66
 30
1.68
 11
34.5
 21
18.3
 31
0.76
  0
LINE
  5
25A
  8
0
 62
     7
 10
37.5
 20
15.66
 30
1.68
 11
40.5
 21
15.66
 31
1.68
  0
LINE
  5
25B
  8
0
 62
     7
 10
37.5
 20
15.66
 30
1.68
 11
37.5
 21
18.3
 31
0.76
  0
LINE
  5
25C
  8
0
 62
     7
 10
40.5
 20
15.66
 30
1.68
 11
43.5
 21
15.66
 31
1.68
  0
LINE
  5
25D
  8
0
 62
     7
 10
40.5
 20
15.66
 30
1.68
 11
40.5
 21
18.3
 31
0.76
  0
LINE
  5
25E
  8
0
 62
     7
 10
43.5
 20
15.66
 30
1.68
 11
46.5
 21
15.66
 31
1.68
  0
LINE
  5
25F
  8
0
 62
     7
 10
43.5
 20
15.66
 30
1.68
 11
43.5
 21
18.3
 31
0.76
  0
LINE
  5
260
  8
0
 62
     7
 10
46.5
 20
15.66
 30
1.68
 11
49.5
 21
15.66
 31
1.68
  0
LINE
  5
261
  8
0
 62
     7
 10
46.5
 20
15.66
 30
1.68
 11
46.5
 21
18.3
 31
0.76
  0
LINE
  5
262
  8
0
 62
     7
 10
49.5
 20
15.66
 30
1.68
 11
52.5
 21
15.66
 31
1.68
  0
LINE
  5
263
  8
0
 62
     7
 10
49.5
 20
15.66
 30
1.68
 11
49.5
 21
18.3
 31
0.76
  0
LINE
  5
264
  8
0
 62
     7
 10
52.5
 20
15.66
 30
1.68
 11
55.5
 21
15.66
 31
1.68
  0
LINE
  5
265
  8
0
 62
     7
 10
52.5
 20
15.66
 30
1.68
 11
52.5
 21
18.3
 31
0.76
  0
LINE
  5
266
  8
0
 62
     7
 10
55.5
 20
15.66
 30
1.68
 11
58.5
 21
15.66
 31
1.68
  0
LINE
  5
267
  8
0
 62
     7
 10
55.5
 20
15.66
 30
1.68
 11
55.5
 21
18.3
 31
0.76
  0
LINE
  5
268
  8
0
 62
     7
 10
58.5
 20
15.66
 30
1.68
 11
60.85
 21
15.66
 31
1.68
  0
LINE
  5
269
  8
0
 62
     7
 10
58.5
 20
15.66
 30
1.68
 11
58.65
 21
18.3
 31
0.76
  0
LINE
  5
26A
  8
0
 62
     7
 10
1.5
 20
18.3
 30
0.76
 11
4.5
 21
18.3
 31
0.76
  0
LINE
  5
26B
  8
0
 62
     7
 10
1.5
 20
18.3
 30
0.76
 11
1.5
 21
20.75
 31
-0.59
  0
LINE
  5
26C
  8
0
 62
     7
 10
4.5
 20
18.3
 30
0.76
 11
7.5
 21
18.3
 31
0.76
  0
LINE
  5
26D
  8
0
 62
     7
 10
4.5
 20
18.3
 30
0.76
 11
4.5
 21
20.75
 31
-0.59
  0
LINE
  5
26E
  8
0
 62
     7
 10
7.5
 20
18.3
 30
0.76
 11
10.5
 21
18.3
 31
0.76
  0
LINE
  5
26F
  8
0
 62
     7
 10
7.5
 20
18.3
 30
0.76
 11
7.5
 21
20.75
 31
-0.59
  0
LINE
  5
270
  8
0
 62
     7
 10
10.5
 20
18.3
 30
0.76
 11
13.5
 21
18.3
 31
0.76
  0
LINE
  5
271
  8
0
 62
     7
 10
10.5
 20
18.3
 30
0.76
 11
10.5
 21
20.75
 31
-0.59
  0
LINE
  5
272
  8
0
 62
     7
 10
13.5
 20
18.3
 30
0.76
 11
16.5
 21
18.3
 31
0.76
  0
LINE
  5
273
  8
0
 62
     7
 10
13.5
 20
18.3
 30
0.76
 11
13.5
 21
20.75
 31
-0.59
  0
LINE
  5
274
  8
0
 62
     7
 10
16.5
 20
18.3
 30
0.76
 11
19.5
 21
18.3
 31
0.76
  0
LINE
  5
275
  8
0
 62
     7
 10
16.5
 20
18.3
 30
0.76
 11
16.5
 21
20.75
 31
-0.59
  0
LINE
  5
276
  8
0
 62
     7
 10
19.5
 20
18.3
 30
0.76
 11
22.5
 21
18.3
 31
0.76
  0
LINE
  5
277
  8
0
 62
     7
 10
19.5
 20
18.3
 30
0.76
 11
19.5
 21
20.75
 31
-0.59
  0
LINE
  5
278
  8
0
 62
     7
 10
22.5
 20
18.3
 30
0.76
 11
25.5
 21
18.3
 31
0.76
  0
LINE
  5
279
  8
0
 62
     7
 10
22.5
 20
18.3
 30
0.76
 11
22.5
 21
20.75
 31
-0.59
  0
LINE
  5
27A
  8
0
 62
     7
 10
25.5
 20
18.3
 30
0.76
 11
28.5
 21
18.3
 31
0.76
  0
LINE
  5
27B
  8
0
 62
     7
 10
25.5
 20
18.3
 30
0.76
 11
25.5
 21
20.75
 31
-0.59
  0
LINE
  5
27C
  8
0
 62
     7
 10
28.5
 20
18.3
 30
0.76
 11
31.5
 21
18.3
 31
0.76
  0
LINE
  5
27D
  8
0
 62
     7
 10
28.5
 20
18.3
 30
0.76
 11
28.5
 21
20.75
 31
-0.59
  0
LINE
  5
27E
  8
0
 62
     7
 10
31.5
 20
18.3
 30
0.76
 11
34.5
 21
18.3
 31
0.76
  0
LINE
  5
27F
  8
0
 62
     7
 10
31.5
 20
18.3
 30
0.76
 11
31.5
 21
20.75
 31
-0.59
  0
LINE
  5
280
  8
0
 62
     7
 10
34.5
 20
18.3
 30
0.76
 11
37.5
 21
18.3
 31
0.76
  0
LINE
  5
281
  8
0
 62
     7
 10
34.5
 20
18.3
 30
0.76
 11
34.5
 21
20.75
 31
-0.59
  0
LINE
  5
282
  8
0
 62
     7
 10
37.5
 20
18.3
 30
0.76
 11
40.5
 21
18.3
 31
0.76
  0
LINE
  5
283
  8
0
 62
     7
 10
37.5
 20
18.3
 30
0.76
 11
37.5
 21
20.75
 31
-0.59
  0
LINE
  5
284
  8
0
 62
     7
 10
40.5
 20
18.3
 30
0.76
 11
43.5
 21
18.3
 31
0.76
  0
LINE
  5
285
  8
0
 62
     7
 10
40.5
 20
18.3
 30
0.76
 11
40.5
 21
20.75
 31
-0.59
  0
LINE
  5
286
  8
0
 62
     7
 10
43.5
 20
18.3
 30
0.76
 11
46.5
 21
18.3
 31
0.76
  0
LINE
  5
287
  8
0
 62
     7
 10
43.5
 20
18.3
 30
0.76
 11
43.5
 21
20.75
 31
-0.59
  0
LINE
  5
288
  8
0
 62
     7
 10
46.5
 20
18.3
 30
0.76
 11
49.5
 21
18.3
 31
0.76
  0
LINE
  5
289
  8
0
 62
     7
 10
46.5
 20
18.3
 30
0.76
 11
46.5
 21
20.75
 31
-0.59
  0
LINE
  5
28A
  8
0
 62
     7
 10
49.5
 20
18.3
 30
0.76
 11
52.5
 21
18.3
 31
0.76
  0
LINE
  5
28B
  8
0
 62
     7
 10
49.5
 20
18.3
 30
0.76
 11
49.5
 21
20.75
 31
-0.59
  0
LINE
  5
28C
  8
0
 62
     7
 10
52.5
 20
18.3
 30
0.76
 11
55.5
 21
18.3
 31
0.76
  0
LINE
  5
28D
  8
0
 62
     7
 10
52.5
 20
18.3
 30
0.76
 11
52.5
 21
20.75
 31
-0.59
  0
LINE
  5
28E
  8
0
 62
     7
 10
55.5
 20
18.3
 30
0.76
 11
58.65
 21
18.3
 31
0.76
  0
LINE
  5
28F
  8
0
 62
     7
 10
55.5
 20
18.3
 30
0.76
 11
55.5
 21
20.55
 31
-0.59
  0
LINE
  5
290
  8
0
 62
     7
 10
1.5
 20
20.75
 30
-0.59
 11
4.5
 21
20.75
 31
-0.59
  0
LINE
  5
291
  8
0
 62
     7
 10
4.5
 20
20.75
 30
-0.59
 11
7.5
 21
20.75
 31
-0.59
  0
LINE
  5
292
  8
0
 62
     7
 10
7.5
 20
20.75
 30
-0.59
 11
10.5
 21
20.75
 31
-0.59
  0
LINE
  5
293
  8
0
 62
     7
 10
10.5
 20
20.75
 30
-0.59
 11
13.5
 21
20.75
 31
-0.59
  0
LINE
  5
294
  8
0
 62
     7
 10
13.5
 20
20.75
 30
-0.59
 11
16.5
 21
20.75
 31
-0.59
  0
LINE
  5
295
  8
0
 62
     7
 10
16.5
 20
20.75
 30
-0.59
 11
19.5
 21
20.75
 31
-0.59
  0
LINE
  5
296
  8
0
 62
     7
 10
19.5
 20
20.75
 30
-0.59
 11
22.5
 21
20.75
 31
-0.59
  0
LINE
  5
297
  8
0
 62
     7
 10
22.5
 20
20.75
 30
-0.59
 11
25.5
 21
20.75
 31
-0.59
  0
LINE
  5
298
  8
0
 62
     7
 10
25.5
 20
20.75
 30
-0.59
 11
28.5
 21
20.75
 31
-0.59
  0
LINE
  5
299
  8
0
 62
     7
 10
28.5
 20
20.75
 30
-0.59
 11
31.5
 21
20.75
 31
-0.59
  0
LINE
  5
29A
  8
0
 62
     7
 10
31.5
 20
20.75
 30
-0.59
 11
34.5
 21
20.75
 31
-0.59
  0
LINE
  5
29B
  8
0
 62
     7
 10
34.5
 20
20.75
 30
-0.59
 11
37.5
 21
20.75
 31
-0.59
  0
LINE
  5
29C
  8
0
 62
     7
 10
37.5
 20
20.75
 30
-0.59
 11
40.5
 21
20.75
 31
-0.59
  0
LINE
  5
29D
  8
0
 62
     7
 10
40.5
 20
20.75
 30
-0.59
 11
43.5
 21
20.75
 31
-0.59
  0
LINE
  5
29E
  8
0
 62
     7
 10
43.5
 20
20.75
 30
-0.59
 11
46.5
 21
20.75
 31
-0.59
  0
LINE
  5
29F
  8
0
 62
     7
 10
46.5
 20
20.75
 30
-0.59
 11
49.5
 21
20.75
 31
-0.59
  0
LINE
  5
2A0
  8
0
 62
     7
 10
49.5
 20
20.75
 30
-0.59
 11
52.5
 21
20.75
 31
-0.59
  0
LINE
  5
2A1
  8
0
 62
     7
 10
52.5
 20
20.75
 30
-0.59
 11
55.5
 21
20.55
 31
-0.59
  0
LINE
  5
2A2
  8
0
 62
     7
 10
55.5
 20
20.55
 30
-0.59
 11
58.65
 21
18.3
 31
0.76
  0
LINE
  5
2A3
  8
0
 62
     7
 10
58.65
 20
18.3
 30
0.76
 11
60.85
 21
15.66
 31
1.68
  0
LINE
  5
2A4
  8
0
 62
     7
 10
58.65
 20
4.7
 30
0.76
 11
60.85
 21
7.34
 31
1.68
  0
LINE
  5
2A5
  8
0
 62
     7
 10
55.5
 20
2.45
 30
-0.59
 11
58.65
 21
4.7
 31
0.76
  0
LINE
  5
2A6
  8
0
 62
     7
 10
0.0
 20
0.0
 30
0.0
 11
1.5
 21
2.25
 31
-0.59
  0
LINE
  5
2A7
  8
0
 62
     7
 10
1.5
 20
2.25
 30
-0.59
 11
0.0
 21
2.58
 31
1.71
  0
LINE
  5
2A8
  8
0
 62
     7
 10
1.5
 20
2.25
 30
-0.59
 11
3.0
 21
2.58
 31
1.71
  0
LINE
  5
2A9
  8
0
 62
     7
 10
1.5
 20
2.25
 30
-0.59
 11
3.0
 21
0.0
 31
0.0
  0
LINE
  5
2AA
  8
0
 62
     7
 10
3.0
 20
0.0
 30
0.0
 11
4.5
 21
2.25
 31
-0.59
  0
LINE
  5
2AB
  8
0
 62
     7
 10
4.5
 20
2.25
 30
-0.59
 11
3.0
 21
2.58
 31
1.71
  0
LINE
  5
2AC
  8
0
 62
     7
 10
4.5
 20
2.25
 30
-0.59
 11
6.0
 21
2.58
 31
1.71
  0
LINE
  5
2AD
  8
0
 62
     7
 10
4.5
 20
2.25
 30
-0.59
 11
6.0
 21
0.0
 31
0.0
  0
LINE
  5
2AE
  8
0
 62
     7
 10
6.0
 20
0.0
 30
0.0
 11
7.5
 21
2.25
 31
-0.59
  0
LINE
  5
2AF
  8
0
 62
     7
 10
7.5
 20
2.25
 30
-0.59
 11
6.0
 21
2.58
 31
1.71
  0
LINE
  5
2B0
  8
0
 62
     7
 10
7.5
 20
2.25
 30
-0.59
 11
9.0
 21
2.58
 31
1.71
  0
LINE
  5
2B1
  8
0
 62
     7
 10
7.5
 20
2.25
 30
-0.59
 11
9.0
 21
0.0
 31
0.0
  0
LINE
  5
2B2
  8
0
 62
     7
 10
9.0
 20
0.0
 30
0.0
 11
10.5
 21
2.25
 31
-0.59
  0
LINE
  5
2B3
  8
0
 62
     7
 10
10.5
 20
2.25
 30
-0.59
 11
9.0
 21
2.58
 31
1.71
  0
LINE
  5
2B4
  8
0
 62
     7
 10
10.5
 20
2.25
 30
-0.59
 11
12.0
 21
2.58
 31
1.71
  0
LINE
  5
2B5
  8
0
 62
     7
 10
10.5
 20
2.25
 30
-0.59
 11
12.0
 21
0.0
 31
0.0
  0
LINE
  5
2B6
  8
0
 62
     7
 10
12.0
 20
0.0
 30
0.0
 11
13.5
 21
2.25
 31
-0.59
  0
LINE
  5
2B7
  8
0
 62
     7
 10
13.5
 20
2.25
 30
-0.59
 11
12.0
 21
2.58
 31
1.71
  0
LINE
  5
2B8
  8
0
 62
     7
 10
13.5
 20
2.25
 30
-0.59
 11
15.0
 21
2.58
 31
1.71
  0
LINE
  5
2B9
  8
0
 62
     7
 10
13.5
 20
2.25
 30
-0.59
 11
15.0
 21
0.0
 31
0.0
  0
LINE
  5
2BA
  8
0
 62
     7
 10
15.0
 20
0.0
 30
0.0
 11
16.5
 21
2.25
 31
-0.59
  0
LINE
  5
2BB
  8
0
 62
     7
 10
16.5
 20
2.25
 30
-0.59
 11
15.0
 21
2.58
 31
1.71
  0
LINE
  5
2BC
  8
0
 62
     7
 10
16.5
 20
2.25
 30
-0.59
 11
18.0
 21
2.58
 31
1.71
  0
LINE
  5
2BD
  8
0
 62
     7
 10
16.5
 20
2.25
 30
-0.59
 11
18.0
 21
0.0
 31
0.0
  0
LINE
  5
2BE
  8
0
 62
     7
 10
18.0
 20
0.0
 30
0.0
 11
19.5
 21
2.25
 31
-0.59
  0
LINE
  5
2BF
  8
0
 62
     7
 10
19.5
 20
2.25
 30
-0.59
 11
18.0
 21
2.58
 31
1.71
  0
LINE
  5
2C0
  8
0
 62
     7
 10
19.5
 20
2.25
 30
-0.59
 11
21.0
 21
2.58
 31
1.71
  0
LINE
  5
2C1
  8
0
 62
     7
 10
19.5
 20
2.25
 30
-0.59
 11
21.0
 21
0.0
 31
0.0
  0
LINE
  5
2C2
  8
0
 62
     7
 10
21.0
 20
0.0
 30
0.0
 11
22.5
 21
2.25
 31
-0.59
  0
LINE
  5
2C3
  8
0
 62
     7
 10
22.5
 20
2.25
 30
-0.59
 11
21.0
 21
2.58
 31
1.71
  0
LINE
  5
2C4
  8
0
 62
     7
 10
22.5
 20
2.25
 30
-0.59
 11
24.0
 21
2.58
 31
1.71
  0
LINE
  5
2C5
  8
0
 62
     7
 10
22.5
 20
2.25
 30
-0.59
 11
24.0
 21
0.0
 31
0.0
  0
LINE
  5
2C6
  8
0
 62
     7
 10
24.0
 20
0.0
 30
0.0
 11
25.5
 21
2.25
 31
-0.59
  0
LINE
  5
2C7
  8
0
 62
     7
 10
25.5
 20
2.25
 30
-0.59
 11
24.0
 21
2.58
 31
1.71
  0
LINE
  5
2C8
  8
0
 62
     7
 10
25.5
 20
2.25
 30
-0.59
 11
27.0
 21
2.58
 31
1.71
  0
LINE
  5
2C9
  8
0
 62
     7
 10
25.5
 20
2.25
 30
-0.59
 11
27.0
 21
0.0
 31
0.0
  0
LINE
  5
2CA
  8
0
 62
     7
 10
27.0
 20
0.0
 30
0.0
 11
28.5
 21
2.25
 31
-0.59
  0
LINE
  5
2CB
  8
0
 62
     7
 10
28.5
 20
2.25
 30
-0.59
 11
27.0
 21
2.58
 31
1.71
  0
LINE
  5
2CC
  8
0
 62
     7
 10
28.5
 20
2.25
 30
-0.59
 11
30.0
 21
2.58
 31
1.71
  0
LINE
  5
2CD
  8
0
 62
     7
 10
28.5
 20
2.25
 30
-0.59
 11
30.0
 21
0.0
 31
0.0
  0
LINE
  5
2CE
  8
0
 62
     7
 10
30.0
 20
0.0
 30
0.0
 11
31.5
 21
2.25
 31
-0.59
  0
LINE
  5
2CF
  8
0
 62
     7
 10
31.5
 20
2.25
 30
-0.59
 11
30.0
 21
2.58
 31
1.71
  0
LINE
  5
2D0
  8
0
 62
     7
 10
31.5
 20
2.25
 30
-0.59
 11
33.0
 21
2.58
 31
1.71
  0
LINE
  5
2D1
  8
0
 62
     7
 10
31.5
 20
2.25
 30
-0.59
 11
33.0
 21
0.0
 31
0.0
  0
LINE
  5
2D2
  8
0
 62
     7
 10
33.0
 20
0.0
 30
0.0
 11
34.5
 21
2.25
 31
-0.59
  0
LINE
  5
2D3
  8
0
 62
     7
 10
34.5
 20
2.25
 30
-0.59
 11
33.0
 21
2.58
 31
1.71
  0
LINE
  5
2D4
  8
0
 62
     7
 10
34.5
 20
2.25
 30
-0.59
 11
36.0
 21
2.58
 31
1.71
  0
LINE
  5
2D5
  8
0
 62
     7
 10
34.5
 20
2.25
 30
-0.59
 11
36.0
 21
0.0
 31
0.0
  0
LINE
  5
2D6
  8
0
 62
     7
 10
36.0
 20
0.0
 30
0.0
 11
37.5
 21
2.25
 31
-0.59
  0
LINE
  5
2D7
  8
0
 62
     7
 10
37.5
 20
2.25
 30
-0.59
 11
36.0
 21
2.58
 31
1.71
  0
LINE
  5
2D8
  8
0
 62
     7
 10
37.5
 20
2.25
 30
-0.59
 11
39.0
 21
2.58
 31
1.71
  0
LINE
  5
2D9
  8
0
 62
     7
 10
37.5
 20
2.25
 30
-0.59
 11
39.0
 21
0.0
 31
0.0
  0
LINE
  5
2DA
  8
0
 62
     7
 10
39.0
 20
0.0
 30
0.0
 11
40.5
 21
2.25
 31
-0.59
  0
LINE
  5
2DB
  8
0
 62
     7
 10
40.5
 20
2.25
 30
-0.59
 11
39.0
 21
2.58
 31
1.71
  0
LINE
  5
2DC
  8
0
 62
     7
 10
40.5
 20
2.25
 30
-0.59
 11
42.0
 21
2.58
 31
1.71
  0
LINE
  5
2DD
  8
0
 62
     7
 10
40.5
 20
2.25
 30
-0.59
 11
42.0
 21
0.0
 31
0.0
  0
LINE
  5
2DE
  8
0
 62
     7
 10
42.0
 20
0.0
 30
0.0
 11
43.5
 21
2.25
 31
-0.59
  0
LINE
  5
2DF
  8
0
 62
     7
 10
43.5
 20
2.25
 30
-0.59
 11
42.0
 21
2.58
 31
1.71
  0
LINE
  5
2E0
  8
0
 62
     7
 10
43.5
 20
2.25
 30
-0.59
 11
45.0
 21
2.58
 31
1.71
  0
LINE
  5
2E1
  8
0
 62
     7
 10
43.5
 20
2.25
 30
-0.59
 11
45.0
 21
0.0
 31
0.0
  0
LINE
  5
2E2
  8
0
 62
     7
 10
45.0
 20
0.0
 30
0.0
 11
46.5
 21
2.25
 31
-0.59
  0
LINE
  5
2E3
  8
0
 62
     7
 10
46.5
 20
2.25
 30
-0.59
 11
45.0
 21
2.58
 31
1.71
  0
LINE
  5
2E4
  8
0
 62
     7
 10
46.5
 20
2.25
 30
-0.59
 11
48.0
 21
2.58
 31
1.71
  0
LINE
  5
2E5
  8
0
 62
     7
 10
46.5
 20
2.25
 30
-0.59
 11
48.0
 21
0.0
 31
0.0
  0
LINE
  5
2E6
  8
0
 62
     7
 10
48.0
 20
0.0
 30
0.0
 11
49.5
 21
2.25
 31
-0.59
  0
LINE
  5
2E7
  8
0
 62
     7
 10
49.5
 20
2.25
 30
-0.59
 11
48.0
 21
2.58
 31
1.71
  0
LINE
  5
2E8
  8
0
 62
     7
 10
49.5
 20
2.25
 30
-0.59
 11
51.0
 21
2.58
 31
1.71
  0
LINE
  5
2E9
  8
0
 62
     7
 10
49.5
 20
2.25
 30
-0.59
 11
51.0
 21
0.23
 31
0.0
  0
LINE
  5
2EA
  8
0
 62
     7
 10
51.0
 20
0.23
 30
0.0
 11
52.5
 21
2.25
 31
-0.59
  0
LINE
  5
2EB
  8
0
 62
     7
 10
52.5
 20
2.25
 30
-0.59
 11
51.0
 21
2.58
 31
1.71
  0
LINE
  5
2EC
  8
0
 62
     7
 10
52.5
 20
2.25
 30
-0.59
 11
54.0
 21
2.58
 31
1.71
  0
LINE
  5
2ED
  8
0
 62
     7
 10
52.5
 20
2.25
 30
-0.59
 11
54.0
 21
0.96
 31
0.0
  0
LINE
  5
2EE
  8
0
 62
     7
 10
54.0
 20
0.96
 30
0.0
 11
55.5
 21
2.45
 31
-0.59
  0
LINE
  5
2EF
  8
0
 62
     7
 10
55.5
 20
2.45
 30
-0.59
 11
54.0
 21
2.58
 31
1.71
  0
LINE
  5
2F0
  8
0
 62
     7
 10
55.5
 20
2.45
 30
-0.59
 11
57.47
 21
2.58
 31
1.71
  0
LINE
  5
2F1
  8
0
 62
     7
 10
0.0
 20
2.58
 30
1.71
 11
1.5
 21
4.7
 31
0.76
  0
LINE
  5
2F2
  8
0
 62
     7
 10
1.5
 20
4.7
 30
0.76
 11
0.0
 21
5.41
 31
2.97
  0
LINE
  5
2F3
  8
0
 62
     7
 10
1.5
 20
4.7
 30
0.76
 11
3.0
 21
5.41
 31
2.97
  0
LINE
  5
2F4
  8
0
 62
     7
 10
1.5
 20
4.7
 30
0.76
 11
3.0
 21
2.58
 31
1.71
  0
LINE
  5
2F5
  8
0
 62
     7
 10
3.0
 20
2.58
 30
1.71
 11
4.5
 21
4.7
 31
0.76
  0
LINE
  5
2F6
  8
0
 62
     7
 10
4.5
 20
4.7
 30
0.76
 11
3.0
 21
5.41
 31
2.97
  0
LINE
  5
2F7
  8
0
 62
     7
 10
4.5
 20
4.7
 30
0.76
 11
6.0
 21
5.41
 31
2.97
  0
LINE
  5
2F8
  8
0
 62
     7
 10
4.5
 20
4.7
 30
0.76
 11
6.0
 21
2.58
 31
1.71
  0
LINE
  5
2F9
  8
0
 62
     7
 10
6.0
 20
2.58
 30
1.71
 11
7.5
 21
4.7
 31
0.76
  0
LINE
  5
2FA
  8
0
 62
     7
 10
7.5
 20
4.7
 30
0.76
 11
6.0
 21
5.41
 31
2.97
  0
LINE
  5
2FB
  8
0
 62
     7
 10
7.5
 20
4.7
 30
0.76
 11
9.0
 21
5.41
 31
2.97
  0
LINE
  5
2FC
  8
0
 62
     7
 10
7.5
 20
4.7
 30
0.76
 11
9.0
 21
2.58
 31
1.71
  0
LINE
  5
2FD
  8
0
 62
     7
 10
9.0
 20
2.58
 30
1.71
 11
10.5
 21
4.7
 31
0.76
  0
LINE
  5
2FE
  8
0
 62
     7
 10
10.5
 20
4.7
 30
0.76
 11
9.0
 21
5.41
 31
2.97
  0
LINE
  5
2FF
  8
0
 62
     7
 10
10.5
 20
4.7
 30
0.76
 11
12.0
 21
5.41
 31
2.97
  0
LINE
  5
300
  8
0
 62
     7
 10
10.5
 20
4.7
 30
0.76
 11
12.0
 21
2.58
 31
1.71
  0
LINE
  5
301
  8
0
 62
     7
 10
12.0
 20
2.58
 30
1.71
 11
13.5
 21
4.7
 31
0.76
  0
LINE
  5
302
  8
0
 62
     7
 10
13.5
 20
4.7
 30
0.76
 11
12.0
 21
5.41
 31
2.97
  0
LINE
  5
303
  8
0
 62
     7
 10
13.5
 20
4.7
 30
0.76
 11
15.0
 21
5.41
 31
2.97
  0
LINE
  5
304
  8
0
 62
     7
 10
13.5
 20
4.7
 30
0.76
 11
15.0
 21
2.58
 31
1.71
  0
LINE
  5
305
  8
0
 62
     7
 10
15.0
 20
2.58
 30
1.71
 11
16.5
 21
4.7
 31
0.76
  0
LINE
  5
306
  8
0
 62
     7
 10
16.5
 20
4.7
 30
0.76
 11
15.0
 21
5.41
 31
2.97
  0
LINE
  5
307
  8
0
 62
     7
 10
16.5
 20
4.7
 30
0.76
 11
18.0
 21
5.41
 31
2.97
  0
LINE
  5
308
  8
0
 62
     7
 10
16.5
 20
4.7
 30
0.76
 11
18.0
 21
2.58
 31
1.71
  0
LINE
  5
309
  8
0
 62
     7
 10
18.0
 20
2.58
 30
1.71
 11
19.5
 21
4.7
 31
0.76
  0
LINE
  5
30A
  8
0
 62
     7
 10
19.5
 20
4.7
 30
0.76
 11
18.0
 21
5.41
 31
2.97
  0
LINE
  5
30B
  8
0
 62
     7
 10
19.5
 20
4.7
 30
0.76
 11
21.0
 21
5.41
 31
2.97
  0
LINE
  5
30C
  8
0
 62
     7
 10
19.5
 20
4.7
 30
0.76
 11
21.0
 21
2.58
 31
1.71
  0
LINE
  5
30D
  8
0
 62
     7
 10
21.0
 20
2.58
 30
1.71
 11
22.5
 21
4.7
 31
0.76
  0
LINE
  5
30E
  8
0
 62
     7
 10
22.5
 20
4.7
 30
0.76
 11
21.0
 21
5.41
 31
2.97
  0
LINE
  5
30F
  8
0
 62
     7
 10
22.5
 20
4.7
 30
0.76
 11
24.0
 21
5.41
 31
2.97
  0
LINE
  5
310
  8
0
 62
     7
 10
22.5
 20
4.7
 30
0.76
 11
24.0
 21
2.58
 31
1.71
  0
LINE
  5
311
  8
0
 62
     7
 10
24.0
 20
2.58
 30
1.71
 11
25.5
 21
4.7
 31
0.76
  0
LINE
  5
312
  8
0
 62
     7
 10
25.5
 20
4.7
 30
0.76
 11
24.0
 21
5.41
 31
2.97
  0
LINE
  5
313
  8
0
 62
     7
 10
25.5
 20
4.7
 30
0.76
 11
27.0
 21
5.41
 31
2.97
  0
LINE
  5
314
  8
0
 62
     7
 10
25.5
 20
4.7
 30
0.76
 11
27.0
 21
2.58
 31
1.71
  0
LINE
  5
315
  8
0
 62
     7
 10
27.0
 20
2.58
 30
1.71
 11
28.5
 21
4.7
 31
0.76
  0
LINE
  5
316
  8
0
 62
     7
 10
28.5
 20
4.7
 30
0.76
 11
27.0
 21
5.41
 31
2.97
  0
LINE
  5
317
  8
0
 62
     7
 10
28.5
 20
4.7
 30
0.76
 11
30.0
 21
5.41
 31
2.97
  0
LINE
  5
318
  8
0
 62
     7
 10
28.5
 20
4.7
 30
0.76
 11
30.0
 21
2.58
 31
1.71
  0
LINE
  5
319
  8
0
 62
     7
 10
30.0
 20
2.58
 30
1.71
 11
31.5
 21
4.7
 31
0.76
  0
LINE
  5
31A
  8
0
 62
     7
 10
31.5
 20
4.7
 30
0.76
 11
30.0
 21
5.41
 31
2.97
  0
LINE
  5
31B
  8
0
 62
     7
 10
31.5
 20
4.7
 30
0.76
 11
33.0
 21
5.41
 31
2.97
  0
LINE
  5
31C
  8
0
 62
     7
 10
31.5
 20
4.7
 30
0.76
 11
33.0
 21
2.58
 31
1.71
  0
LINE
  5
31D
  8
0
 62
     7
 10
33.0
 20
2.58
 30
1.71
 11
34.5
 21
4.7
 31
0.76
  0
LINE
  5
31E
  8
0
 62
     7
 10
34.5
 20
4.7
 30
0.76
 11
33.0
 21
5.41
 31
2.97
  0
LINE
  5
31F
  8
0
 62
     7
 10
34.5
 20
4.7
 30
0.76
 11
36.0
 21
5.41
 31
2.97
  0
LINE
  5
320
  8
0
 62
     7
 10
34.5
 20
4.7
 30
0.76
 11
36.0
 21
2.58
 31
1.71
  0
LINE
  5
321
  8
0
 62
     7
 10
36.0
 20
2.58
 30
1.71
 11
37.5
 21
4.7
 31
0.76
  0
LINE
  5
322
  8
0
 62
     7
 10
37.5
 20
4.7
 30
0.76
 11
36.0
 21
5.41
 31
2.97
  0
LINE
  5
323
  8
0
 62
     7
 10
37.5
 20
4.7
 30
0.76
 11
39.0
 21
5.41
 31
2.97
  0
LINE
  5
324
  8
0
 62
     7
 10
37.5
 20
4.7
 30
0.76
 11
39.0
 21
2.58
 31
1.71
  0
LINE
  5
325
  8
0
 62
     7
 10
39.0
 20
2.58
 30
1.71
 11
40.5
 21
4.7
 31
0.76
  0
LINE
  5
326
  8
0
 62
     7
 10
40.5
 20
4.7
 30
0.76
 11
39.0
 21
5.41
 31
2.97
  0
LINE
  5
327
  8
0
 62
     7
 10
40.5
 20
4.7
 30
0.76
 11
42.0
 21
5.41
 31
2.97
  0
LINE
  5
328
  8
0
 62
     7
 10
40.5
 20
4.7
 30
0.76
 11
42.0
 21
2.58
 31
1.71
  0
LINE
  5
329
  8
0
 62
     7
 10
42.0
 20
2.58
 30
1.71
 11
43.5
 21
4.7
 31
0.76
  0
LINE
  5
32A
  8
0
 62
     7
 10
43.5
 20
4.7
 30
0.76
 11
42.0
 21
5.41
 31
2.97
  0
LINE
  5
32B
  8
0
 62
     7
 10
43.5
 20
4.7
 30
0.76
 11
45.0
 21
5.41
 31
2.97
  0
LINE
  5
32C
  8
0
 62
     7
 10
43.5
 20
4.7
 30
0.76
 11
45.0
 21
2.58
 31
1.71
  0
LINE
  5
32D
  8
0
 62
     7
 10
45.0
 20
2.58
 30
1.71
 11
46.5
 21
4.7
 31
0.76
  0
LINE
  5
32E
  8
0
 62
     7
 10
46.5
 20
4.7
 30
0.76
 11
45.0
 21
5.41
 31
2.97
  0
LINE
  5
32F
  8
0
 62
     7
 10
46.5
 20
4.7
 30
0.76
 11
48.0
 21
5.41
 31
2.97
  0
LINE
  5
330
  8
0
 62
     7
 10
46.5
 20
4.7
 30
0.76
 11
48.0
 21
2.58
 31
1.71
  0
LINE
  5
331
  8
0
 62
     7
 10
48.0
 20
2.58
 30
1.71
 11
49.5
 21
4.7
 31
0.76
  0
LINE
  5
332
  8
0
 62
     7
 10
49.5
 20
4.7
 30
0.76
 11
48.0
 21
5.41
 31
2.97
  0
LINE
  5
333
  8
0
 62
     7
 10
49.5
 20
4.7
 30
0.76
 11
51.0
 21
5.41
 31
2.97
  0
LINE
  5
334
  8
0
 62
     7
 10
49.5
 20
4.7
 30
0.76
 11
51.0
 21
2.58
 31
1.71
  0
LINE
  5
335
  8
0
 62
     7
 10
51.0
 20
2.58
 30
1.71
 11
52.5
 21
4.7
 31
0.76
  0
LINE
  5
336
  8
0
 62
     7
 10
52.5
 20
4.7
 30
0.76
 11
51.0
 21
5.41
 31
2.97
  0
LINE
  5
337
  8
0
 62
     7
 10
52.5
 20
4.7
 30
0.76
 11
54.0
 21
5.41
 31
2.97
  0
LINE
  5
338
  8
0
 62
     7
 10
52.5
 20
4.7
 30
0.76
 11
54.0
 21
2.58
 31
1.71
  0
LINE
  5
339
  8
0
 62
     7
 10
54.0
 20
2.58
 30
1.71
 11
55.5
 21
4.7
 31
0.76
  0
LINE
  5
33A
  8
0
 62
     7
 10
55.5
 20
4.7
 30
0.76
 11
54.0
 21
5.41
 31
2.97
  0
LINE
  5
33B
  8
0
 62
     7
 10
55.5
 20
4.7
 30
0.76
 11
57.0
 21
5.41
 31
2.97
  0
LINE
  5
33C
  8
0
 62
     7
 10
55.5
 20
4.7
 30
0.76
 11
57.47
 21
2.58
 31
1.71
  0
LINE
  5
33D
  8
0
 62
     7
 10
57.47
 20
2.58
 30
1.71
 11
58.65
 21
4.7
 31
0.76
  0
LINE
  5
33E
  8
0
 62
     7
 10
58.65
 20
4.7
 30
0.76
 11
57.0
 21
5.41
 31
2.97
  0
LINE
  5
33F
  8
0
 62
     7
 10
58.65
 20
4.7
 30
0.76
 11
60.73
 21
5.41
 31
2.97
  0
LINE
  5
340
  8
0
 62
     7
 10
0.0
 20
5.41
 30
2.97
 11
1.5
 21
7.34
 31
1.68
  0
LINE
  5
341
  8
0
 62
     7
 10
1.5
 20
7.34
 30
1.68
 11
0.0
 21
8.41
 31
3.74
  0
LINE
  5
342
  8
0
 62
     7
 10
1.5
 20
7.34
 30
1.68
 11
3.0
 21
8.41
 31
3.74
  0
LINE
  5
343
  8
0
 62
     7
 10
1.5
 20
7.34
 30
1.68
 11
3.0
 21
5.41
 31
2.97
  0
LINE
  5
344
  8
0
 62
     7
 10
3.0
 20
5.41
 30
2.97
 11
4.5
 21
7.34
 31
1.68
  0
LINE
  5
345
  8
0
 62
     7
 10
4.5
 20
7.34
 30
1.68
 11
3.0
 21
8.41
 31
3.74
  0
LINE
  5
346
  8
0
 62
     7
 10
4.5
 20
7.34
 30
1.68
 11
6.0
 21
8.41
 31
3.74
  0
LINE
  5
347
  8
0
 62
     7
 10
4.5
 20
7.34
 30
1.68
 11
6.0
 21
5.41
 31
2.97
  0
LINE
  5
348
  8
0
 62
     7
 10
6.0
 20
5.41
 30
2.97
 11
7.5
 21
7.34
 31
1.68
  0
LINE
  5
349
  8
0
 62
     7
 10
7.5
 20
7.34
 30
1.68
 11
6.0
 21
8.41
 31
3.74
  0
LINE
  5
34A
  8
0
 62
     7
 10
7.5
 20
7.34
 30
1.68
 11
9.0
 21
8.41
 31
3.74
  0
LINE
  5
34B
  8
0
 62
     7
 10
7.5
 20
7.34
 30
1.68
 11
9.0
 21
5.41
 31
2.97
  0
LINE
  5
34C
  8
0
 62
     7
 10
9.0
 20
5.41
 30
2.97
 11
10.5
 21
7.34
 31
1.68
  0
LINE
  5
34D
  8
0
 62
     7
 10
10.5
 20
7.34
 30
1.68
 11
9.0
 21
8.41
 31
3.74
  0
LINE
  5
34E
  8
0
 62
     7
 10
10.5
 20
7.34
 30
1.68
 11
12.0
 21
8.41
 31
3.74
  0
LINE
  5
34F
  8
0
 62
     7
 10
10.5
 20
7.34
 30
1.68
 11
12.0
 21
5.41
 31
2.97
  0
LINE
  5
350
  8
0
 62
     7
 10
12.0
 20
5.41
 30
2.97
 11
13.5
 21
7.34
 31
1.68
  0
LINE
  5
351
  8
0
 62
     7
 10
13.5
 20
7.34
 30
1.68
 11
12.0
 21
8.41
 31
3.74
  0
LINE
  5
352
  8
0
 62
     7
 10
13.5
 20
7.34
 30
1.68
 11
15.0
 21
8.41
 31
3.74
  0
LINE
  5
353
  8
0
 62
     7
 10
13.5
 20
7.34
 30
1.68
 11
15.0
 21
5.41
 31
2.97
  0
LINE
  5
354
  8
0
 62
     7
 10
15.0
 20
5.41
 30
2.97
 11
16.5
 21
7.34
 31
1.68
  0
LINE
  5
355
  8
0
 62
     7
 10
16.5
 20
7.34
 30
1.68
 11
15.0
 21
8.41
 31
3.74
  0
LINE
  5
356
  8
0
 62
     7
 10
16.5
 20
7.34
 30
1.68
 11
18.0
 21
8.41
 31
3.74
  0
LINE
  5
357
  8
0
 62
     7
 10
16.5
 20
7.34
 30
1.68
 11
18.0
 21
5.41
 31
2.97
  0
LINE
  5
358
  8
0
 62
     7
 10
18.0
 20
5.41
 30
2.97
 11
19.5
 21
7.34
 31
1.68
  0
LINE
  5
359
  8
0
 62
     7
 10
19.5
 20
7.34
 30
1.68
 11
18.0
 21
8.41
 31
3.74
  0
LINE
  5
35A
  8
0
 62
     7
 10
19.5
 20
7.34
 30
1.68
 11
21.0
 21
8.41
 31
3.74
  0
LINE
  5
35B
  8
0
 62
     7
 10
19.5
 20
7.34
 30
1.68
 11
21.0
 21
5.41
 31
2.97
  0
LINE
  5
35C
  8
0
 62
     7
 10
21.0
 20
5.41
 30
2.97
 11
22.5
 21
7.34
 31
1.68
  0
LINE
  5
35D
  8
0
 62
     7
 10
22.5
 20
7.34
 30
1.68
 11
21.0
 21
8.41
 31
3.74
  0
LINE
  5
35E
  8
0
 62
     7
 10
22.5
 20
7.34
 30
1.68
 11
24.0
 21
8.41
 31
3.74
  0
LINE
  5
35F
  8
0
 62
     7
 10
22.5
 20
7.34
 30
1.68
 11
24.0
 21
5.41
 31
2.97
  0
LINE
  5
360
  8
0
 62
     7
 10
24.0
 20
5.41
 30
2.97
 11
25.5
 21
7.34
 31
1.68
  0
LINE
  5
361
  8
0
 62
     7
 10
25.5
 20
7.34
 30
1.68
 11
24.0
 21
8.41
 31
3.74
  0
LINE
  5
362
  8
0
 62
     7
 10
25.5
 20
7.34
 30
1.68
 11
27.0
 21
8.41
 31
3.74
  0
LINE
  5
363
  8
0
 62
     7
 10
25.5
 20
7.34
 30
1.68
 11
27.0
 21
5.41
 31
2.97
  0
LINE
  5
364
  8
0
 62
     7
 10
27.0
 20
5.41
 30
2.97
 11
28.5
 21
7.34
 31
1.68
  0
LINE
  5
365
  8
0
 62
     7
 10
28.5
 20
7.34
 30
1.68
 11
27.0
 21
8.41
 31
3.74
  0
LINE
  5
366
  8
0
 62
     7
 10
28.5
 20
7.34
 30
1.68
 11
30.0
 21
8.41
 31
3.74
  0
LINE
  5
367
  8
0
 62
     7
 10
28.5
 20
7.34
 30
1.68
 11
30.0
 21
5.41
 31
2.97
  0
LINE
  5
368
  8
0
 62
     7
 10
30.0
 20
5.41
 30
2.97
 11
31.5
 21
7.34
 31
1.68
  0
LINE
  5
369
  8
0
 62
     7
 10
31.5
 20
7.34
 30
1.68
 11
30.0
 21
8.41
 31
3.74
  0
LINE
  5
36A
  8
0
 62
     7
 10
31.5
 20
7.34
 30
1.68
 11
33.0
 21
8.41
 31
3.74
  0
LINE
  5
36B
  8
0
 62
     7
 10
31.5
 20
7.34
 30
1.68
 11
33.0
 21
5.41
 31
2.97
  0
LINE
  5
36C
  8
0
 62
     7
 10
33.0
 20
5.41
 30
2.97
 11
34.5
 21
7.34
 31
1.68
  0
LINE
  5
36D
  8
0
 62
     7
 10
34.5
 20
7.34
 30
1.68
 11
33.0
 21
8.41
 31
3.74
  0
LINE
  5
36E
  8
0
 62
     7
 10
34.5
 20
7.34
 30
1.68
 11
36.0
 21
8.41
 31
3.74
  0
LINE
  5
36F
  8
0
 62
     7
 10
34.5
 20
7.34
 30
1.68
 11
36.0
 21
5.41
 31
2.97
  0
LINE
  5
370
  8
0
 62
     7
 10
36.0
 20
5.41
 30
2.97
 11
37.5
 21
7.34
 31
1.68
  0
LINE
  5
371
  8
0
 62
     7
 10
37.5
 20
7.34
 30
1.68
 11
36.0
 21
8.41
 31
3.74
  0
LINE
  5
372
  8
0
 62
     7
 10
37.5
 20
7.34
 30
1.68
 11
39.0
 21
8.41
 31
3.74
  0
LINE
  5
373
  8
0
 62
     7
 10
37.5
 20
7.34
 30
1.68
 11
39.0
 21
5.41
 31
2.97
  0
LINE
  5
374
  8
0
 62
     7
 10
39.0
 20
5.41
 30
2.97
 11
40.5
 21
7.34
 31
1.68
  0
LINE
  5
375
  8
0
 62
     7
 10
40.5
 20
7.34
 30
1.68
 11
39.0
 21
8.41
 31
3.74
  0
LINE
  5
376
  8
0
 62
     7
 10
40.5
 20
7.34
 30
1.68
 11
42.0
 21
8.41
 31
3.74
  0
LINE
  5
377
  8
0
 62
     7
 10
40.5
 20
7.34
 30
1.68
 11
42.0
 21
5.41
 31
2.97
  0
LINE
  5
378
  8
0
 62
     7
 10
42.0
 20
5.41
 30
2.97
 11
43.5
 21
7.34
 31
1.68
  0
LINE
  5
379
  8
0
 62
     7
 10
43.5
 20
7.34
 30
1.68
 11
42.0
 21
8.41
 31
3.74
  0
LINE
  5
37A
  8
0
 62
     7
 10
43.5
 20
7.34
 30
1.68
 11
45.0
 21
8.41
 31
3.74
  0
LINE
  5
37B
  8
0
 62
     7
 10
43.5
 20
7.34
 30
1.68
 11
45.0
 21
5.41
 31
2.97
  0
LINE
  5
37C
  8
0
 62
     7
 10
45.0
 20
5.41
 30
2.97
 11
46.5
 21
7.34
 31
1.68
  0
LINE
  5
37D
  8
0
 62
     7
 10
46.5
 20
7.34
 30
1.68
 11
45.0
 21
8.41
 31
3.74
  0
LINE
  5
37E
  8
0
 62
     7
 10
46.5
 20
7.34
 30
1.68
 11
48.0
 21
8.41
 31
3.74
  0
LINE
  5
37F
  8
0
 62
     7
 10
46.5
 20
7.34
 30
1.68
 11
48.0
 21
5.41
 31
2.97
  0
LINE
  5
380
  8
0
 62
     7
 10
48.0
 20
5.41
 30
2.97
 11
49.5
 21
7.34
 31
1.68
  0
LINE
  5
381
  8
0
 62
     7
 10
49.5
 20
7.34
 30
1.68
 11
48.0
 21
8.41
 31
3.74
  0
LINE
  5
382
  8
0
 62
     7
 10
49.5
 20
7.34
 30
1.68
 11
51.0
 21
8.41
 31
3.74
  0
LINE
  5
383
  8
0
 62
     7
 10
49.5
 20
7.34
 30
1.68
 11
51.0
 21
5.41
 31
2.97
  0
LINE
  5
384
  8
0
 62
     7
 10
51.0
 20
5.41
 30
2.97
 11
52.5
 21
7.34
 31
1.68
  0
LINE
  5
385
  8
0
 62
     7
 10
52.5
 20
7.34
 30
1.68
 11
51.0
 21
8.41
 31
3.74
  0
LINE
  5
386
  8
0
 62
     7
 10
52.5
 20
7.34
 30
1.68
 11
54.0
 21
8.41
 31
3.74
  0
LINE
  5
387
  8
0
 62
     7
 10
52.5
 20
7.34
 30
1.68
 11
54.0
 21
5.41
 31
2.97
  0
LINE
  5
388
  8
0
 62
     7
 10
54.0
 20
5.41
 30
2.97
 11
55.5
 21
7.34
 31
1.68
  0
LINE
  5
389
  8
0
 62
     7
 10
55.5
 20
7.34
 30
1.68
 11
54.0
 21
8.41
 31
3.74
  0
LINE
  5
38A
  8
0
 62
     7
 10
55.5
 20
7.34
 30
1.68
 11
57.0
 21
8.41
 31
3.74
  0
LINE
  5
38B
  8
0
 62
     7
 10
55.5
 20
7.34
 30
1.68
 11
57.0
 21
5.41
 31
2.97
  0
LINE
  5
38C
  8
0
 62
     7
 10
57.0
 20
5.41
 30
2.97
 11
58.5
 21
7.34
 31
1.68
  0
LINE
  5
38D
  8
0
 62
     7
 10
58.5
 20
7.34
 30
1.68
 11
57.0
 21
8.41
 31
3.74
  0
LINE
  5
38E
  8
0
 62
     7
 10
58.5
 20
7.34
 30
1.68
 11
60.0
 21
8.41
 31
3.74
  0
LINE
  5
38F
  8
0
 62
     7
 10
58.5
 20
7.34
 30
1.68
 11
60.73
 21
5.41
 31
2.97
  0
LINE
  5
390
  8
0
 62
     7
 10
60.73
 20
5.41
 30
2.97
 11
60.85
 21
7.34
 31
1.68
  0
LINE
  5
391
  8
0
 62
     7
 10
60.85
 20
7.34
 30
1.68
 11
60.0
 21
8.41
 31
3.74
  0
LINE
  5
392
  8
0
 62
     7
 10
60.85
 20
7.34
 30
1.68
 11
62.45
 21
8.41
 31
3.74
  0
LINE
  5
393
  8
0
 62
     7
 10
0.0
 20
8.41
 30
3.74
 11
1.5
 21
10.1
 31
2.14
  0
LINE
  5
394
  8
0
 62
     7
 10
1.5
 20
10.1
 30
2.14
 11
0.0
 21
11.5
 31
4.0
  0
LINE
  5
395
  8
0
 62
     7
 10
1.5
 20
10.1
 30
2.14
 11
3.0
 21
11.5
 31
4.0
  0
LINE
  5
396
  8
0
 62
     7
 10
1.5
 20
10.1
 30
2.14
 11
3.0
 21
8.41
 31
3.74
  0
LINE
  5
397
  8
0
 62
     7
 10
3.0
 20
8.41
 30
3.74
 11
4.5
 21
10.1
 31
2.14
  0
LINE
  5
398
  8
0
 62
     7
 10
4.5
 20
10.1
 30
2.14
 11
3.0
 21
11.5
 31
4.0
  0
LINE
  5
399
  8
0
 62
     7
 10
4.5
 20
10.1
 30
2.14
 11
6.0
 21
11.5
 31
4.0
  0
LINE
  5
39A
  8
0
 62
     7
 10
4.5
 20
10.1
 30
2.14
 11
6.0
 21
8.41
 31
3.74
  0
LINE
  5
39B
  8
0
 62
     7
 10
6.0
 20
8.41
 30
3.74
 11
7.5
 21
10.1
 31
2.14
  0
LINE
  5
39C
  8
0
 62
     7
 10
7.5
 20
10.1
 30
2.14
 11
6.0
 21
11.5
 31
4.0
  0
LINE
  5
39D
  8
0
 62
     7
 10
7.5
 20
10.1
 30
2.14
 11
9.0
 21
11.5
 31
4.0
  0
LINE
  5
39E
  8
0
 62
     7
 10
7.5
 20
10.1
 30
2.14
 11
9.0
 21
8.41
 31
3.74
  0
LINE
  5
39F
  8
0
 62
     7
 10
9.0
 20
8.41
 30
3.74
 11
10.5
 21
10.1
 31
2.14
  0
LINE
  5
3A0
  8
0
 62
     7
 10
10.5
 20
10.1
 30
2.14
 11
9.0
 21
11.5
 31
4.0
  0
LINE
  5
3A1
  8
0
 62
     7
 10
10.5
 20
10.1
 30
2.14
 11
12.0
 21
11.5
 31
4.0
  0
LINE
  5
3A2
  8
0
 62
     7
 10
10.5
 20
10.1
 30
2.14
 11
12.0
 21
8.41
 31
3.74
  0
LINE
  5
3A3
  8
0
 62
     7
 10
12.0
 20
8.41
 30
3.74
 11
13.5
 21
10.1
 31
2.14
  0
LINE
  5
3A4
  8
0
 62
     7
 10
13.5
 20
10.1
 30
2.14
 11
12.0
 21
11.5
 31
4.0
  0
LINE
  5
3A5
  8
0
 62
     7
 10
13.5
 20
10.1
 30
2.14
 11
15.0
 21
11.5
 31
4.0
  0
LINE
  5
3A6
  8
0
 62
     7
 10
13.5
 20
10.1
 30
2.14
 11
15.0
 21
8.41
 31
3.74
  0
LINE
  5
3A7
  8
0
 62
     7
 10
15.0
 20
8.41
 30
3.74
 11
16.5
 21
10.1
 31
2.14
  0
LINE
  5
3A8
  8
0
 62
     7
 10
16.5
 20
10.1
 30
2.14
 11
15.0
 21
11.5
 31
4.0
  0
LINE
  5
3A9
  8
0
 62
     7
 10
16.5
 20
10.1
 30
2.14
 11
18.0
 21
11.5
 31
4.0
  0
LINE
  5
3AA
  8
0
 62
     7
 10
16.5
 20
10.1
 30
2.14
 11
18.0
 21
8.41
 31
3.74
  0
LINE
  5
3AB
  8
0
 62
     7
 10
18.0
 20
8.41
 30
3.74
 11
19.5
 21
10.1
 31
2.14
  0
LINE
  5
3AC
  8
0
 62
     7
 10
19.5
 20
10.1
 30
2.14
 11
18.0
 21
11.5
 31
4.0
  0
LINE
  5
3AD
  8
0
 62
     7
 10
19.5
 20
10.1
 30
2.14
 11
21.0
 21
11.5
 31
4.0
  0
LINE
  5
3AE
  8
0
 62
     7
 10
19.5
 20
10.1
 30
2.14
 11
21.0
 21
8.41
 31
3.74
  0
LINE
  5
3AF
  8
0
 62
     7
 10
21.0
 20
8.41
 30
3.74
 11
22.5
 21
10.1
 31
2.14
  0
LINE
  5
3B0
  8
0
 62
     7
 10
22.5
 20
10.1
 30
2.14
 11
21.0
 21
11.5
 31
4.0
  0
LINE
  5
3B1
  8
0
 62
     7
 10
22.5
 20
10.1
 30
2.14
 11
24.0
 21
11.5
 31
4.0
  0
LINE
  5
3B2
  8
0
 62
     7
 10
22.5
 20
10.1
 30
2.14
 11
24.0
 21
8.41
 31
3.74
  0
LINE
  5
3B3
  8
0
 62
     7
 10
24.0
 20
8.41
 30
3.74
 11
25.5
 21
10.1
 31
2.14
  0
LINE
  5
3B4
  8
0
 62
     7
 10
25.5
 20
10.1
 30
2.14
 11
24.0
 21
11.5
 31
4.0
  0
LINE
  5
3B5
  8
0
 62
     7
 10
25.5
 20
10.1
 30
2.14
 11
27.0
 21
11.5
 31
4.0
  0
LINE
  5
3B6
  8
0
 62
     7
 10
25.5
 20
10.1
 30
2.14
 11
27.0
 21
8.41
 31
3.74
  0
LINE
  5
3B7
  8
0
 62
     7
 10
27.0
 20
8.41
 30
3.74
 11
28.5
 21
10.1
 31
2.14
  0
LINE
  5
3B8
  8
0
 62
     7
 10
28.5
 20
10.1
 30
2.14
 11
27.0
 21
11.5
 31
4.0
  0
LINE
  5
3B9
  8
0
 62
     7
 10
28.5
 20
10.1
 30
2.14
 11
30.0
 21
11.5
 31
4.0
  0
LINE
  5
3BA
  8
0
 62
     7
 10
28.5
 20
10.1
 30
2.14
 11
30.0
 21
8.41
 31
3.74
  0
LINE
  5
3BB
  8
0
 62
     7
 10
30.0
 20
8.41
 30
3.74
 11
31.5
 21
10.1
 31
2.14
  0
LINE
  5
3BC
  8
0
 62
     7
 10
31.5
 20
10.1
 30
2.14
 11
30.0
 21
11.5
 31
4.0
  0
LINE
  5
3BD
  8
0
 62
     7
 10
31.5
 20
10.1
 30
2.14
 11
33.0
 21
11.5
 31
4.0
  0
LINE
  5
3BE
  8
0
 62
     7
 10
31.5
 20
10.1
 30
2.14
 11
33.0
 21
8.41
 31
3.74
  0
LINE
  5
3BF
  8
0
 62
     7
 10
33.0
 20
8.41
 30
3.74
 11
34.5
 21
10.1
 31
2.14
  0
LINE
  5
3C0
  8
0
 62
     7
 10
34.5
 20
10.1
 30
2.14
 11
33.0
 21
11.5
 31
4.0
  0
LINE
  5
3C1
  8
0
 62
     7
 10
34.5
 20
10.1
 30
2.14
 11
36.0
 21
11.5
 31
4.0
  0
LINE
  5
3C2
  8
0
 62
     7
 10
34.5
 20
10.1
 30
2.14
 11
36.0
 21
8.41
 31
3.74
  0
LINE
  5
3C3
  8
0
 62
     7
 10
36.0
 20
8.41
 30
3.74
 11
37.5
 21
10.1
 31
2.14
  0
LINE
  5
3C4
  8
0
 62
     7
 10
37.5
 20
10.1
 30
2.14
 11
36.0
 21
11.5
 31
4.0
  0
LINE
  5
3C5
  8
0
 62
     7
 10
37.5
 20
10.1
 30
2.14
 11
39.0
 21
11.5
 31
4.0
  0
LINE
  5
3C6
  8
0
 62
     7
 10
37.5
 20
10.1
 30
2.14
 11
39.0
 21
8.41
 31
3.74
  0
LINE
  5
3C7
  8
0
 62
     7
 10
39.0
 20
8.41
 30
3.74
 11
40.5
 21
10.1
 31
2.14
  0
LINE
  5
3C8
  8
0
 62
     7
 10
40.5
 20
10.1
 30
2.14
 11
39.0
 21
11.5
 31
4.0
  0
LINE
  5
3C9
  8
0
 62
     7
 10
40.5
 20
10.1
 30
2.14
 11
42.0
 21
11.5
 31
4.0
  0
LINE
  5
3CA
  8
0
 62
     7
 10
40.5
 20
10.1
 30
2.14
 11
42.0
 21
8.41
 31
3.74
  0
LINE
  5
3CB
  8
0
 62
     7
 10
42.0
 20
8.41
 30
3.74
 11
43.5
 21
10.1
 31
2.14
  0
LINE
  5
3CC
  8
0
 62
     7
 10
43.5
 20
10.1
 30
2.14
 11
42.0
 21
11.5
 31
4.0
  0
LINE
  5
3CD
  8
0
 62
     7
 10
43.5
 20
10.1
 30
2.14
 11
45.0
 21
11.5
 31
4.0
  0
LINE
  5
3CE
  8
0
 62
     7
 10
43.5
 20
10.1
 30
2.14
 11
45.0
 21
8.41
 31
3.74
  0
LINE
  5
3CF
  8
0
 62
     7
 10
45.0
 20
8.41
 30
3.74
 11
46.5
 21
10.1
 31
2.14
  0
LINE
  5
3D0
  8
0
 62
     7
 10
46.5
 20
10.1
 30
2.14
 11
45.0
 21
11.5
 31
4.0
  0
LINE
  5
3D1
  8
0
 62
     7
 10
46.5
 20
10.1
 30
2.14
 11
48.0
 21
11.5
 31
4.0
  0
LINE
  5
3D2
  8
0
 62
     7
 10
46.5
 20
10.1
 30
2.14
 11
48.0
 21
8.41
 31
3.74
  0
LINE
  5
3D3
  8
0
 62
     7
 10
48.0
 20
8.41
 30
3.74
 11
49.5
 21
10.1
 31
2.14
  0
LINE
  5
3D4
  8
0
 62
     7
 10
49.5
 20
10.1
 30
2.14
 11
48.0
 21
11.5
 31
4.0
  0
LINE
  5
3D5
  8
0
 62
     7
 10
49.5
 20
10.1
 30
2.14
 11
51.0
 21
11.5
 31
4.0
  0
LINE
  5
3D6
  8
0
 62
     7
 10
49.5
 20
10.1
 30
2.14
 11
51.0
 21
8.41
 31
3.74
  0
LINE
  5
3D7
  8
0
 62
     7
 10
51.0
 20
8.41
 30
3.74
 11
52.5
 21
10.1
 31
2.14
  0
LINE
  5
3D8
  8
0
 62
     7
 10
52.5
 20
10.1
 30
2.14
 11
51.0
 21
11.5
 31
4.0
  0
LINE
  5
3D9
  8
0
 62
     7
 10
52.5
 20
10.1
 30
2.14
 11
54.0
 21
11.5
 31
4.0
  0
LINE
  5
3DA
  8
0
 62
     7
 10
52.5
 20
10.1
 30
2.14
 11
54.0
 21
8.41
 31
3.74
  0
LINE
  5
3DB
  8
0
 62
     7
 10
54.0
 20
8.41
 30
3.74
 11
55.5
 21
10.1
 31
2.14
  0
LINE
  5
3DC
  8
0
 62
     7
 10
55.5
 20
10.1
 30
2.14
 11
54.0
 21
11.5
 31
4.0
  0
LINE
  5
3DD
  8
0
 62
     7
 10
55.5
 20
10.1
 30
2.14
 11
57.0
 21
11.5
 31
4.0
  0
LINE
  5
3DE
  8
0
 62
     7
 10
55.5
 20
10.1
 30
2.14
 11
57.0
 21
8.41
 31
3.74
  0
LINE
  5
3DF
  8
0
 62
     7
 10
57.0
 20
8.41
 30
3.74
 11
58.5
 21
10.1
 31
2.14
  0
LINE
  5
3E0
  8
0
 62
     7
 10
58.5
 20
10.1
 30
2.14
 11
57.0
 21
11.5
 31
4.0
  0
LINE
  5
3E1
  8
0
 62
     7
 10
58.5
 20
10.1
 30
2.14
 11
60.0
 21
11.5
 31
4.0
  0
LINE
  5
3E2
  8
0
 62
     7
 10
58.5
 20
10.1
 30
2.14
 11
60.0
 21
8.41
 31
3.74
  0
LINE
  5
3E3
  8
0
 62
     7
 10
60.0
 20
8.41
 30
3.74
 11
61.5
 21
10.1
 31
2.14
  0
LINE
  5
3E4
  8
0
 62
     7
 10
61.5
 20
10.1
 30
2.14
 11
60.0
 21
11.5
 31
4.0
  0
LINE
  5
3E5
  8
0
 62
     7
 10
61.5
 20
10.1
 30
2.14
 11
63.0
 21
11.5
 31
4.0
  0
LINE
  5
3E6
  8
0
 62
     7
 10
61.5
 20
10.1
 30
2.14
 11
62.45
 21
8.41
 31
3.74
  0
LINE
  5
3E7
  8
0
 62
     7
 10
0.0
 20
11.5
 30
4.0
 11
1.5
 21
12.9
 31
2.14
  0
LINE
  5
3E8
  8
0
 62
     7
 10
1.5
 20
12.9
 30
2.14
 11
0.0
 21
14.59
 31
3.74
  0
LINE
  5
3E9
  8
0
 62
     7
 10
1.5
 20
12.9
 30
2.14
 11
3.0
 21
14.59
 31
3.74
  0
LINE
  5
3EA
  8
0
 62
     7
 10
1.5
 20
12.9
 30
2.14
 11
3.0
 21
11.5
 31
4.0
  0
LINE
  5
3EB
  8
0
 62
     7
 10
3.0
 20
11.5
 30
4.0
 11
4.5
 21
12.9
 31
2.14
  0
LINE
  5
3EC
  8
0
 62
     7
 10
4.5
 20
12.9
 30
2.14
 11
3.0
 21
14.59
 31
3.74
  0
LINE
  5
3ED
  8
0
 62
     7
 10
4.5
 20
12.9
 30
2.14
 11
6.0
 21
14.59
 31
3.74
  0
LINE
  5
3EE
  8
0
 62
     7
 10
4.5
 20
12.9
 30
2.14
 11
6.0
 21
11.5
 31
4.0
  0
LINE
  5
3EF
  8
0
 62
     7
 10
6.0
 20
11.5
 30
4.0
 11
7.5
 21
12.9
 31
2.14
  0
LINE
  5
3F0
  8
0
 62
     7
 10
7.5
 20
12.9
 30
2.14
 11
6.0
 21
14.59
 31
3.74
  0
LINE
  5
3F1
  8
0
 62
     7
 10
7.5
 20
12.9
 30
2.14
 11
9.0
 21
14.59
 31
3.74
  0
LINE
  5
3F2
  8
0
 62
     7
 10
7.5
 20
12.9
 30
2.14
 11
9.0
 21
11.5
 31
4.0
  0
LINE
  5
3F3
  8
0
 62
     7
 10
9.0
 20
11.5
 30
4.0
 11
10.5
 21
12.9
 31
2.14
  0
LINE
  5
3F4
  8
0
 62
     7
 10
10.5
 20
12.9
 30
2.14
 11
9.0
 21
14.59
 31
3.74
  0
LINE
  5
3F5
  8
0
 62
     7
 10
10.5
 20
12.9
 30
2.14
 11
12.0
 21
14.59
 31
3.74
  0
LINE
  5
3F6
  8
0
 62
     7
 10
10.5
 20
12.9
 30
2.14
 11
12.0
 21
11.5
 31
4.0
  0
LINE
  5
3F7
  8
0
 62
     7
 10
12.0
 20
11.5
 30
4.0
 11
13.5
 21
12.9
 31
2.14
  0
LINE
  5
3F8
  8
0
 62
     7
 10
13.5
 20
12.9
 30
2.14
 11
12.0
 21
14.59
 31
3.74
  0
LINE
  5
3F9
  8
0
 62
     7
 10
13.5
 20
12.9
 30
2.14
 11
15.0
 21
14.59
 31
3.74
  0
LINE
  5
3FA
  8
0
 62
     7
 10
13.5
 20
12.9
 30
2.14
 11
15.0
 21
11.5
 31
4.0
  0
LINE
  5
3FB
  8
0
 62
     7
 10
15.0
 20
11.5
 30
4.0
 11
16.5
 21
12.9
 31
2.14
  0
LINE
  5
3FC
  8
0
 62
     7
 10
16.5
 20
12.9
 30
2.14
 11
15.0
 21
14.59
 31
3.74
  0
LINE
  5
3FD
  8
0
 62
     7
 10
16.5
 20
12.9
 30
2.14
 11
18.0
 21
14.59
 31
3.74
  0
LINE
  5
3FE
  8
0
 62
     7
 10
16.5
 20
12.9
 30
2.14
 11
18.0
 21
11.5
 31
4.0
  0
LINE
  5
3FF
  8
0
 62
     7
 10
18.0
 20
11.5
 30
4.0
 11
19.5
 21
12.9
 31
2.14
  0
LINE
  5
400
  8
0
 62
     7
 10
19.5
 20
12.9
 30
2.14
 11
18.0
 21
14.59
 31
3.74
  0
LINE
  5
401
  8
0
 62
     7
 10
19.5
 20
12.9
 30
2.14
 11
21.0
 21
14.59
 31
3.74
  0
LINE
  5
402
  8
0
 62
     7
 10
19.5
 20
12.9
 30
2.14
 11
21.0
 21
11.5
 31
4.0
  0
LINE
  5
403
  8
0
 62
     7
 10
21.0
 20
11.5
 30
4.0
 11
22.5
 21
12.9
 31
2.14
  0
LINE
  5
404
  8
0
 62
     7
 10
22.5
 20
12.9
 30
2.14
 11
21.0
 21
14.59
 31
3.74
  0
LINE
  5
405
  8
0
 62
     7
 10
22.5
 20
12.9
 30
2.14
 11
24.0
 21
14.59
 31
3.74
  0
LINE
  5
406
  8
0
 62
     7
 10
22.5
 20
12.9
 30
2.14
 11
24.0
 21
11.5
 31
4.0
  0
LINE
  5
407
  8
0
 62
     7
 10
24.0
 20
11.5
 30
4.0
 11
25.5
 21
12.9
 31
2.14
  0
LINE
  5
408
  8
0
 62
     7
 10
25.5
 20
12.9
 30
2.14
 11
24.0
 21
14.59
 31
3.74
  0
LINE
  5
409
  8
0
 62
     7
 10
25.5
 20
12.9
 30
2.14
 11
27.0
 21
14.59
 31
3.74
  0
LINE
  5
40A
  8
0
 62
     7
 10
25.5
 20
12.9
 30
2.14
 11
27.0
 21
11.5
 31
4.0
  0
LINE
  5
40B
  8
0
 62
     7
 10
27.0
 20
11.5
 30
4.0
 11
28.5
 21
12.9
 31
2.14
  0
LINE
  5
40C
  8
0
 62
     7
 10
28.5
 20
12.9
 30
2.14
 11
27.0
 21
14.59
 31
3.74
  0
LINE
  5
40D
  8
0
 62
     7
 10
28.5
 20
12.9
 30
2.14
 11
30.0
 21
14.59
 31
3.74
  0
LINE
  5
40E
  8
0
 62
     7
 10
28.5
 20
12.9
 30
2.14
 11
30.0
 21
11.5
 31
4.0
  0
LINE
  5
40F
  8
0
 62
     7
 10
30.0
 20
11.5
 30
4.0
 11
31.5
 21
12.9
 31
2.14
  0
LINE
  5
410
  8
0
 62
     7
 10
31.5
 20
12.9
 30
2.14
 11
30.0
 21
14.59
 31
3.74
  0
LINE
  5
411
  8
0
 62
     7
 10
31.5
 20
12.9
 30
2.14
 11
33.0
 21
14.59
 31
3.74
  0
LINE
  5
412
  8
0
 62
     7
 10
31.5
 20
12.9
 30
2.14
 11
33.0
 21
11.5
 31
4.0
  0
LINE
  5
413
  8
0
 62
     7
 10
33.0
 20
11.5
 30
4.0
 11
34.5
 21
12.9
 31
2.14
  0
LINE
  5
414
  8
0
 62
     7
 10
34.5
 20
12.9
 30
2.14
 11
33.0
 21
14.59
 31
3.74
  0
LINE
  5
415
  8
0
 62
     7
 10
34.5
 20
12.9
 30
2.14
 11
36.0
 21
14.59
 31
3.74
  0
LINE
  5
416
  8
0
 62
     7
 10
34.5
 20
12.9
 30
2.14
 11
36.0
 21
11.5
 31
4.0
  0
LINE
  5
417
  8
0
 62
     7
 10
36.0
 20
11.5
 30
4.0
 11
37.5
 21
12.9
 31
2.14
  0
LINE
  5
418
  8
0
 62
     7
 10
37.5
 20
12.9
 30
2.14
 11
36.0
 21
14.59
 31
3.74
  0
LINE
  5
419
  8
0
 62
     7
 10
37.5
 20
12.9
 30
2.14
 11
39.0
 21
14.59
 31
3.74
  0
LINE
  5
41A
  8
0
 62
     7
 10
37.5
 20
12.9
 30
2.14
 11
39.0
 21
11.5
 31
4.0
  0
LINE
  5
41B
  8
0
 62
     7
 10
39.0
 20
11.5
 30
4.0
 11
40.5
 21
12.9
 31
2.14
  0
LINE
  5
41C
  8
0
 62
     7
 10
40.5
 20
12.9
 30
2.14
 11
39.0
 21
14.59
 31
3.74
  0
LINE
  5
41D
  8
0
 62
     7
 10
40.5
 20
12.9
 30
2.14
 11
42.0
 21
14.59
 31
3.74
  0
LINE
  5
41E
  8
0
 62
     7
 10
40.5
 20
12.9
 30
2.14
 11
42.0
 21
11.5
 31
4.0
  0
LINE
  5
41F
  8
0
 62
     7
 10
42.0
 20
11.5
 30
4.0
 11
43.5
 21
12.9
 31
2.14
  0
LINE
  5
420
  8
0
 62
     7
 10
43.5
 20
12.9
 30
2.14
 11
42.0
 21
14.59
 31
3.74
  0
LINE
  5
421
  8
0
 62
     7
 10
43.5
 20
12.9
 30
2.14
 11
45.0
 21
14.59
 31
3.74
  0
LINE
  5
422
  8
0
 62
     7
 10
43.5
 20
12.9
 30
2.14
 11
45.0
 21
11.5
 31
4.0
  0
LINE
  5
423
  8
0
 62
     7
 10
45.0
 20
11.5
 30
4.0
 11
46.5
 21
12.9
 31
2.14
  0
LINE
  5
424
  8
0
 62
     7
 10
46.5
 20
12.9
 30
2.14
 11
45.0
 21
14.59
 31
3.74
  0
LINE
  5
425
  8
0
 62
     7
 10
46.5
 20
12.9
 30
2.14
 11
48.0
 21
14.59
 31
3.74
  0
LINE
  5
426
  8
0
 62
     7
 10
46.5
 20
12.9
 30
2.14
 11
48.0
 21
11.5
 31
4.0
  0
LINE
  5
427
  8
0
 62
     7
 10
48.0
 20
11.5
 30
4.0
 11
49.5
 21
12.9
 31
2.14
  0
LINE
  5
428
  8
0
 62
     7
 10
49.5
 20
12.9
 30
2.14
 11
48.0
 21
14.59
 31
3.74
  0
LINE
  5
429
  8
0
 62
     7
 10
49.5
 20
12.9
 30
2.14
 11
51.0
 21
14.59
 31
3.74
  0
LINE
  5
42A
  8
0
 62
     7
 10
49.5
 20
12.9
 30
2.14
 11
51.0
 21
11.5
 31
4.0
  0
LINE
  5
42B
  8
0
 62
     7
 10
51.0
 20
11.5
 30
4.0
 11
52.5
 21
12.9
 31
2.14
  0
LINE
  5
42C
  8
0
 62
     7
 10
52.5
 20
12.9
 30
2.14
 11
51.0
 21
14.59
 31
3.74
  0
LINE
  5
42D
  8
0
 62
     7
 10
52.5
 20
12.9
 30
2.14
 11
54.0
 21
14.59
 31
3.74
  0
LINE
  5
42E
  8
0
 62
     7
 10
52.5
 20
12.9
 30
2.14
 11
54.0
 21
11.5
 31
4.0
  0
LINE
  5
42F
  8
0
 62
     7
 10
54.0
 20
11.5
 30
4.0
 11
55.5
 21
12.9
 31
2.14
  0
LINE
  5
430
  8
0
 62
     7
 10
55.5
 20
12.9
 30
2.14
 11
54.0
 21
14.59
 31
3.74
  0
LINE
  5
431
  8
0
 62
     7
 10
55.5
 20
12.9
 30
2.14
 11
57.0
 21
14.59
 31
3.74
  0
LINE
  5
432
  8
0
 62
     7
 10
55.5
 20
12.9
 30
2.14
 11
57.0
 21
11.5
 31
4.0
  0
LINE
  5
433
  8
0
 62
     7
 10
57.0
 20
11.5
 30
4.0
 11
58.5
 21
12.9
 31
2.14
  0
LINE
  5
434
  8
0
 62
     7
 10
58.5
 20
12.9
 30
2.14
 11
57.0
 21
14.59
 31
3.74
  0
LINE
  5
435
  8
0
 62
     7
 10
58.5
 20
12.9
 30
2.14
 11
60.0
 21
14.59
 31
3.74
  0
LINE
  5
436
  8
0
 62
     7
 10
58.5
 20
12.9
 30
2.14
 11
60.0
 21
11.5
 31
4.0
  0
LINE
  5
437
  8
0
 62
     7
 10
60.0
 20
11.5
 30
4.0
 11
61.5
 21
12.9
 31
2.14
  0
LINE
  5
438
  8
0
 62
     7
 10
61.5
 20
12.9
 30
2.14
 11
60.0
 21
14.59
 31
3.74
  0
LINE
  5
439
  8
0
 62
     7
 10
61.5
 20
12.9
 30
2.14
 11
62.45
 21
14.59
 31
3.74
  0
LINE
  5
43A
  8
0
 62
     7
 10
61.5
 20
12.9
 30
2.14
 11
63.0
 21
11.5
 31
4.0
  0
LINE
  5
43B
  8
0
 62
     7
 10
0.0
 20
14.59
 30
3.74
 11
1.5
 21
15.66
 31
1.68
  0
LINE
  5
43C
  8
0
 62
     7
 10
1.5
 20
15.66
 30
1.68
 11
0.0
 21
17.59
 31
2.97
  0
LINE
  5
43D
  8
0
 62
     7
 10
1.5
 20
15.66
 30
1.68
 11
3.0
 21
17.59
 31
2.97
  0
LINE
  5
43E
  8
0
 62
     7
 10
1.5
 20
15.66
 30
1.68
 11
3.0
 21
14.59
 31
3.74
  0
LINE
  5
43F
  8
0
 62
     7
 10
3.0
 20
14.59
 30
3.74
 11
4.5
 21
15.66
 31
1.68
  0
LINE
  5
440
  8
0
 62
     7
 10
4.5
 20
15.66
 30
1.68
 11
3.0
 21
17.59
 31
2.97
  0
LINE
  5
441
  8
0
 62
     7
 10
4.5
 20
15.66
 30
1.68
 11
6.0
 21
17.59
 31
2.97
  0
LINE
  5
442
  8
0
 62
     7
 10
4.5
 20
15.66
 30
1.68
 11
6.0
 21
14.59
 31
3.74
  0
LINE
  5
443
  8
0
 62
     7
 10
6.0
 20
14.59
 30
3.74
 11
7.5
 21
15.66
 31
1.68
  0
LINE
  5
444
  8
0
 62
     7
 10
7.5
 20
15.66
 30
1.68
 11
6.0
 21
17.59
 31
2.97
  0
LINE
  5
445
  8
0
 62
     7
 10
7.5
 20
15.66
 30
1.68
 11
9.0
 21
17.59
 31
2.97
  0
LINE
  5
446
  8
0
 62
     7
 10
7.5
 20
15.66
 30
1.68
 11
9.0
 21
14.59
 31
3.74
  0
LINE
  5
447
  8
0
 62
     7
 10
9.0
 20
14.59
 30
3.74
 11
10.5
 21
15.66
 31
1.68
  0
LINE
  5
448
  8
0
 62
     7
 10
10.5
 20
15.66
 30
1.68
 11
9.0
 21
17.59
 31
2.97
  0
LINE
  5
449
  8
0
 62
     7
 10
10.5
 20
15.66
 30
1.68
 11
12.0
 21
17.59
 31
2.97
  0
LINE
  5
44A
  8
0
 62
     7
 10
10.5
 20
15.66
 30
1.68
 11
12.0
 21
14.59
 31
3.74
  0
LINE
  5
44B
  8
0
 62
     7
 10
12.0
 20
14.59
 30
3.74
 11
13.5
 21
15.66
 31
1.68
  0
LINE
  5
44C
  8
0
 62
     7
 10
13.5
 20
15.66
 30
1.68
 11
12.0
 21
17.59
 31
2.97
  0
LINE
  5
44D
  8
0
 62
     7
 10
13.5
 20
15.66
 30
1.68
 11
15.0
 21
17.59
 31
2.97
  0
LINE
  5
44E
  8
0
 62
     7
 10
13.5
 20
15.66
 30
1.68
 11
15.0
 21
14.59
 31
3.74
  0
LINE
  5
44F
  8
0
 62
     7
 10
15.0
 20
14.59
 30
3.74
 11
16.5
 21
15.66
 31
1.68
  0
LINE
  5
450
  8
0
 62
     7
 10
16.5
 20
15.66
 30
1.68
 11
15.0
 21
17.59
 31
2.97
  0
LINE
  5
451
  8
0
 62
     7
 10
16.5
 20
15.66
 30
1.68
 11
18.0
 21
17.59
 31
2.97
  0
LINE
  5
452
  8
0
 62
     7
 10
16.5
 20
15.66
 30
1.68
 11
18.0
 21
14.59
 31
3.74
  0
LINE
  5
453
  8
0
 62
     7
 10
18.0
 20
14.59
 30
3.74
 11
19.5
 21
15.66
 31
1.68
  0
LINE
  5
454
  8
0
 62
     7
 10
19.5
 20
15.66
 30
1.68
 11
18.0
 21
17.59
 31
2.97
  0
LINE
  5
455
  8
0
 62
     7
 10
19.5
 20
15.66
 30
1.68
 11
21.0
 21
17.59
 31
2.97
  0
LINE
  5
456
  8
0
 62
     7
 10
19.5
 20
15.66
 30
1.68
 11
21.0
 21
14.59
 31
3.74
  0
LINE
  5
457
  8
0
 62
     7
 10
21.0
 20
14.59
 30
3.74
 11
22.5
 21
15.66
 31
1.68
  0
LINE
  5
458
  8
0
 62
     7
 10
22.5
 20
15.66
 30
1.68
 11
21.0
 21
17.59
 31
2.97
  0
LINE
  5
459
  8
0
 62
     7
 10
22.5
 20
15.66
 30
1.68
 11
24.0
 21
17.59
 31
2.97
  0
LINE
  5
45A
  8
0
 62
     7
 10
22.5
 20
15.66
 30
1.68
 11
24.0
 21
14.59
 31
3.74
  0
LINE
  5
45B
  8
0
 62
     7
 10
24.0
 20
14.59
 30
3.74
 11
25.5
 21
15.66
 31
1.68
  0
LINE
  5
45C
  8
0
 62
     7
 10
25.5
 20
15.66
 30
1.68
 11
24.0
 21
17.59
 31
2.97
  0
LINE
  5
45D
  8
0
 62
     7
 10
25.5
 20
15.66
 30
1.68
 11
27.0
 21
17.59
 31
2.97
  0
LINE
  5
45E
  8
0
 62
     7
 10
25.5
 20
15.66
 30
1.68
 11
27.0
 21
14.59
 31
3.74
  0
LINE
  5
45F
  8
0
 62
     7
 10
27.0
 20
14.59
 30
3.74
 11
28.5
 21
15.66
 31
1.68
  0
LINE
  5
460
  8
0
 62
     7
 10
28.5
 20
15.66
 30
1.68
 11
27.0
 21
17.59
 31
2.97
  0
LINE
  5
461
  8
0
 62
     7
 10
28.5
 20
15.66
 30
1.68
 11
30.0
 21
17.59
 31
2.97
  0
LINE
  5
462
  8
0
 62
     7
 10
28.5
 20
15.66
 30
1.68
 11
30.0
 21
14.59
 31
3.74
  0
LINE
  5
463
  8
0
 62
     7
 10
30.0
 20
14.59
 30
3.74
 11
31.5
 21
15.66
 31
1.68
  0
LINE
  5
464
  8
0
 62
     7
 10
31.5
 20
15.66
 30
1.68
 11
30.0
 21
17.59
 31
2.97
  0
LINE
  5
465
  8
0
 62
     7
 10
31.5
 20
15.66
 30
1.68
 11
33.0
 21
17.59
 31
2.97
  0
LINE
  5
466
  8
0
 62
     7
 10
31.5
 20
15.66
 30
1.68
 11
33.0
 21
14.59
 31
3.74
  0
LINE
  5
467
  8
0
 62
     7
 10
33.0
 20
14.59
 30
3.74
 11
34.5
 21
15.66
 31
1.68
  0
LINE
  5
468
  8
0
 62
     7
 10
34.5
 20
15.66
 30
1.68
 11
33.0
 21
17.59
 31
2.97
  0
LINE
  5
469
  8
0
 62
     7
 10
34.5
 20
15.66
 30
1.68
 11
36.0
 21
17.59
 31
2.97
  0
LINE
  5
46A
  8
0
 62
     7
 10
34.5
 20
15.66
 30
1.68
 11
36.0
 21
14.59
 31
3.74
  0
LINE
  5
46B
  8
0
 62
     7
 10
36.0
 20
14.59
 30
3.74
 11
37.5
 21
15.66
 31
1.68
  0
LINE
  5
46C
  8
0
 62
     7
 10
37.5
 20
15.66
 30
1.68
 11
36.0
 21
17.59
 31
2.97
  0
LINE
  5
46D
  8
0
 62
     7
 10
37.5
 20
15.66
 30
1.68
 11
39.0
 21
17.59
 31
2.97
  0
LINE
  5
46E
  8
0
 62
     7
 10
37.5
 20
15.66
 30
1.68
 11
39.0
 21
14.59
 31
3.74
  0
LINE
  5
46F
  8
0
 62
     7
 10
39.0
 20
14.59
 30
3.74
 11
40.5
 21
15.66
 31
1.68
  0
LINE
  5
470
  8
0
 62
     7
 10
40.5
 20
15.66
 30
1.68
 11
39.0
 21
17.59
 31
2.97
  0
LINE
  5
471
  8
0
 62
     7
 10
40.5
 20
15.66
 30
1.68
 11
42.0
 21
17.59
 31
2.97
  0
LINE
  5
472
  8
0
 62
     7
 10
40.5
 20
15.66
 30
1.68
 11
42.0
 21
14.59
 31
3.74
  0
LINE
  5
473
  8
0
 62
     7
 10
42.0
 20
14.59
 30
3.74
 11
43.5
 21
15.66
 31
1.68
  0
LINE
  5
474
  8
0
 62
     7
 10
43.5
 20
15.66
 30
1.68
 11
42.0
 21
17.59
 31
2.97
  0
LINE
  5
475
  8
0
 62
     7
 10
43.5
 20
15.66
 30
1.68
 11
45.0
 21
17.59
 31
2.97
  0
LINE
  5
476
  8
0
 62
     7
 10
43.5
 20
15.66
 30
1.68
 11
45.0
 21
14.59
 31
3.74
  0
LINE
  5
477
  8
0
 62
     7
 10
45.0
 20
14.59
 30
3.74
 11
46.5
 21
15.66
 31
1.68
  0
LINE
  5
478
  8
0
 62
     7
 10
46.5
 20
15.66
 30
1.68
 11
45.0
 21
17.59
 31
2.97
  0
LINE
  5
479
  8
0
 62
     7
 10
46.5
 20
15.66
 30
1.68
 11
48.0
 21
17.59
 31
2.97
  0
LINE
  5
47A
  8
0
 62
     7
 10
46.5
 20
15.66
 30
1.68
 11
48.0
 21
14.59
 31
3.74
  0
LINE
  5
47B
  8
0
 62
     7
 10
48.0
 20
14.59
 30
3.74
 11
49.5
 21
15.66
 31
1.68
  0
LINE
  5
47C
  8
0
 62
     7
 10
49.5
 20
15.66
 30
1.68
 11
48.0
 21
17.59
 31
2.97
  0
LINE
  5
47D
  8
0
 62
     7
 10
49.5
 20
15.66
 30
1.68
 11
51.0
 21
17.59
 31
2.97
  0
LINE
  5
47E
  8
0
 62
     7
 10
49.5
 20
15.66
 30
1.68
 11
51.0
 21
14.59
 31
3.74
  0
LINE
  5
47F
  8
0
 62
     7
 10
51.0
 20
14.59
 30
3.74
 11
52.5
 21
15.66
 31
1.68
  0
LINE
  5
480
  8
0
 62
     7
 10
52.5
 20
15.66
 30
1.68
 11
51.0
 21
17.59
 31
2.97
  0
LINE
  5
481
  8
0
 62
     7
 10
52.5
 20
15.66
 30
1.68
 11
54.0
 21
17.59
 31
2.97
  0
LINE
  5
482
  8
0
 62
     7
 10
52.5
 20
15.66
 30
1.68
 11
54.0
 21
14.59
 31
3.74
  0
LINE
  5
483
  8
0
 62
     7
 10
54.0
 20
14.59
 30
3.74
 11
55.5
 21
15.66
 31
1.68
  0
LINE
  5
484
  8
0
 62
     7
 10
55.5
 20
15.66
 30
1.68
 11
54.0
 21
17.59
 31
2.97
  0
LINE
  5
485
  8
0
 62
     7
 10
55.5
 20
15.66
 30
1.68
 11
57.0
 21
17.59
 31
2.97
  0
LINE
  5
486
  8
0
 62
     7
 10
55.5
 20
15.66
 30
1.68
 11
57.0
 21
14.59
 31
3.74
  0
LINE
  5
487
  8
0
 62
     7
 10
57.0
 20
14.59
 30
3.74
 11
58.5
 21
15.66
 31
1.68
  0
LINE
  5
488
  8
0
 62
     7
 10
58.5
 20
15.66
 30
1.68
 11
57.0
 21
17.59
 31
2.97
  0
LINE
  5
489
  8
0
 62
     7
 10
58.5
 20
15.66
 30
1.68
 11
60.73
 21
17.59
 31
2.97
  0
LINE
  5
48A
  8
0
 62
     7
 10
58.5
 20
15.66
 30
1.68
 11
60.0
 21
14.59
 31
3.74
  0
LINE
  5
48B
  8
0
 62
     7
 10
60.0
 20
14.59
 30
3.74
 11
60.85
 21
15.66
 31
1.68
  0
LINE
  5
48C
  8
0
 62
     7
 10
60.85
 20
15.66
 30
1.68
 11
60.73
 21
17.59
 31
2.97
  0
LINE
  5
48D
  8
0
 62
     7
 10
60.85
 20
15.66
 30
1.68
 11
62.45
 21
14.59
 31
3.74
  0
LINE
  5
48E
  8
0
 62
     7
 10
0.0
 20
17.59
 30
2.97
 11
1.5
 21
18.3
 31
0.76
  0
LINE
  5
48F
  8
0
 62
     7
 10
1.5
 20
18.3
 30
0.76
 11
0.0
 21
20.42
 31
1.71
  0
LINE
  5
490
  8
0
 62
     7
 10
1.5
 20
18.3
 30
0.76
 11
3.0
 21
20.42
 31
1.71
  0
LINE
  5
491
  8
0
 62
     7
 10
1.5
 20
18.3
 30
0.76
 11
3.0
 21
17.59
 31
2.97
  0
LINE
  5
492
  8
0
 62
     7
 10
3.0
 20
17.59
 30
2.97
 11
4.5
 21
18.3
 31
0.76
  0
LINE
  5
493
  8
0
 62
     7
 10
4.5
 20
18.3
 30
0.76
 11
3.0
 21
20.42
 31
1.71
  0
LINE
  5
494
  8
0
 62
     7
 10
4.5
 20
18.3
 30
0.76
 11
6.0
 21
20.42
 31
1.71
  0
LINE
  5
495
  8
0
 62
     7
 10
4.5
 20
18.3
 30
0.76
 11
6.0
 21
17.59
 31
2.97
  0
LINE
  5
496
  8
0
 62
     7
 10
6.0
 20
17.59
 30
2.97
 11
7.5
 21
18.3
 31
0.76
  0
LINE
  5
497
  8
0
 62
     7
 10
7.5
 20
18.3
 30
0.76
 11
6.0
 21
20.42
 31
1.71
  0
LINE
  5
498
  8
0
 62
     7
 10
7.5
 20
18.3
 30
0.76
 11
9.0
 21
20.42
 31
1.71
  0
LINE
  5
499
  8
0
 62
     7
 10
7.5
 20
18.3
 30
0.76
 11
9.0
 21
17.59
 31
2.97
  0
LINE
  5
49A
  8
0
 62
     7
 10
9.0
 20
17.59
 30
2.97
 11
10.5
 21
18.3
 31
0.76
  0
LINE
  5
49B
  8
0
 62
     7
 10
10.5
 20
18.3
 30
0.76
 11
9.0
 21
20.42
 31
1.71
  0
LINE
  5
49C
  8
0
 62
     7
 10
10.5
 20
18.3
 30
0.76
 11
12.0
 21
20.42
 31
1.71
  0
LINE
  5
49D
  8
0
 62
     7
 10
10.5
 20
18.3
 30
0.76
 11
12.0
 21
17.59
 31
2.97
  0
LINE
  5
49E
  8
0
 62
     7
 10
12.0
 20
17.59
 30
2.97
 11
13.5
 21
18.3
 31
0.76
  0
LINE
  5
49F
  8
0
 62
     7
 10
13.5
 20
18.3
 30
0.76
 11
12.0
 21
20.42
 31
1.71
  0
LINE
  5
4A0
  8
0
 62
     7
 10
13.5
 20
18.3
 30
0.76
 11
15.0
 21
20.42
 31
1.71
  0
LINE
  5
4A1
  8
0
 62
     7
 10
13.5
 20
18.3
 30
0.76
 11
15.0
 21
17.59
 31
2.97
  0
LINE
  5
4A2
  8
0
 62
     7
 10
15.0
 20
17.59
 30
2.97
 11
16.5
 21
18.3
 31
0.76
  0
LINE
  5
4A3
  8
0
 62
     7
 10
16.5
 20
18.3
 30
0.76
 11
15.0
 21
20.42
 31
1.71
  0
LINE
  5
4A4
  8
0
 62
     7
 10
16.5
 20
18.3
 30
0.76
 11
18.0
 21
20.42
 31
1.71
  0
LINE
  5
4A5
  8
0
 62
     7
 10
16.5
 20
18.3
 30
0.76
 11
18.0
 21
17.59
 31
2.97
  0
LINE
  5
4A6
  8
0
 62
     7
 10
18.0
 20
17.59
 30
2.97
 11
19.5
 21
18.3
 31
0.76
  0
LINE
  5
4A7
  8
0
 62
     7
 10
19.5
 20
18.3
 30
0.76
 11
18.0
 21
20.42
 31
1.71
  0
LINE
  5
4A8
  8
0
 62
     7
 10
19.5
 20
18.3
 30
0.76
 11
21.0
 21
20.42
 31
1.71
  0
LINE
  5
4A9
  8
0
 62
     7
 10
19.5
 20
18.3
 30
0.76
 11
21.0
 21
17.59
 31
2.97
  0
LINE
  5
4AA
  8
0
 62
     7
 10
21.0
 20
17.59
 30
2.97
 11
22.5
 21
18.3
 31
0.76
  0
LINE
  5
4AB
  8
0
 62
     7
 10
22.5
 20
18.3
 30
0.76
 11
21.0
 21
20.42
 31
1.71
  0
LINE
  5
4AC
  8
0
 62
     7
 10
22.5
 20
18.3
 30
0.76
 11
24.0
 21
20.42
 31
1.71
  0
LINE
  5
4AD
  8
0
 62
     7
 10
22.5
 20
18.3
 30
0.76
 11
24.0
 21
17.59
 31
2.97
  0
LINE
  5
4AE
  8
0
 62
     7
 10
24.0
 20
17.59
 30
2.97
 11
25.5
 21
18.3
 31
0.76
  0
LINE
  5
4AF
  8
0
 62
     7
 10
25.5
 20
18.3
 30
0.76
 11
24.0
 21
20.42
 31
1.71
  0
LINE
  5
4B0
  8
0
 62
     7
 10
25.5
 20
18.3
 30
0.76
 11
27.0
 21
20.42
 31
1.71
  0
LINE
  5
4B1
  8
0
 62
     7
 10
25.5
 20
18.3
 30
0.76
 11
27.0
 21
17.59
 31
2.97
  0
LINE
  5
4B2
  8
0
 62
     7
 10
27.0
 20
17.59
 30
2.97
 11
28.5
 21
18.3
 31
0.76
  0
LINE
  5
4B3
  8
0
 62
     7
 10
28.5
 20
18.3
 30
0.76
 11
27.0
 21
20.42
 31
1.71
  0
LINE
  5
4B4
  8
0
 62
     7
 10
28.5
 20
18.3
 30
0.76
 11
30.0
 21
20.42
 31
1.71
  0
LINE
  5
4B5
  8
0
 62
     7
 10
28.5
 20
18.3
 30
0.76
 11
30.0
 21
17.59
 31
2.97
  0
LINE
  5
4B6
  8
0
 62
     7
 10
30.0
 20
17.59
 30
2.97
 11
31.5
 21
18.3
 31
0.76
  0
LINE
  5
4B7
  8
0
 62
     7
 10
31.5
 20
18.3
 30
0.76
 11
30.0
 21
20.42
 31
1.71
  0
LINE
  5
4B8
  8
0
 62
     7
 10
31.5
 20
18.3
 30
0.76
 11
33.0
 21
20.42
 31
1.71
  0
LINE
  5
4B9
  8
0
 62
     7
 10
31.5
 20
18.3
 30
0.76
 11
33.0
 21
17.59
 31
2.97
  0
LINE
  5
4BA
  8
0
 62
     7
 10
33.0
 20
17.59
 30
2.97
 11
34.5
 21
18.3
 31
0.76
  0
LINE
  5
4BB
  8
0
 62
     7
 10
34.5
 20
18.3
 30
0.76
 11
33.0
 21
20.42
 31
1.71
  0
LINE
  5
4BC
  8
0
 62
     7
 10
34.5
 20
18.3
 30
0.76
 11
36.0
 21
20.42
 31
1.71
  0
LINE
  5
4BD
  8
0
 62
     7
 10
34.5
 20
18.3
 30
0.76
 11
36.0
 21
17.59
 31
2.97
  0
LINE
  5
4BE
  8
0
 62
     7
 10
36.0
 20
17.59
 30
2.97
 11
37.5
 21
18.3
 31
0.76
  0
LINE
  5
4BF
  8
0
 62
     7
 10
37.5
 20
18.3
 30
0.76
 11
36.0
 21
20.42
 31
1.71
  0
LINE
  5
4C0
  8
0
 62
     7
 10
37.5
 20
18.3
 30
0.76
 11
39.0
 21
20.42
 31
1.71
  0
LINE
  5
4C1
  8
0
 62
     7
 10
37.5
 20
18.3
 30
0.76
 11
39.0
 21
17.59
 31
2.97
  0
LINE
  5
4C2
  8
0
 62
     7
 10
39.0
 20
17.59
 30
2.97
 11
40.5
 21
18.3
 31
0.76
  0
LINE
  5
4C3
  8
0
 62
     7
 10
40.5
 20
18.3
 30
0.76
 11
39.0
 21
20.42
 31
1.71
  0
LINE
  5
4C4
  8
0
 62
     7
 10
40.5
 20
18.3
 30
0.76
 11
42.0
 21
20.42
 31
1.71
  0
LINE
  5
4C5
  8
0
 62
     7
 10
40.5
 20
18.3
 30
0.76
 11
42.0
 21
17.59
 31
2.97
  0
LINE
  5
4C6
  8
0
 62
     7
 10
42.0
 20
17.59
 30
2.97
 11
43.5
 21
18.3
 31
0.76
  0
LINE
  5
4C7
  8
0
 62
     7
 10
43.5
 20
18.3
 30
0.76
 11
42.0
 21
20.42
 31
1.71
  0
LINE
  5
4C8
  8
0
 62
     7
 10
43.5
 20
18.3
 30
0.76
 11
45.0
 21
20.42
 31
1.71
  0
LINE
  5
4C9
  8
0
 62
     7
 10
43.5
 20
18.3
 30
0.76
 11
45.0
 21
17.59
 31
2.97
  0
LINE
  5
4CA
  8
0
 62
     7
 10
45.0
 20
17.59
 30
2.97
 11
46.5
 21
18.3
 31
0.76
  0
LINE
  5
4CB
  8
0
 62
     7
 10
46.5
 20
18.3
 30
0.76
 11
45.0
 21
20.42
 31
1.71
  0
LINE
  5
4CC
  8
0
 62
     7
 10
46.5
 20
18.3
 30
0.76
 11
48.0
 21
20.42
 31
1.71
  0
LINE
  5
4CD
  8
0
 62
     7
 10
46.5
 20
18.3
 30
0.76
 11
48.0
 21
17.59
 31
2.97
  0
LINE
  5
4CE
  8
0
 62
     7
 10
48.0
 20
17.59
 30
2.97
 11
49.5
 21
18.3
 31
0.76
  0
LINE
  5
4CF
  8
0
 62
     7
 10
49.5
 20
18.3
 30
0.76
 11
48.0
 21
20.42
 31
1.71
  0
LINE
  5
4D0
  8
0
 62
     7
 10
49.5
 20
18.3
 30
0.76
 11
51.0
 21
20.42
 31
1.71
  0
LINE
  5
4D1
  8
0
 62
     7
 10
49.5
 20
18.3
 30
0.76
 11
51.0
 21
17.59
 31
2.97
  0
LINE
  5
4D2
  8
0
 62
     7
 10
51.0
 20
17.59
 30
2.97
 11
52.5
 21
18.3
 31
0.76
  0
LINE
  5
4D3
  8
0
 62
     7
 10
52.5
 20
18.3
 30
0.76
 11
51.0
 21
20.42
 31
1.71
  0
LINE
  5
4D4
  8
0
 62
     7
 10
52.5
 20
18.3
 30
0.76
 11
54.0
 21
20.42
 31
1.71
  0
LINE
  5
4D5
  8
0
 62
     7
 10
52.5
 20
18.3
 30
0.76
 11
54.0
 21
17.59
 31
2.97
  0
LINE
  5
4D6
  8
0
 62
     7
 10
54.0
 20
17.59
 30
2.97
 11
55.5
 21
18.3
 31
0.76
  0
LINE
  5
4D7
  8
0
 62
     7
 10
55.5
 20
18.3
 30
0.76
 11
54.0
 21
20.42
 31
1.71
  0
LINE
  5
4D8
  8
0
 62
     7
 10
55.5
 20
18.3
 30
0.76
 11
57.47
 21
20.42
 31
1.71
  0
LINE
  5
4D9
  8
0
 62
     7
 10
55.5
 20
18.3
 30
0.76
 11
57.0
 21
17.59
 31
2.97
  0
LINE
  5
4DA
  8
0
 62
     7
 10
57.0
 20
17.59
 30
2.97
 11
58.65
 21
18.3
 31
0.76
  0
LINE
  5
4DB
  8
0
 62
     7
 10
58.65
 20
18.3
 30
0.76
 11
57.47
 21
20.42
 31
1.71
  0
LINE
  5
4DC
  8
0
 62
     7
 10
58.65
 20
18.3
 30
0.76
 11
60.73
 21
17.59
 31
2.97
  0
LINE
  5
4DD
  8
0
 62
     7
 10
0.0
 20
20.42
 30
1.71
 11
1.5
 21
20.75
 31
-0.59
  0
LINE
  5
4DE
  8
0
 62
     7
 10
1.5
 20
20.75
 30
-0.59
 11
0.0
 21
23.0
 31
0.0
  0
LINE
  5
4DF
  8
0
 62
     7
 10
1.5
 20
20.75
 30
-0.59
 11
3.0
 21
23.0
 31
0.0
  0
LINE
  5
4E0
  8
0
 62
     7
 10
1.5
 20
20.75
 30
-0.59
 11
3.0
 21
20.42
 31
1.71
  0
LINE
  5
4E1
  8
0
 62
     7
 10
3.0
 20
20.42
 30
1.71
 11
4.5
 21
20.75
 31
-0.59
  0
LINE
  5
4E2
  8
0
 62
     7
 10
4.5
 20
20.75
 30
-0.59
 11
3.0
 21
23.0
 31
0.0
  0
LINE
  5
4E3
  8
0
 62
     7
 10
4.5
 20
20.75
 30
-0.59
 11
6.0
 21
23.0
 31
0.0
  0
LINE
  5
4E4
  8
0
 62
     7
 10
4.5
 20
20.75
 30
-0.59
 11
6.0
 21
20.42
 31
1.71
  0
LINE
  5
4E5
  8
0
 62
     7
 10
6.0
 20
20.42
 30
1.71
 11
7.5
 21
20.75
 31
-0.59
  0
LINE
  5
4E6
  8
0
 62
     7
 10
7.5
 20
20.75
 30
-0.59
 11
6.0
 21
23.0
 31
0.0
  0
LINE
  5
4E7
  8
0
 62
     7
 10
7.5
 20
20.75
 30
-0.59
 11
9.0
 21
23.0
 31
0.0
  0
LINE
  5
4E8
  8
0
 62
     7
 10
7.5
 20
20.75
 30
-0.59
 11
9.0
 21
20.42
 31
1.71
  0
LINE
  5
4E9
  8
0
 62
     7
 10
9.0
 20
20.42
 30
1.71
 11
10.5
 21
20.75
 31
-0.59
  0
LINE
  5
4EA
  8
0
 62
     7
 10
10.5
 20
20.75
 30
-0.59
 11
9.0
 21
23.0
 31
0.0
  0
LINE
  5
4EB
  8
0
 62
     7
 10
10.5
 20
20.75
 30
-0.59
 11
12.0
 21
23.0
 31
0.0
  0
LINE
  5
4EC
  8
0
 62
     7
 10
10.5
 20
20.75
 30
-0.59
 11
12.0
 21
20.42
 31
1.71
  0
LINE
  5
4ED
  8
0
 62
     7
 10
12.0
 20
20.42
 30
1.71
 11
13.5
 21
20.75
 31
-0.59
  0
LINE
  5
4EE
  8
0
 62
     7
 10
13.5
 20
20.75
 30
-0.59
 11
12.0
 21
23.0
 31
0.0
  0
LINE
  5
4EF
  8
0
 62
     7
 10
13.5
 20
20.75
 30
-0.59
 11
15.0
 21
23.0
 31
0.0
  0
LINE
  5
4F0
  8
0
 62
     7
 10
13.5
 20
20.75
 30
-0.59
 11
15.0
 21
20.42
 31
1.71
  0
LINE
  5
4F1
  8
0
 62
     7
 10
15.0
 20
20.42
 30
1.71
 11
16.5
 21
20.75
 31
-0.59
  0
LINE
  5
4F2
  8
0
 62
     7
 10
16.5
 20
20.75
 30
-0.59
 11
15.0
 21
23.0
 31
0.0
  0
LINE
  5
4F3
  8
0
 62
     7
 10
16.5
 20
20.75
 30
-0.59
 11
18.0
 21
23.0
 31
0.0
  0
LINE
  5
4F4
  8
0
 62
     7
 10
16.5
 20
20.75
 30
-0.59
 11
18.0
 21
20.42
 31
1.71
  0
LINE
  5
4F5
  8
0
 62
     7
 10
18.0
 20
20.42
 30
1.71
 11
19.5
 21
20.75
 31
-0.59
  0
LINE
  5
4F6
  8
0
 62
     7
 10
19.5
 20
20.75
 30
-0.59
 11
18.0
 21
23.0
 31
0.0
  0
LINE
  5
4F7
  8
0
 62
     7
 10
19.5
 20
20.75
 30
-0.59
 11
21.0
 21
23.0
 31
0.0
  0
LINE
  5
4F8
  8
0
 62
     7
 10
19.5
 20
20.75
 30
-0.59
 11
21.0
 21
20.42
 31
1.71
  0
LINE
  5
4F9
  8
0
 62
     7
 10
21.0
 20
20.42
 30
1.71
 11
22.5
 21
20.75
 31
-0.59
  0
LINE
  5
4FA
  8
0
 62
     7
 10
22.5
 20
20.75
 30
-0.59
 11
21.0
 21
23.0
 31
0.0
  0
LINE
  5
4FB
  8
0
 62
     7
 10
22.5
 20
20.75
 30
-0.59
 11
24.0
 21
23.0
 31
0.0
  0
LINE
  5
4FC
  8
0
 62
     7
 10
22.5
 20
20.75
 30
-0.59
 11
24.0
 21
20.42
 31
1.71
  0
LINE
  5
4FD
  8
0
 62
     7
 10
24.0
 20
20.42
 30
1.71
 11
25.5
 21
20.75
 31
-0.59
  0
LINE
  5
4FE
  8
0
 62
     7
 10
25.5
 20
20.75
 30
-0.59
 11
24.0
 21
23.0
 31
0.0
  0
LINE
  5
4FF
  8
0
 62
     7
 10
25.5
 20
20.75
 30
-0.59
 11
27.0
 21
23.0
 31
0.0
  0
LINE
  5
500
  8
0
 62
     7
 10
25.5
 20
20.75
 30
-0.59
 11
27.0
 21
20.42
 31
1.71
  0
LINE
  5
501
  8
0
 62
     7
 10
27.0
 20
20.42
 30
1.71
 11
28.5
 21
20.75
 31
-0.59
  0
LINE
  5
502
  8
0
 62
     7
 10
28.5
 20
20.75
 30
-0.59
 11
27.0
 21
23.0
 31
0.0
  0
LINE
  5
503
  8
0
 62
     7
 10
28.5
 20
20.75
 30
-0.59
 11
30.0
 21
23.0
 31
0.0
  0
LINE
  5
504
  8
0
 62
     7
 10
28.5
 20
20.75
 30
-0.59
 11
30.0
 21
20.42
 31
1.71
  0
LINE
  5
505
  8
0
 62
     7
 10
30.0
 20
20.42
 30
1.71
 11
31.5
 21
20.75
 31
-0.59
  0
LINE
  5
506
  8
0
 62
     7
 10
31.5
 20
20.75
 30
-0.59
 11
30.0
 21
23.0
 31
0.0
  0
LINE
  5
507
  8
0
 62
     7
 10
31.5
 20
20.75
 30
-0.59
 11
33.0
 21
23.0
 31
0.0
  0
LINE
  5
508
  8
0
 62
     7
 10
31.5
 20
20.75
 30
-0.59
 11
33.0
 21
20.42
 31
1.71
  0
LINE
  5
509
  8
0
 62
     7
 10
33.0
 20
20.42
 30
1.71
 11
34.5
 21
20.75
 31
-0.59
  0
LINE
  5
50A
  8
0
 62
     7
 10
34.5
 20
20.75
 30
-0.59
 11
33.0
 21
23.0
 31
0.0
  0
LINE
  5
50B
  8
0
 62
     7
 10
34.5
 20
20.75
 30
-0.59
 11
36.0
 21
23.0
 31
0.0
  0
LINE
  5
50C
  8
0
 62
     7
 10
34.5
 20
20.75
 30
-0.59
 11
36.0
 21
20.42
 31
1.71
  0
LINE
  5
50D
  8
0
 62
     7
 10
36.0
 20
20.42
 30
1.71
 11
37.5
 21
20.75
 31
-0.59
  0
LINE
  5
50E
  8
0
 62
     7
 10
37.5
 20
20.75
 30
-0.59
 11
36.0
 21
23.0
 31
0.0
  0
LINE
  5
50F
  8
0
 62
     7
 10
37.5
 20
20.75
 30
-0.59
 11
39.0
 21
23.0
 31
0.0
  0
LINE
  5
510
  8
0
 62
     7
 10
37.5
 20
20.75
 30
-0.59
 11
39.0
 21
20.42
 31
1.71
  0
LINE
  5
511
  8
0
 62
     7
 10
39.0
 20
20.42
 30
1.71
 11
40.5
 21
20.75
 31
-0.59
  0
LINE
  5
512
  8
0
 62
     7
 10
40.5
 20
20.75
 30
-0.59
 11
39.0
 21
23.0
 31
0.0
  0
LINE
  5
513
  8
0
 62
     7
 10
40.5
 20
20.75
 30
-0.59
 11
42.0
 21
23.0
 31
0.0
  0
LINE
  5
514
  8
0
 62
     7
 10
40.5
 20
20.75
 30
-0.59
 11
42.0
 21
20.42
 31
1.71
  0
LINE
  5
515
  8
0
 62
     7
 10
42.0
 20
20.42
 30
1.71
 11
43.5
 21
20.75
 31
-0.59
  0
LINE
  5
516
  8
0
 62
     7
 10
43.5
 20
20.75
 30
-0.59
 11
42.0
 21
23.0
 31
0.0
  0
LINE
  5
517
  8
0
 62
     7
 10
43.5
 20
20.75
 30
-0.59
 11
45.0
 21
23.0
 31
0.0
  0
LINE
  5
518
  8
0
 62
     7
 10
43.5
 20
20.75
 30
-0.59
 11
45.0
 21
20.42
 31
1.71
  0
LINE
  5
519
  8
0
 62
     7
 10
45.0
 20
20.42
 30
1.71
 11
46.5
 21
20.75
 31
-0.59
  0
LINE
  5
51A
  8
0
 62
     7
 10
46.5
 20
20.75
 30
-0.59
 11
45.0
 21
23.0
 31
0.0
  0
LINE
  5
51B
  8
0
 62
     7
 10
46.5
 20
20.75
 30
-0.59
 11
48.0
 21
23.0
 31
0.0
  0
LINE
  5
51C
  8
0
 62
     7
 10
46.5
 20
20.75
 30
-0.59
 11
48.0
 21
20.42
 31
1.71
  0
LINE
  5
51D
  8
0
 62
     7
 10
48.0
 20
20.42
 30
1.71
 11
49.5
 21
20.75
 31
-0.59
  0
LINE
  5
51E
  8
0
 62
     7
 10
49.5
 20
20.75
 30
-0.59
 11
48.0
 21
23.0
 31
0.0
  0
LINE
  5
51F
  8
0
 62
     7
 10
49.5
 20
20.75
 30
-0.59
 11
51.0
 21
22.77
 31
0.0
  0
LINE
  5
520
  8
0
 62
     7
 10
49.5
 20
20.75
 30
-0.59
 11
51.0
 21
20.42
 31
1.71
  0
LINE
  5
521
  8
0
 62
     7
 10
51.0
 20
20.42
 30
1.71
 11
52.5
 21
20.75
 31
-0.59
  0
LINE
  5
522
  8
0
 62
     7
 10
52.5
 20
20.75
 30
-0.59
 11
51.0
 21
22.77
 31
0.0
  0
LINE
  5
523
  8
0
 62
     7
 10
52.5
 20
20.75
 30
-0.59
 11
54.0
 21
22.04
 31
0.0
  0
LINE
  5
524
  8
0
 62
     7
 10
52.5
 20
20.75
 30
-0.59
 11
54.0
 21
20.42
 31
1.71
  0
LINE
  5
525
  8
0
 62
     7
 10
54.0
 20
20.42
 30
1.71
 11
55.5
 21
20.55
 31
-0.59
  0
LINE
  5
526
  8
0
 62
     7
 10
55.5
 20
20.55
 30
-0.59
 11
54.0
 21
22.04
 31
0.0
  0
LINE
  5
527
  8
0
 62
     7
 10
55.5
 20
20.55
 30
-0.59
 11
57.47
 21
20.42
 31
1.71
  0
ENDSEC
  0
EOF
